<mxfile host="app.diagrams.net" modified="2021-01-20T01:43:15.862Z" agent="5.0 (Linux; Android 10; TAS-AN00; HMSCore 5.1.0.309) AppleWebKit/537.36 (KHTML, like Gecko) Chrome/83.0.4103.106 HuaweiBrowser/11.0.6.301 Mobile Safari/537.36" etag="lqdQcL10wo9J3CcRUKW8" version="14.2.5" type="github">
  <diagram id="lQ1admeOI3ylfcIopSIk" name="Page-1">
    <mxGraphModel dx="931" dy="1514" grid="1" gridSize="10" guides="1" tooltips="1" connect="1" arrows="1" fold="1" page="1" pageScale="1" pageWidth="827" pageHeight="1169" math="0" shadow="0">
      <root>
        <mxCell id="0" />
        <mxCell id="1" parent="0" />
        <mxCell id="WE9eMmcDr3sHaRaAIiyQ-1" value="" style="shape=image;imageAspect=0;aspect=fixed;verticalLabelPosition=bottom;verticalAlign=top;image=data:image/png,iVBORw0KGgoAAAANSUhEUgAACAAAAAMFCAYAAADgbRZ5AAAAAXNSR0IArs4c6QAAAARzQklUCAgICHwIZIgAACAASURBVHic7N15lJ5nfR/87+waLTOy9s2SLHlGixcZL7LxzmYIgUBKIKGQEJKmbdJ0y9ueNu15U/r2bRLavKVNUpISQiAQ1hgIDgbMZhvb2MaWN62jzda+jraRZnuW9w/ZjyVsS5rRjB7p0edzjs657+e+7uv+SbP4HF/f63fXlcvlcqAKSqVSent7UyqVql0KAAAAAAAAcB6or69Pa2tr6uvrq13KBalOAIBqKpfLGRgYyMDAQLVLAQAAAAAAAKqoubk5zc3Nqaurq3YpFywBAM4LpVIpfX19KRaL1S4FAAAAAAAAOIcaGhoyZswYu/5HgAAA55XBwcH09/fHtyUAAAAAAADUtrq6urS0tKSpqanapdQMAQDOO+VyOYODgxkYGBAEAAAAAAAAgBpTV1eX5ubmNDU1afc/wgQAOG8JAgAAAAAAAEDtsPA/+gQAOO+Vy+UUCoUMDAykVCpVuxwAAAAAAABgCOrr69Pc3JzGxkYL/6NMAIALSqlUyuDgYAYHB3UFAAAAAAAAgPNUXV1dmpqa0tTUlPr6+mqXc9EQAOCCVC6XUywWUygUUiwWdQYAAAAAAACAKquvr09DQ0MaGxvT2NhY7XIuSgIA1ISXXhNQLBYFAgAAAAAAAOAceGnB/6VFf+39q08AgJpULpdTLpdTKpVO+vPSt3stfNvXwt8BAAAAAACgVtXCYvhLf4e6urrU19ef9Keurq4m/o61RgAAAAAAAAAAAGpAfbULAAAAAAAAAADOngAAAAAAAAAAANQAAQAAAAAAAAAAqAECAAAAAAAAAABQAwQAAAAAAAAAAKAGCAAAAAAAAAAAQA0QAAAAAAAAAACAGiAAAAAAAAAAAAA1QAAAAAAAAAAAAGqAAAAAAAAAAAAA1AABAAAAAAAAAACoAQIAAAAAAAAAAFADBAAAAAAAAAAAoAYIAAAAAAAAAABADRAAAAAAAAAAAIAaIAAAAAAAAAAAADVAAAAAAAAAAAAAaoAAAAAAAAAAAADUAAEAAAAAAAAAAKgBAgAAAAAAAAAAUAMEAAAAAAAAAACgBggAAAAAAAAAAEANEAAAAAAAAAAAgBogAAAAAAAAAAAANUAAAAAAAAAAAABqgAAAAAAAAAAAANSAUQsAbNm+u/IHAC4ma9etS8fSZelYuixf/PLfVrscAAAAAADgItFY7QIAoNas69qQ1tbWtLS05Gfedle1ywEAAAAAAC4SdeVyuTwaE5+483/u7Omj8QgAAAAAAAAA4EWj9goAAAAAAAAAAODcEQAAAAAAAAAAgBogAAAAAAAAAAAANUAAAAAAAAAAAABqgAAAAAAAAAAAANQAAQAAAAAAAAAAqAECAAAAAAAAAABQAwQAAAAAAAAAAKAGCAAAAAAAAAAAQA0QAAAAAAAAAACAGiAAAAAAAAAAAAA1QAAAAAAAAAAAAGqAAAAAAAAAAAAA1AABAAAAAAAAAACoAQIAAAAAAAAAAFADBAAAAAAAAAAAoAYIAAAAAAAAAABADRAAAAAAAAAAAIAaIAAAAAAAAAAAADVAAAAAAAAAAAAAaoAAAAAAAAAAAADUAAEAAAAAAAAAAKgBAgAAAAAAAAAAUAMEAAAAAAAAAACgBggAAAAAAAAAAEANEAAAAAAAAAAAgBogAAAAAAAAAAAANUAAAAAAAAAAAABqQGO1C7jYdHcfyJMrnqqcL7/hurS3tw9rrsOHD2flqtU5evRYkuTOO29PU+PQv6SlUikHDhzM/u7uHD58OMeO9SZJWlvHZOLEiZk2dcqwa6x1pVIpy66/KW1tbbls/rwsXbIkt91yc25+/U1paJCvAQAAAAAAAM4dAYBzqFAoZM3atSMy186du7J6zdqUSqWzmmfvvn3ZuHFzjhw58opr/f39OXjwUJ5//oXMnDkjixd1pnEYAYNaVi4nfX396evbmz179uaxx5/IX33ms7nqyivysT/6w8ybO7faJQIAAAAAAAAXCVuUz6ENGzZWdtcPV7FYzLqu9Vm5avVZLf6/NM/TTz970uL/2LGtmTplSqZMnpzGhobK5zt37spzz61KsVg8q/prTV1d8isfeH9+7h0/m/nzXl7sf27lqnz4N34zPT1Hq1gdAAAAAAAAcDGxnfsc2btvX7Zu254kmTZtavbs2TvkOfr6+rJq9Zp0dx9Ikkyc2J6BgYFhhQoGBwezd+++yvncS+dk1uxZmTB+fOWzQqGYbdu2Zf2GjUmSffv3Z+euXZkze/aQn1er6uvr83//x39fOf/Ofd/Lv/idf5tSqZStW7flO9/9bt7z8++uYoUAAAAAAADAxUIHgHNgYGAg69atT5LMnDkj409YZD9TBw4czE+eWFFZ/J88aVKuWXZ16uuH9yUcM2ZMrr7qikyYMCE3Lr8+ixZ1nrT4nySNjQ2ZP39e5s+fV/lsy5atw3rexeKtd7057/65d1TOV68emVc+AAAAAAAAAJyOAMA5sGHjpvT2Ht+lP2/e3CG30S8UCnlu5ar09fUlSWbNmpmrr74qTU1NKRaH/xqAtra23Lj8+rS1tZ1y3OxZsyrHR48eq/xdeHUdHZdXjnuOegUAAAAAAAAAcG4IAIyyPXv2Zvv2HUmSBQsuy4Tx41MaYgCgsbExS5cuTpJ0XL4wS5csTmNjQ5Lj4YCzUVdXd9oxra1jThp3ts+sdQ0ndGUol8sjNu/27TvyKx/+jVx74y35F//63+bwkSMjNjcAAAAAAABw4RMAGEX9/f1Zu64ryfHd9vPmzk2SFEtD37U/ZfLk3HTT8syfP++kxfihdhMYjjMJCTD6/uJTn86PH3s8R4705FvfuS9/942/r3ZJAAAAAAAAwHlEAGAUretan/7+/iTJksWdlV37pWEEAJJkwvjxr/hsuHMNxcDAwEk72VtaWkb9mbzS1q3bTjrfvmNHlSoBAAAAAAAAzkcCAKNk585d2b17T5Lk8oUL0tbWVrk2Uov2I9le/lRObDU/cWJ7mpubz8lzOdn8eXNPOr90zpwqVQIAAAAAAACcjxqrXUAt6u3tzbqu9UmOL5jP+6mF23O0bj9itm9/eaf5zJkzqljJxe0f/fqvZsvWbVm9dm1uvunGvOud76h2SQAAAAAAAMB5RABghJXL5XR1bcjg4GDq6+uzePGi1NdfuI0W9u3fnz179iZJxowZkxnTp1e5ovNfU1NT5Xjf/v0jNu/MGTPyF3/+pyM2HwAAAAAAAFBbLtyV6fPUjp07s2fv8QXzjssXZsL48VWuaPj6+/uzdm1X5byz4/I0NsqMnM78efMqxw8/8mjWrus6xWgAAAAAAACAkSEAMIKOHj2Wrhdb/0+ePClz5syuckXDVywWs2rVmvT29iZJZs+alenTp1W5qgvDjcuvz9Ili5MkpVIpH/zQr+cLX/pKpZMCAAAAAAAAwGgQABghpVIp67q6UigU09jYkEWdnRds6/+XXmOwv7s7STJxYns6OzuqXNWFo6mpKZ/4+J/k9ltvSZIcOnw4v/ef/9/ccuebc8udb84vffBD+dSnP1vlKgEAAAAAAIBac2GuUJ+Htm7bnv37jy+Yd3RcnnHjxla5ouHbvPn5bNu+PUnS2tqaK69YmsbGhipXdWGZPn1a/vITH89Xv/z53HHbrZXP9+zZmydXPJ0tW7dWsToAAAAAAACgFnmh+wg40tOTDRs2JkmmTZ2a2bNmVbmi4du2fXs2btqcJGlsbMyyq69Ma2trlau68BSLxXzms5/P//nkX6a7+0C1ywEAAAAAAAAuAgIAI2Dnzl0plUpJku4D3XngwYdOOb5QKFSOV6x4OnUnvCrg9ttuqdqrA3bv3pM1a9YlSerr67Ps6qsyYcKEqtRyofsvv//R/M0XvlQ5f9tdb8m73/WOLO7szKTJk9LS3FzF6gAAAAAAAIBaJAAwAsrlcuW4UCgmKZ7xvYViMSm+PP7Euc6l/d3deW7lqsr5VVddkUmTLqlKLRe6DRs3nbT4/18+8n/nl973C1WsCAAAAAAAALgYVGerOeeVgwcP5dlnn6uED6668opMmzq1ylVduJ559tnK8aLOjvzie99TxWoAAAAAAACAi4UOACNgUWdHFnV2nPH4p595Lnv37k2SLL/hurS3t49Waad1pKcnTz/z7IudC5IlSxZlxozpVaunFhw50lM5XtTZmbq6uipWAwAAAAAAAFwsdAC4iB071ptnnnkug4ODSZLOjsszZ/bsKld14TvxNQ4NDX7EAAAAAAAAgHPD6uRFqr+/P888+2x6e3uTJPPmzc2cObNTLBbP6M+Ji9ycGx/97/8jHUuXVf50dx+odkkAAAAAAADAecQrAC5Smzc/n56eo5XzF17Ykhde2HLG91f71QUXo9Vr11WOF1w2P5MmXVK9YgAAAAAAAIDzjg4AFykb+C8spVIpz61cWTl/211vqWI1AAAAAAAAwPlIAAAuALt2786RIz2V8ze96Q1VrAYAAAAAAAA4H3kFQBVcs+yqEZmnrq4ub3nzG4d175Ili7JkyaIRqYOTDQwMVo7r6kcmY7N58/OV4/nz5ubKpUtGZF4AAAAAAACgdugAACNs9Zo1leNJEyeOyJyrVr885y+9772pH6FgAQAAAAAAAFA7dACAEVIul/ONv7839377vspn1yy7ekTmfurpZ5Mk9fX1+Zm3vWVE5gQAAAAAAABqiwAAnIVSqZT/+of/PQcPHspTzzyTrVu3Va5decXSvOHO28/6GcViKY/95CdJkre/7a7MmjnzrOcEAAAAAAAAao8AAJyFcjn56899/hWf33zTjfmjj/5+mpubz/oZW7ZuTaFQTGtra37pfe896/kAAAAAAACA2iQAAGeppaUlbW0TsnDBZbnyiity5+23ZfkN16Wurm5E5r9s/rw8++SjIzIXAAAAAAAAULsEAOAsNDTUZ+VTj1e7DAAAAAAAAIDUV7sAAAAAAAAAAODsCQAAAAAAAAAAQA0QAAAAAAAAAACAGiAAAAAAAAAAAAA1QAAAAAAAAAAAAGqAAAAAAAAAAAAA1AABAAAAAAAAAACoAQIAAAAAAAAAAFADBAAAAAAAAAAAoAYIAAAAAAAAAABADRAAAAAAAAAAAIAaIAAAAAAAAAAAADVAAAAAAAAAAAAAaoAAAAAAAAAAAADUAAEAAAAAAAAAAKgBAgAAAAAAAAAAUAMEAAAAAAAAAACgBggAAAAAAAAAAEANEAAAAAAAAAAAgBogAAAAAAAAAAAANUAAAAAAAAAAAABqgAAAAAAAAAAAANQAAQAAAAAAAAAAqAECAAAAAAAAAABQAwQAAAAAAAAAAKAGCAAAAAAAAAAAQA0QAAAAAAAAAACAGtBY7QIuNt3dB/Lkiqcq58tvuC7t7e3Dmuvw4cNZuWp1jh49liS5887b09Q4tC9puVzOoUOHc/DgwRw4cDB9/X3p6+tLU1Nzxo5tTXt7e6ZOmZy2trZh1QgAAAAAAADAuSEAcA4VCoWsWbt2RObauXNXVq9Zm1KpNOw59u7bl82bX8ihQ4deca1Q6E1vb2/27+/Opk2bM3PmjCzq7EhTU9PZlA0AAAAAAADAKBEAOIc2bNiYY8d6z2qOYrGYDRs3ZcuWrWc1z9q167J12/aTPmtsaMiEtglpampKb29fenp6Ui6XkxwPHPT29uaaa5YNucsAAAAAAAAAAKPPSu45snffvsqC+7RpU7Nnz94hz9HX15dVq9eku/tAkmTixPYMDAwMK1TQ3t6erdu2p76+PnPmzM6M6dMyYcKE1NfXV8YMDg5my9Zt2bRpc5Lk4MFD2bZ1Wy67bP6QnwcAAAAAAADA6BIAOAcGBgaybt36JMnMmTPS2to65ADAgQMHs3LV6vT19SVJJk+alKuuuiJPPLliWDXNnDkjhWIxkydNytixra86pqmpKQsXXJb6urps2LgpSbJ12/bMmzf3pKAAAAAAAAAAANVnFfcc2LBxU3p7j+/SnzdvborF4pDuLxQKeW7lqsri/6xZM3P11VelqakpxWJp2HVdOmf2ay7+n2jmzBmV4/7+/vT39w/7mQAAAAAAAACMDgGAUbZnz95s374jSbJgwWWZMH58SkMMADQ2Nmbp0sVJko7LF2bpksVpbGxIcjwcMNqamppOOj+b0AEAAAAAAAAAo8MrAEZRf39/1q7rSpK0tbVl3ty5SZJiaegL6FMmT85NNy3PhPHjT/p8qN0EhmNgYOCk8+bmptcYCQAAAAAAAEC16AAwitZ1ra+0y1+yuLOya780jABAklcs/p/NXEOxd+++yvEll0xMc3PzqD8TAAAAAAAAgKERABglO3fuyu7de5Ikly9ckLa2tsq1kVq0L5fLIzLPqezf350NGzdVzi+7bP6oPxMAAAAAAACAofMKgFHQ29ubdV3rkyQTJ7Zn3ry5J10/B+v2w1Yul1MoFHL06LHs2rUrW7dtr1xb1NmRyZMmVbE6AAAAAAAAAF6LAMAIK5fL6erakMHBwdTX12fx4kWprz+/Gy0cPnw4jz3+xGtenzxpUi67bH4uuWTiOasJAAAAAAAAgKERABhhO3buzJ69e5MkHZcvzITx46tc0fC1tLRk3txLM3Xq1Iwd21rtcgAAAAAAAAA4BQGAEXT06LF0vdj6f/LkSZkzZ3aVKzozjY1NufTFWkulcgrFQo4dPZYjPT3pWr8hXes3ZNKkS3LZ/PmZNOmSKlcLAAAAAAAAwKsRABghpVIp67q6UigU09jYkEWdned96/+XjB3bmsWLF73i8/7+/uzZuy8bN25Kd/eBdHcfyKLOjsyde2kVqgQAAAAAAADgVC6MFeoLwNZt27N/f3eSpKPj8owbN7bKFZ29lpaWXDpndq6//to0Nh7PiqzrWp+DBw9VuTIAAAAAAAAAfpoAwAg40tOTDRs2JkmmTZ2a2bNmVbmikTV+3LhcNn9e5Xz7jh1VrAYAAAAAAACAV+MVACNg585dKZVKSZLuA9154MGHTjm+UChUjleseDp1J7wq4PbbbjkvXx0wceLEyvG+ffurWAkAAAAAAAAAr0YAYASUy+XKcaFQTFI843sLxWJSfHn8iXOdTxoaXg4lDAwMpFwup66urooVAQAAAAAAAHCi82+rOeel/oGBynFLS4vFfwAAAAAAAIDzjA4AI2BRZ0cWdXac8finn3kue/fuTZIsv+G6tLe3j1ZpI2b/CW3/J048/+sFAAAAAAAAuNjoAHARKhSKGRwcPOPxBw4czJat2yrn06ZOHY2yAAAAAAAAADgLOgBchPr7+/P44z/J7DmzM2Xy5Exom5Cmxld+K/T392fXrt3ZuGlz5bOJE9szbZoAAAAAAAAAAMD5RgDgIlUoFvPCC1vywgtbkiQTJkxIa+uYNDQ0pFgspvdYb4709Jx0z/jx43LVlVekvl7jCAAAAAAAAIDzjQDARaipqTFtbW05fPhw5bMjR47kyJEjr3nPpXNmZ+HCBWlqajoXJQIAAAAAAAAwRAIAF6Hm5uYsv+G6HD58OAcPHsqRnp709BzNwMBABgcH09TUlJaWlkwYPz5t7RMyZfLkjBkzptplAwAAAAAAAHAKdeVyuTwaE2/ZvrtyPHf29NF4BAAAAAAAAADwIi9zBwAAAAAAAIAaIAAAAAAAAAAAADVAAAAAAAAAAAAAaoAAAAAAAAAAAADUAAEAAAAAAAAAAKgBAgAAAAAAAAAAUAMEAAAAAAAAAACgBggAAAAAAAAAAEANEAAAAAAAAAAAgBogAAAAAAAAAAAANUAAAAAAAAAAAABqgAAAAAAAAAAAANQAAQAAAAAAAAAAqAECAAAAAAAAAABQAwQAAAAAAAAAAKAGCAAAAAAAAAAAQA0QAAAAAAAAAACAGiAAAAAAAAAAAAA1QAAAAAAAAAAAAGqAAAAAAAAAAAAA1AABAAAAAAAAAACoAQIAAAAAAAAAAFADBAAAAAAAAAAAoAYIAAAAAAAAAABADRAAAAAAAAAAAIAaIAAAAAAAAAAAADVAAAAAAAAAAAAAaoAAAAAAAAAAAADUAAEAAAAAAAAAAKgBAgAAAAAAAAAAUAMEAAAAAAAAAACgBjRWuwDgzHz3hw/l69+8L0lSV1eXP/7of0p9/dlneP73Jz+b1WvXJ0k6Fl6Wf/WbHz7rOQEAAAAAAIBzTwcAuEC0t02oHLdNGD8ii/9JMrGtrXJ8ycS2U4wEAAAAAAAAzmc6AJxj3d0H8uSKpyrny2+4Lu3t7cOa6/Dhw1m5anWOHj2WJLnzztvT1DhyX9L+/v489vgT6e/vT5J0dnZk3txLR2z+i82JO/iXX7csH3r/e4Z0/8T20Vmon3jCXCc+AwAAAAAAALiwCACcQ4VCIWvWrh2RuXbu3JXVa9amVCqNyHyvpmv9hsriP2enVCrlwYcfq5zfccuNQ56jvf3lDgAThxkaedV5206cVwAAAAAAAAAALlQCAOfQhg0bc+xY71nNUSwWs2HjpmzZsnWEqnp1u3btzq5du0f1GReT51avS/fBQ0mSeZfOzvy5c4Y8x8mt+kcuAHBJuw4AAAAAAAAAUAsEAM6Rvfv2Zeu27UmSadOmZs+evUOeo6+vL6tWr0l394EkycSJ7RkYGDjrUMGrPWftuq6zqpWTPfDQy7v/77z1plOO/dyXvpa6+vpcuaQziy5fkDFjWpIkLS3NGTOmJX19/Zl4QjeAJNmzd3/WdG3IqjVdueWm67PsyiUnXS+Xy/lv/+v/ZHHHwixd3JEF8y9NQ0NDkqT9hEX/E7sBlEqlvLB1e9as25BVa7vyj3/1H550HQAAAAAAADi/CACcAwMDA1m3bn2SZObMGWltbR3yovqBAwezctXq9PX1JUkmT5qUq666Ik88uWJEay2Xy1m7bn0GBwczZsyYzJg+XQDgLO3ctSfrNmxKkowfPy6vW3bFKcev3/RC9u3vziOPPZn6+vp0LJifK5Z0ZunijlzS3padfXszpqUlK9d0Zc26DVm5Zl327T9QuX/hZfNeEQA4eOhwtmzbkS3bduS+H/4oY8a0ZEnn5bliSWcunT2zMq6+ri6PP/lMVq9dn1Xr1p8ULtnffUAAAAAAAAAAAM5jAgDnwIaNm9Lbe3whdd68udm5c9eQ7i8UCnlu5ar09/cnSWbNmplFnZ1pbGxIsVga0Vp37NiZvXuPL/gvXHBZ6urqRnT+i9EDjzxeOb71puvT1PjaP3aFYjHdBw5WzkulUtZt2JR1Gzblq/d8u/L5F+6+5zXn2Lu/+xWf7fupz/r6+vPUs6vy1LOrTvr8o//r/7zmvPv2H8iC+XNf8zoAAAAAAABQXQIAo2zPnr3Zvn1HkmTBgssyYfz4bC8WhzRHY2Njli5dnKeeeiYdly/MvHlzKwvzhUJhxGo9dqw3XV3HOxVMmnRJZsyw+/9s9fb25bEnnk6S1NfX59abrj/l+MJgIW+64+b0HD2Wo0ePpefosfQcPZqeo8fS29uXcrlcGdvY2Jjx48Zm/LixGTdubMaNHZsJ48dl7pxZr5h3bGtr3nj7zek5erQy79Fjx9LTcyx9LwZLXtLS0lyZc/y4cRk3tjXjx43LpEkTR+BfBAAAAAAAABgtAgCjqL+/P2vXdSVJ2traMm/u8d3TxdLQd+1PmTw5N920PBPGjz/p8+IQwwSvpVQqZd26rhSKxTQ0NGTxokWpr68fsfkvVo8+8VQGBgaSJMuuXJJLJrafcvyYMS1598/e9YrP+/r68wcf+7OTdvK/461vzFvecOsZ1TF71oy85+fe9orPt27fmT/640+k8OLXub6+Pr/9G79ipz8AAAAAAABcgOqrXUAtW9e1vtK2f8ni4y37k+OL7cPx04v/ZzPXT9u2fUf27d+fJOnouDzjxo09Pv8JO84ZmnK5nAcefqxyfuetNw57ri/c/Y3s29+d5uamXH3F4iTJN771vWx+Yeuw5+zvH8inPvflFIrFXDbv0kyZfElKpVL+6nNfydFjvcOeFwAAAAAAAKgOAYBRsnPnruzevSdJcvnCBWlra6tcG6lF+/IILc739BzN+vUbkhzvNDBn9sst5EfqGRej1es2ZO++4zv2Z82cnssXzB/WPD9+fEWeeOq5JMlN178u7/7Zu1JXV5dSqZRPfe4rOdY7vMX6L33t77Nn7/HQxxtvf33ueuNtSZLug4fyuS99zdceAAAAAAAALjACAKOgt7c367rWJ0kmTmzPvHknt1M/n9ZVS6VS1q5bl1KplMbGxixa1Jm6urpql1UTHnjo0crxcHf/796zL1/++r2V8ztuuTHTp03J665emiTpPnAwn/vS14c87+NPPpPHnng6STKxvS3LrlySG6+7JhPbjwdVnl219qTuBQAAAAAAAMD5TwBghJXL5XR1bcjg4GDq6+uzePGi1Nefv//MW7ZszYEDB5Mkizo7MnZs60nX7QIfnr37urN63fGuCq2tY3LDtcuGPMdgoZBPfe7LGRgYSJIs6bw8M6ZPTZK87U13VMY9s3LNkBbr9+7rzhe/ek/l/I5bbkxDQ0MaGxvzljfcWvn8q/d8J1u27Rhy3QAAAAAAAEB1nL8r0xeoHTt3Zs/evUmSjssXZsL48VWu6LUdOXIkGzZuSpJMmzY1M2fOqHJFtePBRx6vhCduXn5dmpuahjzHvd/5Ybbt2FU5f8NtN1WOZ8+akauWLqqcf/Ub387uPftOO2e5XM6nP/+V9PcfDxU0Njbm5huvq1y/5cbrMn78uCRJsVjMX33uKykUCkOuHQAAAAAAADj3BABG0NGjx9L1Yuv/yZMnZc6c2VWu6LUVi8WsWduVcrmcpqamLOrs0Pp/hAwMDOTHj69IktTV1eX2m28Y1jx3vfG2vO3Nd6S5uTnTpkzO0sUdJ11/65tuT5JMmzo5H/7gezN92pTTzllXV5df/YfvzXXXXJW6urosv3ZZxo8bW7ne1NSUN99xS5JkcefC/Novvy+NjY3Dqh8AAAAAAAA4t6zsjZBSqZR1nGdV7gAAIABJREFUXV0pFIppbGzIos7O87r1//MvbMmhQ4eSJEsWL8qYMWOqXFHteOzJZ9Lb15ckuWJxR6ZMnjSseVpbx+Sdb3tT7rjlxuzdt/8VAY3L5l2af/Lhf5grFnekoaHhjOedOmVSfu2D781db7wtLc3Nr7h+2803ZM7sGVnSefmw6gYAAAAAAACqQwBghGzdtj3793cnSTo6Ls+4E3ZVn28OHTqUTZs2J0lmzpyR6dOnVbmi2vLAQ49Wju+89aZTjDwzbRPGp23Cq79K4uorFg973jmzXv2VD2NaWiz+AwAAAAAAwAXo/N2ifgE50tOTDRs2JkmmTZ2a2bNmVbmi11YoFLNmzbokSUtLSzo7LPSOpK4Nm7Nz994kybQpk7O4c2GVKwIAAAAAAAAuFjoAjICdO3elVColSboPdOeBBx865fhCoVA5XrHi6dSd8KqA22+7ZVRfHXDgQHeO9PQkSQYHB/PIjx875fiX/l5JsnHjpmze/Hzl/HXXXJ329vZRqfNCdf8Ju//vuPXGV7TtBwAAAAAAABgtAgAjoFwuV44LhWKS4hnfWygWk+LL40+cazScOH2pVDppgf90isViisUz/7tdbLoPHMyzq9YmSVpamnPj9ddUuSIAAAAAAADgYuIVADBCHvrxE5UAx03Xvy6tY8ZUuSIAAAAAAADgYqIDwAhY1NmRRZ0dZzz+6Weey969x98Tv/yG685pG/1p06bmLW9+4xmPf2HL1nR1rU+SdHZ2ZN7cS0ertAva4OBgHnr0icr5bTcvr2I1AAAAAAAAwMVIBwAYAU8+vTJHjx1LkizqWJCZ06dWuSIAAAAAAADgYiMAACPg/ocerRzfccuNVawEAAAAAAAAuFgJAMBZ2vT8lmzdvjNJMumSiblq6aIqVwQAAAAAAABcjAQA4Cw98PBjlePbb16e+no/VgAAAAAAAMC5Z6USzsKhw0ey4plVSZLGxsa8fvm1Va4IAAAAAAAAuFjVlcvl8mhMvGX77srx3NnTR+MRAAAAAAAAAMCLdAAAAAAAAAAAgBogAAAAAAAAAAAANUAAAAAAAAAAAABqgAAAAAAAAAAAANQAAQAAAAAAAAAAqAECAAAAAAAAAABQAwQAAAAAAAAAAKAGCAAAAAAAAAAAQA0QAAAAAAAAAACAGiAAAAAAAAAAAAA1QAAAAAAAAAAAAGqAAAAAAAAAAAAA1AABAAAAAAAAAACoAQIAAAAAAAAAAFADBAAAAAAAAAAAoAYIAAAAAAAAAABADRAAAAAAAAAAAIAaIAAAAAAAAAAAADVAAAAAAAAAAAAAaoAAAAAAAAAAAADUAAEAAAAAAAAAAKgBAgAAAAAAAAAAUAMEAAAAAAAAAACgBggAAAAAAAAAAEANEAAAAAAAAAAAgBogAAAAAAAAAAAANUAAAAAAAAAAAABqgAAAAAAAAAAAANQAAQCg6roPHkpfX3+1yzinisVitUu4YPT29lW7BBi2w0d6UiqVhnTP7r37Ui6XR6kiRsOBg4eq+vze3r4cOnwkBw8drmodAAAAAED1NXzkIx/5yGhMfOjI0cpxe9v40XgEcIHbvXdfPv7Jz+Zrf/+d9PcP5IolnVWr5Xv3P5SuDZszc8b0NDc1jeqznt+yLR/7+KfS2NiQWTOmpaGhYVSfdyYeePix7O8+mEsmtqWpsfG047ds3Z4Nm1/Izl17Mm3K5NTXj06e7MiRnvzeH3ws3/3BQ1m9bkOuvnJxmkb56zNU33/gkXzmC3+b+x96NFcuWZRxY1tH9Xm9vX35wYOP5O57vpVrrlqa5uah/Xv09BzNH/7PP8/+7gNpbR2Tie1to1TpuffHf/7pfP+Bh9N98FAWdyw8o3u+d/9D+dGPf5K+vv5MnzZlxH8e//uffCJf/+Z9WbVmfa5/3VWnnf/Q4SP5vd//WO5/+LGMaWnJvEtnj2g955t9+7vz3fsfSnNTU9rbJqSuru6U45/fsi1f+bt7s+KZlZk5fVomjB93Vs/fsm1H9ncfyCUT24d1//fufygf/+Tnct8PfpTFHQsy6ZKJZ1XP7r378oW7v5HGhoZMnnRJGs7wd+snPvOFfPHue/L4imfyljtvPasaAAAAAIAL2+lXeQBOYceuPSkWi7l09swh3zt18qQMFgpJkgcfeTyvX37tsOY5W+s3bs7Xv/ndlMvlPPHUs/mP/+a3T7sIdTYeePixdB84mC999e8zf+6czJ0z6xVjNr+wNYeP9Ax57ssXzMu4sWOHdM/RY8fy1Xu+k0KhkI6F8/OvfvPXKtfK5fKr/ls8+sTTeeDhx5Ik/+3/+d00nkFoYDi+8a3vV7pDzJg2JWNbR3dxfTiO9fZm3/4DSc5NZ4fV6zbkG9/6XpLkk3/9xfz2P/5QGoewaP3t7z+Y3Xv2Zfeefdm5e2/+2T/65dEq9ZzbtWdvDh0+klkzp5/R+L7+/nz7+w+mt7cvL2zdnuXXLRvRevr6+rNr997Kz9GZhIvWrd+UJDl2rHfEwxl79u1P94GDIzrnlEmXZMrkScO+/5HHV+S+H/wo9/3gR/k3//w3ctm8S085/tDhI3n62dVJkjtvuXHYz02S/d0H8vFPfjZHeo7mhmuvzrt/9q4h/5tPmzolvX3Hu5Q89OgTWXjZvLOq6Yt335OuDZvz9LOr09o6Jje87urceetNmT5tyinvO3bsWJJk3Hn4OxIAAAAAOLcEAOAC8d0fPpSvf/O+JEldXV3++KP/adR2XZ+p793/UO751vfT2NSYf/rhD6Rj4fwh3V9fX5/3vPNt+ZNPfCblcjl3f+NbJy0+nws9PUfzV3/zt5V22z/71jeN6uL/kZ6jWfH0yiTJsiuXvOrif5Lc94Mf5dlVa4c8/+/8s18f8gLUoz95OoUXgxi337z8pGu//z8+nsbGhlx/zdV50x03D7mes7Fl6/b8+CcrkiRjx7bmnT/zptPeUywWz3oH97r1m1LOmbdf37e/u3K86fktOXj4zFtwNzc1ZcH8uUOq77prrsym57fk/ocezfqNz+crX78373/PO8/o3v3dB/LgI48nSca0tOT9v/BzQ3r2S1Y8szJ79u4f1r1natbM6bn6isWj+oxHHnuy8oqJt7/lDSP+O/WFbdsrv1uuf91VZ3TPmq4NSZLGhoYsunzBiNbz4xcX20fSz971hrz9rjcM695isZgfP378Z3zWjGmnXfwfaTt27UmpdPzr85MVz+bZVWvzcz/z5txxy41n/N+BxZ0L09TYmMFCIc+uWptSqXRW30cffN+788jjK/LwY0/myJGePPjI43nwkcdz7bIr8yvv/wev2aHl2LHj38fjxg0tAAYAAAAA1B4BALhAtLdNqBy3TRhf9cX/43VMSLFUSqGvP3/6F3+dX//l9w15wW5x58IsmD83m57fkvUbn8+m57cMeUF0uMrlcv76i1/NocNHKp89+pMVueqKRUPaUT0UDzz8WArFYurq6vKOt75xVJ4xFOVyubIg3N42IcuuXFK5dujwkezYuTtJ0rlwZBciT6evvz+f/vzdlcXTvr7+/N5//dgp7ymnnIaGhrz3XW8/q53cf/oXfz3kd7a/5G++8ndDGj9l8iX5z7/7r4f8nJ9/51uz+YWteWHr9jz0459kccfCvO7qpae97ytfv7fSpeDd77grk4bZ9vylxdLRdNP114xqAKDn6LF867sPJEnGtrZmbOuYrF2/8VXHDgwMZu6cWUPeHf7Sbv76+vq87qrTf31KpVJWr12fJFnUsSAtLc1Det5QtLQ0py7DCzuVyuUMDAycdQ2r1q6vdDq59fU3nPV8Q3XV0kX5vX/3L/K1v/9OHv3JU+nvH8hXvn5vVq7uyoc/+N40NjRkYHDwtPMsvGxe1q7fmL6+/nRt2JzZs2accnxTU2PGtLS86rXJky7JO9/2prz9LXfm6efW5L4fPJhtO3alUCikqbExR4/1vurvp54XOwA0NzXlSM/RV1xPkvr6uiF3iAEAAAAALjwCAOdYd/eBPLniqcr58huuS3v78BZgDh8+nJWrVufo0eP/0/fOO28/o3d3v6RcLuf7P7i/ssB2Jm695fVp1V62Kk5ceLpk4vnxzu7l1y1LQ0N9Pv35u1MoFPIXn/li/tGv/OJJi8hn4g233ZRNz29Jkjz86BPnLADwre89kFUvLrbV1dWlXC5n5ZqufObzd+fDH/iFEQ9ZHD12LD988MdJkmuXXXFGbcqnTZmcf/Vbp+6K8NSzq/KVr987rJpWrumq7GC/45YbT9o9v37j85XjyxecXVvrofrC334ju/fuq5yXSqX09fef0b133/PtXH3l4tdcYDudGdOnpjyEAMDhI0dz9MXFtymTJ6Wp8czDIxOH+fu/saEhH3jfu/OHH/uzlEqlfPGr92RJ58KMGfPaf+cnn34uz61elyS5cklnbr3p+mE9u1b83b3fzbHe3iTHX+Pwvz/52VOOb2xoyG986Jdy5dJFZ/yMVWu6kiRLF12eCRPGn3b82q6N6Xnxv+lDec5w/NF/+Q/D/h23v/tAfu/3Tx3IORMPPnw8fNTc3JQbrh3Z1y+cqfHjxuaXf/Hnc+N11+TTn//bHDp8JGu6NuRr93w7EyaMH3LHhD/5xGdOO+bm5dflA+971ynHNDQ05Lprrsy1y67IU8+uypxZx1+P87/+7FPZ/mIw69WsXb8x//4jH33Va9OmTs5/+nf/8rT1AQAAAAAXNgGAc6hQKGTN2pHZMblz566sXrN22LtUk+Otd4ey+E91tbe/3AFguIuGo+G6a65KfX1D/vKzX0qpVMqnPveV/Mt/+qtZMH9u1nZtrCzsn8pLO+IvnT0zEye25977fnjae2ZMn5Zrl10x7Lrv/e79+eZ3fpAkmTBhfH7r1z+Yz37xq9mxa09WPLMyLc1N+cD73j2irwP43v0Pp6+/P3V1dXn7W86sZXZDQ/1J3R9ezdhhhnLK5XLlXfKtY8a8Ygfuug3Hdy/X1dWds1BGkvzokcfzxFPPJUkmT5qYX/oH70x9w6kXKu+97/5s3PxCkuRdb3/LsBf/k+Q//l//bEjj7/n29/Pt7x3fSf6bv/aBzJg+ddjPHorZM6fnrjfelm9/74FMnzolh3t6XjMA0HP0WL78tW8mSSaMH5cP/uLPn9X39q/98vtG/b8f9aP4Ko6uDZsrrefPVKlczqWv8cqOJOnt68tzq9ZVzgcLg9m2Y1eS423ZH3/ymVfcs6hjwUk/34+veHnM7j37ct8PT7/4PKal5RWv7rgQbHp+S+V1B7fedEPGto6paj2dl1+W//A7v5VPfvZL6T5wMO9+x1vz/QcePmfPf/zJZ9Lb15drrlp60vdEXV1drl125TmrAwAAAAC48AkAnEMbNmzMsWO9ZzVHsVjMho2bsmXL1rOuZ2Dg5La2Z/vebEbXxLYTOwCcPwGAJHnd1Uvz3ne/PV/+2jdTKBTyyb/+Un73d34r6zZsGtLuyS3bdmTLth1nNPalnZHD8Y17v5fv/ODBJMfbYP/Wr38wc+fMym//4w/l//vTT2Z/94H8+CdPpbm5Ob/wrp8ZkU4ABw8dzv0PPZokueHaq8/ZIvGpPPHUc5UW/2++85aMG3tykOCl9uWzZkx7xbXR8szKNfnyi90Mmpub808+/IHMPk2nhOe3bKsETS6dPTOvv+F1o17nufY//vdfZvuLi8knKpWPh8C27diZj37sz1/z/kKxmEKhkCQ5eqw3H/mD//mKMddfe3Xe/553nlE9Q+k2c745fKQnn/qbr1QCDL/7O7+VKZMuedWxBw8dzh987M9SKBResTD70w4dOpLPfOHuV7322BNP57Ennn7F5//8n3yoMmd//0CeWbmmcu2l3xenM2li+7ACAEd6jg77d9trtZgfim999/4kxzsrvPGOm896vpEwfvy4/PZv/EoOHjqS8eNebpU/pqXltJ1YzsQf/fEnUnjxFRwn6j5wMF+4+54MDBx/BcHCy+bl5uXX5tplV6Spqemkse//hZ9L/0+9fmHF06vy8GNPJEk+8N53ZdKkiSddv/sb3678rgcA+P/Zu++4tu5zf+AfTcTeYMDsYcBg442x8d5OvJ3YmY6ze9ukaXp7O27TX2/bdKRp2oymGc6yneG998QL7wVmGLP3nhISGr8/BCfIgJBYtsnn/Zd0zvec85UQR7x4nu/zEBERERHR4Pfg/gf/AVNRWYmCwiIAgJeXJ8rLK6w+R3NzM1JvpaG6ugYA4OLiDI1G0+OkAp1OKzz28RmCmOHd9yem/rfhu+0QicWIiYrAsLAQYUWvjY0cCoUNmpvVcHE2DUKVV1QhLTMLqWmZmBQ/1uoS/H1h6qQJKCgsxvnL1zE5fuyABYytYTAYsG33QRxLOgvA2Jf7uScfRUDrql5nJ0e88uLT+Pv7n6KhoREnz5xHVU0tnnl8Ra9WlAPAjr2HoNG0wMZGjsULZpvsKymrgK3Cxur+4r2h1emw+8BRAIC9nR2mJcab7K+qrkVV671GpWrGZxs2mexvn6ixcdMOSM2UvZ87c2q3QXzAWC593fpN0Ov1EIlEeHr1sm6P0+v1+HbrbhgMBkhay+L3RdWGW+m3uy0J35k/vPWexWOffHQp4i1MVtBoNGZbIKjVlvdj76qdgtaCXuf3i9q6eqGdQXttgdGyikqcOnfRZN/wyHA4OTnii41b0NDadx4AMrOyMXRK5wHoQztOCYkTs6ZN6qvpd+rcxSsdEvMsIe1hMsav/++tHh3XF7Jz83Erw7j6f+L40XB1dkLyxasWtTLRtQugf/DJeouTF9/+028sGieVSuHhbpoQIhaL4e/nY9Hx5nR1b7KztcXyRfNw/tI1ZOfmIys7F1nZudi25yBWLJqPcaNHCGODA/07HH/42GkAxu+wieNHd7jO/fh9TERERERERERERP2HCQADQKPRICPD2Gfcx2cIbG1trU4AqKmpRUrqLTQ3NwMA3N3cEBs7HJcuW1fC2HRe3wcabHoZ3KS+czs7D5VV1Th7/jLEYjHCQ4IwPCoC0ZHhcHV2QklzBRQ2NkhJy0RaRhZS0jJQWVUjHB8aHHhPEgAAYOWShZgUP1YIUCxeMLtDsNtSBoMBv//rv1BRWQ1HB3v88bc/h7QXVSo0LS34butuJLeuwhWLxXjy0aWIjgw3Gefh7oafPP8U/vnh51CqVEi5lYG/v/cJXl77ONy7WCXcnezcfFy8cgMAsHDODJNAv16vxxcbN6OiqhqLF8zG1EkTevgKrXMs6awQ4J85NaFDgkNb+X8AqK6tQ/W1ui7P1X7VcmcSJowBYD6Qn3E7Gx9/+a0Q3Hts5WLExXaflLT7wFEUFJUAMH7e+iJIBwAiscjiVe46vV5oxyKVSCxOQOjJ6msPdzesXDzf7JiDx04JFRFefOYxs6X01ZqWDskdD4KKyip8u3V3l/vzC4qRX2BaTeTltY9j2+6DwmdbKpVCq9Vi94FjiBsxHG53VVbJzS8UyvaPHRWLQH8/i+f30trHMSw8pNN9pWUV+Os/Tas1aHU6HDluDOI6OtjjD7/5WYeV33dbt34TrlxPgUzWsz/lbGzkEKFnyTJ6gwEajeVJJ+0ZDAZs33NIeD5+zEjjObtITDGnRatFi1bb/cD7nEJhg8nxYzE5fizKK6uQdOYCzl64jMbGJri6mE8Ma2xSIvNODgBgxPDIPm1bQ0RERERERERERA8mJgAMgKw72VCpjKv0AwMDUFLSsYyzOVqtFjdTUqFu/ce4r68PhkVEQCqVQKfT93he2nb/NJfL5T0+D/UdrU6H6ppa4bler0dGVjYysrKxbfcBYfs3ZgJfFVXV/TpHc2xs5J2uTuyJzKwcVFQaX0vC+DG9Cv4XFJXg842bUVZeCQCQy2V49slHERMV0el4P98heP3Hz+Hf69ajqroWJaXl+Os/P8KzTz7SZVCvK1qtFt9s2WU8r483pk02DfAfP3VO6BM+UGXVS8oqsPfAMeF5Zy0l2vqji0Qi2HRyf9C0tAhB7+4CiWKR+UD36eRL2LR9rxD8f2TpQiSMH93t60hJyxRaTERGhGLGlIndHmOpqIgw/PMvb1g0dveBozhw5CQAYzn5/mzvYKuwQUz0MLNjzl26KjyOiYowm2jQ3GxdwPVBtm3PQeEeMMTLE88/vQp/f/8TqFTN+Hbrbry89nEheNrS0iJUlrCxkWPR/FlWXUsmk0LeRQBfLpNBBMDQbtulKzdQU1cPAJgxJaHb4D9g/B0Eev79/fc//LrHLQCqqmvwxpvv9OjY08mXhAQV4Pv2Q54e7ogfG9flcTq9XkikutuYuFjIzFQh6YrBYDAbMFfY2MDZyREKhQ2Szl7Azr2Hrb5Gm9//6qdwcnKEVquFra2iy3FeHu5YsXg+5s2cgpS0TPj5DIFer+/yZ3X52k3hXhzbzb3hbg0NjZDJZb2ucENERERERERERET3FyYA9LPy8goUFRlXIYaEBMPRwQFFnfR/NUcqlSI6OhJXr15HeFgoAgMDhH9Ya3ux8k3TrtxzZwE+GnjaFi1mTk1AY5MSTU1KNDYp0djUhMYmJVSqZqFnNWD8XDjY28HB3g729nawt7ODo4O9UM7+fpKdm4/dB45ixeIFFpWCB4xBojYJE7oPBnfGYDDgxKlkbN97SAguO9jb4eVnn0BQwFCT+WlaWiCXyRASFAAAGOLtiZ//5AV8+NkG5BcUo0mpxLsffYEpCeOxeOFsiwMmu/YfQXFpOSQSCZ5evdykXHV1TS32HDwOwBioNa6UN9Wi1Xbbu7mmruvV+XfT6/XY8N22TvtQtykqLhUCdHOmJ2LRgo7Bz03b9+LkmfMAgD/85vUelZhu0Wrx3bY9QrIBYEw42LXvCHbtO9Lt8e3vYVnZefj5/77Z5djFC2f3qE863Z9CgwPx9h9NS7rfTMvAFxu3AABGjxyOx1cuAQDo9Dp88uV3uN26StrezngP8HB3xfJF87Hhu+1ITcvErv1HhIolGzfvFCpLPL5ySY+rf1hC09KCfYdPADAGnBMnjrPouBZNWwJA98kC94u6+oYug+jhoUEIDw3q8tgbqeldJgCMjInEmLhYq+Zy+PhpXL52E4sXzkZURFinY+bOnIK5M6cAMCZrWVuhoD0DgP/79WsWj3dwsEdcbDT+9Z/P4evjjSc6aW/S0NiEPa3JXN5eHhgWEWrVnAqKSrBx805MT5yIGVMm9jghhIiIiIiIiIiIiO4vTADoR2q1GukZmQAAJycnBAYYA4s6vfWr9j3c3REfPx6ODg4m23VWJhO019KufC8rANwfFAobLFk4p8P25mY1/vzOh6hst7r/obkzMHv65IGcXo+UlFXgX//5AlqtFn/753+weOFsTE+caHbVZUNDo1BWflh4CDzc3ay+bnVNLb7ZskvoMw0AXp7ueHntE/DydDcZ++U3W1FZVQMvT3f87n9eFbY7OTrgtR89i883bMaN1HQAQNLZC0hJy8TjKxcjsptgS/LFqzh68iwAIGH8aDSr1bh09SZq6+pRU1uHzKxsaDQa2NnZ4rGVizs9R2VVDf709gdWv/6uHD5xGrn5RWbHnDhtDOyLRCJMiu+YlNAX9Ho93v/4K2Rl5wIwVj94avUyfL5xS4+CbFqt1mxClCX3yhup6SZJNpYqbdfSJf32HZRVVFp9DmcnR5OkFDJPLBZDoTBNwsnO+X5VuU6nN9k/c2oC8guLIJVI8epLa4Qe7xPHjcLN1HRcT0nDoWOn4O3pgcYmpRBonjElAWPiYvr1tew5cExoxzEtMd7s6vD2hAoAFlQL6IxWp4O4B3+PAIBWa/3fHgaDAd9t2wNVaysja51svS85OtijobEJgLGSQ2l5BZLOXLAqASA7Nx879x2GwWDA+x9/hWFhIViycDYCzLR5GBkTBZ8hXj2aOwCLf65tWlpa8J/PNyK/sBgFRSWYmjC+w/y27twPZWuFqUeWLLS6Uk6LVovaunps33OwTyuoEBERERERERER0b3FBIB+lJF5WyjbHxVpLNkPQCjVaq27g/+9ORdg/OdyG9kDtILwh+ibrbtQWVUNuVyGyPBQ3EhNx679RxAWEthnJff7i4+3J9Y+sRIbvtsBpUqFrbsOIOVWJp5ctbTT0vMAcOb8ZSFgOzl+rFXXq29oxKFjp3Dq7AWTVe4J48dg5ZL5Vie7yGUyvLBmNY6fOoedew8LbRre+/hLjBs1Ag/Pn9np6uCcvAKs/2678PzUuYs4de5ip9dYtexhODs5WjWvnki5lYHd+48CMAb3Owt2F5WU4dxF44r86GFh/bbyWSwW45ElC/DeJ19BIhbjxWceQ8BQX3zeuoLb388HEy1oA2BOYVEpzl64bPH4z9Zv6nU/8c079vXouDFxMVj7xCPdjissLsXrv/mT2THtKyP8/Ldvmm3PYIDlCQ9qtaZHCRJ9QSIRd1sWPyUtU3h8PSUNl6+lCMH72OhheOXFNZDJZB2qkDy1ehnefu8TFJeW4+stu4Tv1dDgQCxZOLuPX4mp0rIKHEsyJgm5u7liXutqc0toWpP4eloB4LVf/aFHx/XU4eOnhcQuqURitgrJ3UrKKpB++w4AYPLEcdjfWjEhMWEcNu/Yh6ycPBSVlFlcYSY40B9PProUO/YeQn1DIzKysvG3dz/GtMnxWDR/ZqffE26uLnBzdbF4zr2h0+mwbv0m3L6TCwBYuWRBh+D/oeOncPGqMVElLja624Q0ALj7172tBYiNjZyr/4mIiIiIiIiIiAYRJgD0k5KSUpSVlQMAwkJD4OTkJOzrTdC+vd4GYtTtKgDUVNegsqISarUaWp0OErEEchs5HB0d4ObqCukA9Sanjs5duIJLV28CAOLHjsK0yfG4eSsDer0en23YjF/97GXY2Vpffr238gqKuizH7OzkaFKdYGRMFPyH+uLLjVuQlZOHjKxsvPn2v/HkqqUYMTzS5NjqmlocPJYEwBhwuXt/V5QqFY6ePItjSeeOwulLAAAgAElEQVSEwBgA2NnZ4vGVixEXG23tSxSIRCLMmJKAyPBQfP71FqEk/8WrN3DlRioSJ47DvJlT4Oj4fZJOwFBf2NnZQqlUCdukUinc3VwgFotRUmq8P4weGWN2hbGbqwueWrXU7PzSMu4I71lXikrK8NnGzcJ9Y/7sadh36HiHcZt37BXGzJs11ew5e8vPdwheeXEN7O1sOyRAeHm6Y+qkCb06//WUNKsSALy9PHpVVaU3XJyduh8E433fmgoJarWm+0EWevv9T1DUTTuK/tJdgkRpWQWqa2pNtn317Ta4u7kIlRW6qrCgsLHBS2sfx5tv/1t4b21tFXj2yUdMWnb0hyFennhq1TJ8t30PHl32EGQyGQwGA4pLyuDnO8TssW2JHjby+79/+63029i139jWQy6XY/6sqdi5r/NWAJ05dfYCACAkKAD+fj7Cdj8fb4QEBSA7Nx+nzl7AquUPW3Q+kUiECWPjEBcbjYPHknDkxBnodDocP3UOaRlZ+K/nn+wQ7G+rOtBTEonYou9qvV6PL7/Zhpu3MgAA0xMnmtwL9Xo9Nu3YJ7wnvkO8sGrZQ2bPKZUY/4ZrUqqg1+uFYH9egbEaTGcJpkRERERERERERPTgYlS3H6hUKmRk3gYAuLg4IzAwwGT/PVpA2YG6XRCpbb6dkclkCAoMQECAP1eIDbCy8kpsareieOqkCfD28sCoEdG4cj0V1TW12PDdDrywZvU9mdvxU+c63efn492hPYGbizNeffkZHDiahH2HjkOpUuGjz7/GrGmT8PD8WULp4u+27YGmtbf1o0sXWpx8sm79JqRn3jHZFhcbjZVLFlgcXO2Or483fvHqi9h/+ASOnjgDrU4HnU6HE6eTcfNWOn7z+o9hY2NcOSqRSDBr2iRIxGIM9fOBl6cHXJ2doNVq8da7HwMwJkqsWm4+cGMjlyE8NNjsmJra+m7nvv7bbUIweObUSRgzMqZDAoBer8fI4VEoLCpFeGgQQoICOjtVn/LtRUntvvarn/3oXk+hW95eHnjm8ZVmx2zffRAZWdkAgF+8+qLZ+7Zao8E7H6zr0zneC5evp5g8l0gk0Gq1+PiLb/CLV180ew/QarU4cuKMSWKFStWMXfsOY8WSBbBVWFe63SoiYPyYkYiKCIWjowNKyyqwcfNO5OYX4rUfrTX7O9jc+vvcds+x1r/+8kaPv9Mrq2vw+7/8y+LxR06eERKLVi17qEP7BnPq6htw7uJVAOg0KShx4jhk5+Yj+eJVzJs11ar7vY2NHIvmz8KYuFh89c1WFBaXQiaTwtHB3mScVqvFL//fXy0+b2dCggLw+o+fMztGp9Phi6+34krr53lkTBSWL5on7M/MysHuA0eRnWtsdxEw1Bc/fuEp2NvZmT1vWzJDk1KJX/3+b0JyWmOTEgBMkiqIiIiIiIiIiIjowccEgD5mMBiQmZmFlpYWiMViREYOu2+D5k6Ojqitret2XEtLC25n3UFNTS1iY2OEVgbUv1q0Wny2YZOwmj0qIgxDvD0BAPNmTsWV66kAjKucT5453+vV0taSSMRQ2JgGcdQa8yXCxWIxFsyehtCgAHy2cTMaG5tw5MQZ3MnJx9onViKvoFgo4x03Ihox0cMsns/aJx7BW+9+hIrKagT6+2H5onkIDQ7s2YszQyaVYtH8WUgYPwbbdh/A9ZQ0SKVSvLjmsQ6BuLkzOpbz/nbbHhSVlEEmleKltY93G7jpKzOnTcIXG7cgLCQIixfMQkVldYcxYrEY06dMxKiRw3vU43ug5BcU4R+tQes5MxKxYM70frlOY2MTyioq++Xc/n4+VrejAIwtKboL1tnafR+w9vfzMfsd1FYC3BKT4seivqHR7JgLl68LK/FnTEnotDy9StWMk2eM/dyDAvwQGRHW7bXNJYoYDAYkXzC2rRCLxcZElphIVFbVIL+wGB9/8Q1e+9HaTlsIVFZVY92GTcgvKAbQGig1GFBdW4fkS9eQfjsbT65aishwC8qrt3MzNaPT3zEAqK9v6NB4oa16iFwuQ0lpOfR6PT7fsBm//NmPYG/X+apxdS8TAMRicY//PpFYedzyh+fhz+98iPFjRmLC2DihFYAl9hw4Bo1GA0cHe8TFRiE13TRhcdSIaGzeuQ9KpQp7DhzFE4+ar5jSGT8fb/z8lRewe/8RTJ00wWy7CalEYlVVpO6+F9u0tLTg0/WbkNK68j88NBjPPL4CIpEIZRWV+HrTTmTl5AnjY6OHYc1jKyxKppgzIxE3UtPQ0NiExialEPgHAAd7OyyYPc3i10NERERERERERET3PyYA9LHikhKUV1QAAMLDQu/rsqrDhkXAy8sLer0etra2kMllkEok0Ov1aGlpQUNDAwoKi1BVZQxiVFZVIfP2bURHWVaSnXpn38HjKCwuFZ5PT4wXHvv5DkFs9DChRPC2XQcQGR4Kby+PAZvfmLhYjImLNdn2zw8/E3oWmzMsPAS/eu1lrFu/Cdm5+cjJK8Cf//EhJBJjUElhY4OVixdYNR97O1useWwFKqqqMTYuFiJR133P+4KHuyteWLMat+/koLqmrtty3QBw8sx5JLeuZH1q9TIEDPXt1zm2NzYuFpeu3MBjKxd3W9a8ryom9Jf6hka0aLUAAIe7Vur2pYysbHy2YXO/nPuXr738wK26tSTJ6OoNY2KSVCrFsofndvp7WFVdIyQAhIUE4eF5M3s1r4ysbFTX1iE40B/VNbWoq2+ARCLB06uX48/vfIi8giJ8vWUXnl69XDhGq9Ph6Mkz2HfoBLStn6WoiDCseXwFAODzDZuRfvsOauvq8d5HX2JKwnjMmzW1Q6uKrpw4ndyj1+Lm6oLVKxbhsw2bUF1bhw3fbccLa1Z3eB8NBgNahBYAPUsAGEh+vkOweMFsTEkYb9VxxSVlOHfRmNwxe3pip4F3mUyG2dMmY+e+w0i+dA3TEydadD/ucB6pFMsentftuCUPzcH0xIkWn/ft9z8VVuybU1BUgozWKjYB/r54ae1jQiKCp7sbfH28kZWTB58hXlj+8DxEDTMmzmzbfQDHTxk/b2++8d8dqhcAxu+rP/zmZ7iTm4+GhiYYDAZIpRJ4uLthiJdHj5KRiIiIiIiIiIiI6P7FBIA+1NSkRGZrKX13dzcMHep3j2fUPde7etwCxtLJEokECoUCHh4euJOdg5ycXABAUVExfH184OLiPMAz/eGZMyMRYokYx5LOwcXJEdGR4Sb7586cgpu3MuDl6Y7FC2YPaPC/L7g4O+GnLz+DnfuO4OjJM1CqVMK+h+fP7FEQOihgaJd9vvtLd+X526RlZmHLzv0AgAVzpmP0yJj+nFYHIpEILz7zWLcrftVqC1ertgZNAeMq8u5WBItEoh6vVL5b+1XoTo73b5LVD43BYEBVVQ0AwMvDrd+TcNqcPX8ZAJAwfjT2HDwmbB/i7YmH5s7Ajr2HkJNXgJaWFkilUly5noq9h46hrNxY3UEkEmHerKlYMHua8PvxX88/iT0Hj+HQsVMwGAxIOnsBp5MvYdSIaEydNKHb6iIyqbTLRBu9QS+0OenMmLgY3ErPRPKla7iRmo4Tp5IxfYppwLn9qvKe/l79/LdvQoSe/Yz0PehldHdbGEts230QBoMBLs5OmJIwrstx0yZPwLGks2hobMK2PQfxkxeetvpa91pIUAB+/OLT2LHnEF5a+7hJhR2xWIxHlz2EmKgIRA0LM7mP6/UG6PX6bs8vk8msrmRBREREREREREREDyYmAPQRvV6PjMxMaLU6SKUSDIuIuG9L/1tDJBIhNCQY1dU1qKsztgsor6hgAsAAsLVV4OF5MzF10gRUVFZ1CKYFB/rjxWcew/DI8G5XdN+vJBIJFs6ZjrTMLBSXlAnbr1xPxeiRMYMmuJubX4hPvvwWer0ecSOiTcotNymVKC4pQ1FJGfz9fPqlbUEbS+5Jb737EUrKKqw67xtv/qPbMX4+3vj16/9l1Xm7UtVaYh6AxSuye+tHzz2J8NCgXp1j597DPV4Z3qawuBSv/+ZPZsdoWr4PLncX5DV0KEbfczV19dDqjK0jvAYoIam8sgpXrqdCLpdh9MgYkwQAAJgxZSKuXE/B8kXzcOlaCo4cP43S8u8/3wH+vli9fFGHahxisdjYG35kDDbv3Ifbd3Kh1+tx+VoKLl9Lga+PN5Y9PBdRXbQveOnZx7sMtpaWVeCPb71n9p1fuXQhsnLyUVlVjR17DyEyIhQ+7dogqFTNwmNbhaKzU3SrrYXA/ep6ShrSMrMAAA/NnWG2LL9cLse8WVOxecc+pGfewdUbtzBqRHSPrqtWayCXywYsgaW9sOBA/Pwnz3e5f3hUxADOhoiIiIiIiIiIiB5UTADoI+1L5YeHh8HefmD6eg8EkUgEPz8fIQGguqoaCO/mIOozTo4OXQbCRwx/sNsxNDQ04t/rNgjB/7b+3Xdy8vCXdz7EC2tWD/iK/r5WUFSC9z/+Cmq1sYf1iOhI7Dt0HAVFJSgoKkFtXb0w9rGVi/o1AWCwaPu8iEQik6Bof5LLpJB3EYA8eCwJaRnGQOULa1bDzrbznu1Sae8TdQwGA5rVaovHD2SQt7q6Rnjs7TEwCQCHjibBYDBg9MiYTnuhSyQSRISF4INPN0CjMX0vggP9MSVhPCoqq1BRWdXlNSbHj4OtQoEbqenCNqVSBd8h3n33Qu6isLHB06uX4R8frINWp8OX32zFf7/ygpDspWr+/jNgSQ/4zrz5xn/3OFGxqroGb737cY+OtURtXT02btoJAPD28sCEsXHdHjMpfiwOHz+N2rp6fL15JwID/ODWg2TFXfuPoLa+Hk8+utRkFX6bnXsPY9+hExafz5LfV51Oh6SzF6yZpqCgqER4fPrcxR59Hrw83JlcQERERERERERENIgwAaAPNDQ2IivL2LfVy9MTfr4D19d7oNjbfd9TtkmpvIczocHiTk4evvxmK6qqjau5Q4MDsfaJldi0fS+up6Shrr4B73ywDquWP4yJ40ff49n2zMUrN7Bp+16omo2rdRsam/DVt9s6jJPLZfD384Wnu3uHfaXlld2u+G5bdd0Xxo+JMymx35WMrGwhED954jjIOunN3V5frtQvLC4FYOyL3VmAbqCVl1fi9p1cAIBO130p7p5YsWQBmtut+jbn4LFTQs/xF595DGILVzI796DtRnvFpeXCY08Pt16dyxJV1bU4f/k6AGP5/67Ej43DiVPnAADubq5Q2MhRVFKGnLwC5OQVWHXNKQnjUVffgEkTxvR79YmQoAAkThyHpLMXUFBUghOnz2Pm1AQAgKpdy5SeVgBwdLDvcQLA3ckUfclgMOCrb7YJf2usWDTfonnKpFIsXzQP69ZvglKlwpcbt+DVl5+x6jXWNzTidPIlaLVaSMQSrH1iZYcxLVqtSQuUvqDT67F11wGL2q+Yc3cFDEuNiYthAgAREREREREREdEgwgSAPlBSUir0X62uqcbJpNNmx2vb/eP4ypVrELX75/SUxEn3ZesAieT7ORkMBhgMhntSHpcefC0tLdh36AQOnzgtBDuGR4bjuadXQS6T4fmnV2HX/iM4dOwUtDodNmzagfzCYqxYPP+BanWg0+mwddd+KNsF6gBjlQPfIV4IDvRHgL8fAv394OPt2eXvvbUrvntrzoxEi8Zt2r5XSABYNH8W7O06X/Xe18oqKlHd2gIgwH/wJVt1JcyKyhDnLl0VHsdEDVw7mrYqCAAQEhzQ79fbums/9Ho9hnh5IiSo6+v5DPHCo8segqOjA4ZHhmPb7oMoKimDSCSCjVze7XX0Bj00GmNbhbCQQIyJi+2z19CdRQtm4cqNVDQ2NuHAkZNITBgHuUyGxqbvE/HsBuh3b6AcOnYKGVnZAIBJE8YiOtLykkOjR8bg6o1UXLmeiqycPBw4chIL5ky3+PhjSWeFv9HGjx7R6ZglC+dg6uQJFp/z3f98YVGiicJGDkvj/wYYzFb3kEqlkFrxfdldAhcRERERERERERE9WPgfvz7QfsWWVqsDYPlqXK1OB7Rbvdvb1V/9pf2qVltbBYP/ZDW9Xo/zl69jz4GjQtl7kUiEebOmYsHsaUKQUiQSYfGC2fD29MDXW3YJpZHLK6rw3FOPwta2Z6tdB5pEIsG40SNxOvkSIkKDEBYShOAgfwQM9e2ylHxnHB3sMXfmFLNj8vKLcPHqjd5O+YFw9Xqq8HhkTM96fPe19vfH+zGBayCo1RohaOvh7gpvz/5tAXDlegqup6QBABbMmdbtd1LChDEdtnl6uOF3//Nqt9cqLavAH956r2cT7SVbhQIPz52Bi1duYNWKRcK9o6FdlQ6HTloOVdfU4kJrdYT2snPyhccHjyb1+Lu8fWLT7excHDhy0mS/vb0dEieOs/q8V2+kCqvY3d1csWzRXKvP8ejSh5B5JxeNjU3Yd/gEXF2cLaoi06RU4uQZYxl+H2/PLlfES6USq+7hlrzHcpkMf//jbyw+5469h3D4uDHZ1FahEKrMiEQiGAwGeLq74icvrun3KhVERERERERERER0f2ICAFmkSdkkPHZw6LwfPVFnmpvVuHjlOo6fSkZZRaWw3cXZCU+vXo6IsOBOj4sfNwoeHm746LOvoVSpkH77Dv7+3if4rxee6lFf53thzoxELJo/EzIrgkV3c7C3w/TEiWbHXLh8/QeRANDS0oKzF64AMPZIj42+P0pWV7VWJBCLxbDtYT/2u7VotaiprevRserm71cGl1dUQSyxPilBLpPBxYqWAOcvXxNWJMfFDrf6el3JKyhCYXEJJowdJaxo1uv12LJzPwBjoHb0yJg+u979aFL8WEyKH2sSSG7fpsO+kwSAquoa7D5w1Ox5e1ou/m6ZWTnIzMox2ebj7Wl1AsDVG6n4bMNm6PV6iEQirFg836SqRJvc/MLvr30n16QaQpuVixfg842bYTAYsHHzThhgvk0EAJw4lSy0Npg9PfG+THQ0GAzYsnM/TpxOBgBMHDcKNjY2wvNHly7Eph37UFJWgX98sA6vvrQGbq4u93LKREREREREREREdA8wAaAPDIsIx7AIy0vUXrt+ExUVFQCA8ePGwNn5/g9mlpaWCY/d3Pq/tzMNDucvXcO32/aY9IuWSaWYPX0yZk+fDHk35bfDggPx+o+fwwefrkd1TS1Kyyvw9nuf4H9++hKcHO//RBRHB/t7PYVB5dCxU6iqrgFgTBBpS6zQaDTdfpb6S01tnRCQDAoY2mcVAErLKvCXdz7s9Xl6unI9elgY/uv5pywa26LV4ljSWQDGFchTEqxf+d2VuvoGfL15F3buPYJfvPoiPNxdIRaLkTBhDPYfPoGVSxbel4HavtTZ62tLOnGwt+u01LtILIbCpm+SUXpCJrcu6al98B8Alj08Fx5urvjT2x+YPW7foeOdbn/7j7/BvFlTceDISRgMBny9eSdkUinGdVHWX9XcjOOnjEF0F2cnjBnVdZuHxialcB+yREtLi8VjuzvPt1t3I/nSNQDAyJgoPLZyMbbtPiiMiRsxHAqFAl9+sxWVVdV4+/1P8eKa1Qjw9+uTORAREREREREREdGDgQkAP1BKpQpyuRxSafc9YguLilDd+s9uqVQCr34u7UyDR0z0MNjtPwKNRgOZVIr4caMwZ0aiVSsSh3h74vUfP4f3PvoSpeUVSJgw5oEI/luisqoG2bn5yM7NR1ZOHh5bschsL/MfgumJ8dDrDRjqO8Rke0ZWNg4eOwUAcHCwx8K5xr7e127ewhcbtyBuRDRmJE40CXR5uLsJ1RPuPl9f0Ov12LR9rxC0nDhuFDQtLSgrr8RQ3yGDPjDdZv/hE6iorAYAjBoRDXc31z47d1tVgSalEu3fzjkzEqHVajEsPKTPrvUgqWx9vz3cO3+vw4ID8fafzJeUV6masffQcUwYGwd/P59ur1lSWo5d+49g5tQEhIUEWT1nc+QyGSRiMfR6PeZMT8SMKQkoLinr/kAzHp43E3X1DTh34Qq8PN0RFhLY5djjSeeEMvqzpk3qNKmizYEjJzu0POhvpWUVWLdhk/CeREWE4ZknVnaacDRu9AioNRp8u3U3auvq8dZ7n+ChuTMwe/rkH2yLEiIiIiIiIiIioh8aJgD8QNXV1SEnNxdDhw6Fu5sb7OxsOwSrlEoVioqLkZubJ2wLDQmBzT1cVUj3r9t3coUgYG1dA7Jy8hAWHIjHVy5GfmExJk8c12mvaku4ODvhtR+tRUpaJuLHjerLaQ8YrU6HwqIS5OYX4k5OHm5n55n08QaA2rr6ezS7+8eyh+d12HYjNR3rvvoOOp0OgLG8t52tLZQqFXbuPYwWrRYXr9zAxSs3EBYShJlTExATFQE/H2+sWDy/x3MJDvTH2idWAgCGeHma7GtWq7Fx0w7cSE0HAAT4+yJ+3Chs33MIx5LOwtnJESNjojBieCQiwoIhkUgwZ0YipiSMB4Bue3N7uLnihTWrezTvw8dPIyevAADw3FOrIBZbn4hgafWKlLRMoRe5QmGD5Yt6/n53pn2veTtbW+GxXCbDkoVz+vRafelmaoZwP7xbfX0DDL04t8FgQGFJKQDAvYcVeXLyCvD5xi2oqq7ByTPnMXv6ZDw8b2aXSSvVNbV47+MvUVffgBup6QgNDsT82VMRFRHW49fR3vCoCKx5fAVS0jKxaMEsAIC3lwfefOO/O4xNTb+NjZt2AACeffJRhAZ3TJqysTFWBHlsxSLo9XosmD0drl20jmloaMSRk2cAAPZ2dkgYP6bTce0/fz2hsLG+SonBYMC5C1eweec+aDTGSgJTJ03A8kXzIDGTpDA5fixcnZ3w+ddboFI1Y9f+I7h5KwNPPLIEQ7w9uzyOiIiIiIiIiIiIBgcmAPyANTUpkZGRCQCQSqVwcLCHXCaHXq+HUqWEUqkyGe8/1A/+/kPvxVTpPlbf0Ihvt+7G9ZQ0YVuTUol3PliHsaNisfShuYiOtLxFRlccHOwfqOB/i1aLazdvoaDQGPTPKyiCVqvtME4ikSA40B/DwkMQyDLNJurqG7Dn4DGcu3AFBoMxZPrI0oUY21qe287WFr/9xU9w+XoKDh07heKSMmRl5yIrOxce7m6YMWUi4seOEoKB1nJzdelQrUKv1+N6Shq27NwvJGx4ebrjR88+CVVzM1LTM4W5J529gKSzF2BvZ4cxcTEYMyoWoUEBFlUGsLVVYGRMVI/mfeHKdeHxyJjIflv1eyv9Nj754huhAsKKRfPh4uzUp9eoqa0DYAzo2toq+vTc/amtJ3t/KCopQ3OzGgAsWrnfXmNjE3btP4qzFy4Lv1P29nYIDQ40+7l0dLDHzKmTcOhYEhqblLiTk4f3P/4KAf6+mD9rGmKjh/W64kVcbDTiYqOF5xKJpNNEGXu77wPxjg52ZpNpxGIxnlq1zOx1DxxNEipNzJkxudP7hVQqxVt/+FW3r6Ev5eYXYuuuA8jOzQdgfD8eXbYQkyaMtej44VER+OVPX8YnX36DwuJS5OQV4I9/fx/x40ZhwexpVlXiISIiIiIiIiIiogcLEwB+oBQKBeRyudCbXavVorY10HI3uVyOsLAQ+Pr4/GBKWpNlCopK8J/PNgqBUIlEgvCQIJSUlaOuvgGXrt7E9ZtpGBMXg/hxoxEY4Ae5zLre0J1pVqtR39AIZ0fHHgd3+53BgC+/3ioE2dqIRCL4D/VBZHgohoWFICQ4oE/ek8GksLgUl6/exMmz54XAnEwqxSPLHkLC+NEmY8ViMcaNGoGxcbG4lX4bh46dQlZOHiqrqrFp+17sPXgcs6ZPwpSE8b3qiV7f0IhLV2/gxOnzJv2/x46KxarlD8NWYQxOv/GLV1BcWo5rN2/h0tUbKCuvRJNSKSQDuLu5YvLEsZgwJq7bKgD3K61Wi32HT+DQsVPC53vh3BmYeNfPpiuydp93pbK5y3EGgwG30m8D6FiBoS/odDqUV1Z1O86afu9tRCKRRd+XIlj/nXom+ZLwOCjAsqQ8tVqDpLMXcPBYElSq79/zMXGxeGTpwm6rs8hkMsycmoDJ8WNx4kwyDh8/DZWqGfkFxfjo86/h7+eDJQ/NQWR4qNWv514qK69E0tkLAAAHezuhQse9VFlVgz0HjuLi1RvCNk8PNzy1apnVLWI83F3x8588jx17D+PkmfNCRYELl68jceI4TJ44Dj6sCEBERERERERERDToMAHgB8rV1QWTEuJRXV2DmtpaNDY2QqVqhkajgVQqhUKhgJOjA1xcXODu4Q6ZlB8VMnUjNR2fb9wiJJH4DvHC80+vhpenO7RaLY6fSsa+w8eh0bQg+dI1JF+6BrFYjCFeHnB1dYGjgz1sFQpIJBJIJMYVyga9ATq9HjqdDhpNC9QaDTQaDZrVGqhUKiiVKjQqldBoWiCXy/Dn3/3iXr4FZslkMnh7eqCsohJ+Pt4YFh6C8NBghAUHdrqSuay8EtdTv6+iUF5hDEw2NClx6Pgps9cqKCwWHl+4cgN3WleMjhweBW8vj754Of2qvqERBYXFyM4rwJXrKcJrbzNieCRWLF4Ad7euV6yKRCIMj4rA8KgIZOfm4+DRJKSkZaJJqcTOvYdx+NhpzJo+CdMTJ1qUcKHT6VBUXIq0zDu4kZqGvIJik2QOfz8fLJgzHSOGR3Y41neIF3yHeGHB7GnIzS/E+UvXcPHqDahUzaiqrsHOvYexe/9RjIiJxKypkxAc6G/Fu3Xv6PV6XLt5C/sOn0BJaTkA4/u+YPY0LJg9zeLzONjbQSQSwWAw4MKV69DrdbC3t0f7eLnBABQVl6Koted5eGhwX74UAEBVdS1+/5d/9fl5AeDHLzzVq2D41Ru3kJqeCYWNDeQymXCPLC2vxJXrKQAAJ0eHTsvft6dSNeN08iUcOXEajU1KYbuvjzceWbIQ4aFBVs3LxkaOuTOmYMrE8TiWdBZHk85CrdagoKgE7330JSIjQrH84Xnw9fG27gXfI1t27hMqWMyZMQVy+T1ZupYAACAASURBVPcJZbn5hUjPvNNv146MCBUSOPR6PW5lZOHU2QtITb8t3GvEYjHmzEjEvJlTTBJnrCGTybByyQIkjB+NTdv3IisnDzqdDidOJ+PE6WQEB/ojfmwcxo0eef8m1BEREREREREREZFVGNW9B+JGxvbJeUQiEWbPmtHj46VSKby8POHVDysrafArLikTgv/+fj545aU1Qo9kqVSK2dMnY0xcDPYdPoFLV26gRauFXq9HcWk5iluDh70RFRHWqxXdA+Hp1cvg7u4Kezvzq2sBoLi0DDv3Hu6wvbGxqdPtXTl97qLw2NPd7b5OAEg6ewEHjpxEXX1Dh31SqRQjY6IwOX4sIsKsC/6GBAXg5WefQHZuPnbtP4Lbd3KhVKmwa98RnDiVjCUL52DC2LgOxxUVl+L85WvILyxGXkGR0HNbmJNEguFREZgcP9bithZBAUMRFDAUyxbNw9XrqThxOhl5BUXGYPqNW7h24xbCQ4Pw7BOPwNHRwarXOZA0LS34278+EgL/AODs5IinH1uOYWEhVp1LLBZj9MgYXL52E1qtFsmXrpkdL5VIMGlC533ZB6ugAD98+tW3Xe4Xi8V4dNlDXbZ3KKuoxPFTyTh/6ZpwnwYAdzcXzJ81DRPGxvWqNYStrQIL585AYsJ47Np3GMmXrsFgMCA98w7+/M6HmJIwHksWzu5x0HogVNfUIivHmCzl4uyEKQnjTPbn5BVg94Gj/XZ9Gxu5kACQfPEqNm7eabI/PDQIjyxZ2GfJFH6+Q/DTH63FpWs3sf/wCZSVVwIwvk6DQd/pPZGIiIiIiIiIiIgeTEwAIKIemTMjEZlZOaiurcWPX3haCP635+bqgiceWYKlD81FalomcvIKkFdQhJraOjQ0NnUoj98VsVgMuVwGmUwGG7kcCht5pyuv7zcB/n4WjxWJRH1eaeN+b9kxKjYa2/ccEp7L5XKEhwRiZGwURo+I6XXP95CgAPz05bW4lX4bW3cdQGl5BXQ6PYZ0UfLa09MdWdl5yCsoErYpbGwQERaMUSOGY8TwSCgUPUs6kUmlGD9mJMaPGYnc/EIcSzqHK9dTYDAYIBaL7+vgPwDIZTIse2guPvh0PWwVCkxLjMeMKRM7/b23xKPLFsLJ0QEpaRmoq280CVK3cbC3w1BfH8yaNglenu69fQkduLm64OW1j3c7rqKqGh9/8U234+Q2csRERQCARUk/5ri6OCMkKAAlZeVQqzXQ6/UQiURwcLBHcMBQzJiSYHb1vkQsRmpapvC+eri7Yta0yZg4fjSkEkmv5taek6MDnnh0KRITxuObLbtQUFQCvV4PGxv5fR38B4w//1+99jI+27AJ0ybHd5ivRCLp1yQzSbufQ8KEMcjOzce5i1cREz0Mc2ckWl3u3xIikUhomZJ++w5OnEpGdm4Bnntq1X3/8yIiIiIiIiIiIiLLMQGAiHpELBbj6ceWQ63RdNs/2t7OVgh+ttHr9VCrNdDqdNDpdDAYDELfbIlEAmlrawCJRNKrlaoPirjYaPzzL2/c62kMKEdHB6xa9hA0Gg38h/piqJ9PnwYn20RHhmNYeAjOnL+MiNDgLhMA5DIZ1jy2AnsOHkNw4FAEB/ojYKhvn3/+ggKGYu0TK7FwznQcOpaEebOm9en5+0t0ZDhefOYxhIcGwVbRu+QMezs7rFg8HysWz++j2VlPKpVYtLpaKpXCwcFeeNwVNxdnvPzsE302v9d//JzwuO3+aCkPdze8+tIabN11APHjRiE2eli/3kcD/f3wi1dfxLGkczAYDJg9fXK/XctGLhcSQsz9PCzh5emOn7/yAsSdvLdTEsZjSsL4Xp3fGo8sXYgZUxIGpH2CSCRCVEQYoiLCoFZrWPqfiIiIiIiIiIhokBEZLF2Ca6X8ojLhcYDfg9ELloiILNPS0gKdztg728ZGft9XGyBq0/bZFYlEDHwSERERERERERER0aDDCgBERGQ1mUwGVoymBxE/u0REREREREREREQ0mA3+utpEREREREREREREREREREQ/AEwAICIiIiIiIiIiIiIiIiIiGgSYAEBERERERERERERERERERDQIMAGAiIiIiIiIiIiIiIiIiIhoEGACABERERERERERERERERER0SDABAAiIiIiIiIiIiIiIiIiIqJBgAkAREREREREREREREREREREgwATAIiIiIiIiIiIiIiIiIiIiAYBJgAQERERERERERERERERERENAkwAICIiIiIiIiIiIiIiIiIiGgSYAEBERERERERERERERERERDQIMAGAiIiIiIiIiIiIiIiIiIhoEGACABERERERERERERERERER0SDABAAiIiIiIiIiIiIiIiIiIqJBgAkAREREREREREREREREREREgwATAIiIiIiIiIiIiIiIiIiIiAYBJgAQERERERERERERERERERENAkwAICIiIiIiIiIiIiIiIiIiGgSYAEBERERERERERERERERERDQIMAGAiIiIiIiIiIiIiIiIiIhoEGACABERERERERERERERERER0SDABAAiIiIiIiIiIiIiIiIiIqJBgAkAREREREREREREREREREREgwATAIiIiIiIiIiIiIiIiIiIiAYBJgAQERERERERERERERERERENAkwAICIiIiIiIiIiIiIiIiIiGgSYAEBERERERERERERERERERDQISO/1BIjIMoePn8aOvYcAACKRCO/+9XcQi5nDQ0RERERERERERERERERGjB4SPSCcnRyFx06ODgz+ExEREREREREREREREZEJVgAYYNXVNbh85arwfPy4MXB2du7Ruerr65GSegtNTUoAwLRpUyCT9u5HqtXqUFtXi+rqGjQ1NqFZ3Yzm5mbIZHLY2dkiOCgIrq4uvboG9YyLs5Pw2NXFyczIe0hvQNOlq2g4eRaqm7fQUlwGGPSQDfGCTVgIHGdOgcPEsRDJZPd6pkTUz26l30bypWvILyxCbW09bBQ28HBzwcjYaEwcOwqOjg73eopERERERERERERERIMOEwAGkFarRVp6ep+cq6SkFLfS0qHX6/vkfAaDAWVl5ci8nQW1Wt1hv1argkqlgs+QIX1yPbKes/P3FQBcepg00p/UWdko+cu7aE7L7LgvtwDq3ALUHzkJm7Bg+Pz6NSiGhd2DWRJRf1OpmrH+u+24npJmsr2lUYvGxibk5hfhyPEzeGr1MsRERdyjWRIRERERERERERERDU5MABhAWVl3oFSqenUOnU6HrDvZyM8v6KNZAXq9Hqm30lBaWmay3dHREXZ2tpDLZNDqdL2eO/WOi1P7CgD3VwJA45kLKPrtmzCoNQAAiasLHKcmQOY7BGKFDVrKKtCYdBaagmKos3KQ9+LP4P/On2A3KvYez5yI+pJer8cnX36LjKxsYZtcLoO7mytUqmbU1tUDAJqUSnz0+dd45cU1CA8NukezJSIiIiIiIiIiIiIafJgAMEAqKitRUFgEAPDy8kR5eYXV52hubkbqrTRUV9cAAFxcnKHRaHoVmDcYDEhLzxCC/1KpBEGBgfDxGQKFQtHpeOpfG77bDpFYjJioCAwLC4FCYQMAsLGRQ6GwQXOzGi7tqgEAQHlFFdIys5CalolJ8WMxMiZqwOarupGKol//EQatFmKFDbxfexlOc2dAJDO9vXi9/Azqjyah9K/vQq9UofAX/w9Bn/4T8kD/AZsrEfWvwydOC8F/kUiERQtmYdrkeMhb234Ul5Zj46btyM0vgl6vx6frv8Pvf/lT4T5HRERERERERERERES9wwSAAaDRaJCRcRsA4OMzBLa2tlYnANTU1CIl9Raam5sBAO5uboiNHY5Ll6/0am5lZeUoLi4BACgUCsSNjIWjo2OX40UiUa+uR927nZ2HyqpqnD1/GWKxGOEhQRgeFYHoyHC4OjuhpLkCChsbpKRlIi0jCylpGaisqhGODw0OHLAEAH1zM4p/9zdj8N/BHoEf/h02IYGdDxaJ4DRrKuRDfZH3o/+GXqlC2T8+hP8//wTwc0X0wGtWq3Hk+Bnh+dKH5mDm1EkmY3yHeOHVl57Bn97+NyqrqtHY2ISkcxcwZ3riQE+XiIiIiIiIiIiIiGhQEt/rCfwQZN3JhkplXKUfGBgAnU5n1fFarRY3U1KF4L+vrw9GjIiFTCaDTqfv8by0Wi1uZ90RnsfGDDcb/Kf+p9XpUF1TKzzX6/XIyMrGtt0H8Me33kNJmTFx5Jutu/Hhug04cTrZJPgPABVV1QM23+pvtqOlvAIQieD3f7/sOvjfjiIyHN6vvQwAaLp0DY1nL/T3NIloAFy9cQvK1u86NxdnTE+c2Ok4uVyOxQtmC89PnEpmdRkiIiIiIiIiIiIioj7CCgD9rLy8AkVFxQCAkJBgODo4oMjKBACpVIro6EhcvXod4WGhCAwMEFbia7XaHs+toqJSSCoY6ucHl/usr/wPkbZFi5lTE9DYpERTkxKNTUo0NjWhsUkJlarZJEgmlUrhYG8HB3s72Nvbwd7ODo4O9ggY6jsgc9XV1aNq/XcAAOe502E/YYzFxzovmIWab7dDnZuPuj2H4DBpgsn+ol//EQ0nz0Li5Ijw/cZr6OobULf/CBqOn4amoBgGtQYyb0/YTxgD54WzYWNFH3F9kxJNF6+i6eJVNKdloqWsAvqGRohsFZC6u0ExLBQOE8fDYcpEiC0sTZ7z+ItQ5xbAdkQ0Aj/8u7C9OSMLdXsOQXnjFlqKSyCSSiH18oRtdATsJ4yB45SJgLjrXCyDVgvVzVtoPHcJzWmZ0OQVQldfD5FUBomLE2xCg2E3egScZk2F1N21y/OUvf1v1GzbA+d5M+Dz259DW1mF8g/WoencJYgdHOA0Zxrcn3pUeL1N5y+jct1GqO/kQOrlCZeH58D10aUQSSQWvsu9k5tfiLfe/RgA8MjShZja+hlJv30HZ89fQW5+IerqG2Brq4CPtydGjRiOieNHQya1/GutuqYWN29l4PadXBQWl6ChoQmalhYoFDZwc3GGv58PRo+MQdSwMIuqn9TW1eM3fzD+7OdMT8TihcYgt16vx81bGUi+eBXFpeWorauHrcIGLs5OCAsJwsiYSISHBg/IXN948x1UVddg1bKHkJgwHtm5+di2+yCKSspag/bxmDxxnDDvY0nncOrcBdTVNcBniBdmT5+M0SNjOj13alqm8Hjc6JEQm/lcjxg+DLYKBVTNzairb0BhcSn8/XzMvgdERERERERERERERNQ9JgD0I7VajfQMY0DEyckJgQEBAACd3vpV+x7u7oiPHw9HBweT7dZWE2ivfRsCH58hPT4P9R2FwgZLFs7psL25WY0/v/MhKtut7n9o7gzMnj55IKdnoiHpHAxqDSASwX3NYyb7mtNvo/q7HVBeuQFdQwOkbm6QeXvAbuwoOEwaD0VEKFyWLkDZO/9B45kL0NXVQ+Ls1OEauvoG6GpqoSkuRfH//tlYbaAddW4+1Ln5qN68A57PPgn3NavMzlnfpETFJ+tRt/sA9M3qDvsNjU3QNDZBk1eA+kMnIB/qC98//hqK8BCL3xdtRVXrxfQoe/cT1Gze2enrUmdloyn5MhynJnR5rurvdqD6663QVlZ1nGuLFnqVCi0lZWg8nYzKT9ZjyC9fgdOsqWbnp87Og16lQsFr/wt1dp5xPg2NqPryW7QUFsP3/36JxjMXUPg/vwdaE040+YUo/+AzaCtr4PXK85a+FX2mtKwCWp0O327djXMXTNueNDQ0oqGhEZlZOThxOhkvPL0aQ7w9zZ6vpLQc2/ceMglYt6dUqqBUqlBYXIpzF68iPDQYzz31KBzs7Syec11DgzC/j7/8Ftm5+abzbtSiobEJBUUlaGhs7DIBoL/mWlpeicLiUrz38ZfQaFpat1Xgm6270aLVYnriRGzbfRDHT50TjskvLMa69ZsAoNMkgIysbOFxSHCA2etLpVIEB/njVrqxPU7G7TtMACAiIiIiIiIiIiIi6gNsAdCPMjJvQ602BhmjIiMglRpXzup7kAAAoEPwvzfnamlpQXmFMZgqlUjg5MTS//ezb7buQmVVNeRyGUYMjwQA7Np/BDl5BfdsTvUHjwMA7EYMh9z/+6oDtTv2Iff5n6L+0HFoK6tgUGvQUlIK5bUUVH66HhUffg4Awqp/g06H5rTbXV6n8cwFFL7+BlrKKyCSSWE7IhoOifGwHR4JiFtXOusNqPjkK1R98a3ZOYttFWg6f9kk+C9xcYbdqBFwnJoAuzEjIXawF/ZpCotR+Ppvoaurt/h90VZWAXoDSv/2Xsfgv9h0ZbZDYjxgZrW2Jr/QJPgvVtjAdngkHBLj4RA/FlIvD2GfXqVC8e//BtWNVLPzU+fkoWbLbqhz8mE3ZiQUw8KEffVHk6C8egOlf/0XRGIx7MeNMkl+qN68o0MSxkAoKSvHlh37hOC/m4szhoWFYFh4CBzb/bzKyivx7kdfoLq2zuz5ZDKpEHhu4+bijPDQYAyPioC/n4/J6vXbd3KwrrXahaXq6xuham7Gvz76wiT4LxKJOqzQj4kaNuBzLSkrx7ZdBwCIEBkRCpd2CTh7Dx3H7Ts5OH7qHGwVCkRGhMK53XfEzn1HOpyvsbEJSqVKeO7r493tHNpXKykpLe92PBERERERERERERERdY8VAPpJSUkpysqMAY2w0BA4OX0fXOlp0P5uvemZ3NSkFB67ubkJASStVoe6ujqo1WroDXrIZXI4ODjAzs621/Olnjl34QouXb0JAIgfOwrTJsfj5q0M6PV6fLZhM371s5dhZzuwPx+9UgXlNeOcHNtVIWi6eBWlb70PAJD5eMP9yUcgcXFGc1omqlpXDotbVybLfLwhcXaCrq4e6uwc2Md33kKg5M//BAB4PLMabo+vgLjda9WWV6L0r++iMfkSAKBi3XrYTxrf9Yp9sRjuT65EzZbdcF44Bw7xYyC7a9WxQaNBzdY9KH//U+M1qmrw/9m78/C46rL/459Zkslk35M2aUqXpHuhLbSFQssmFAERBUFEFPUR9wc3VBR/uIEsgoAsyiOi4ALIIiA7lEKBrunepmmSLtn3ZSYzmf33x7Qnk2ZtszXp+3Vdva5z5pz5nnsmJ5M09/29vy3/eVVp1101oPcm5POr8Z/PquWl12WOtSvtc1cqfvnpip40USaLVYHWVnnLK+X8aGO/yyakXn252j/coKRLLlD8GaeFk/WRbdVDITk/2qDqX96tgMMpBUNq+PPfNem+2/qMr/6Pf1XeA7crdsF8SVLNHfer5cXXJEmVP/m1Qn6/TnrsftmmT5FCIVXecrscq9ZIwZBcG7coKWL99pGwt3S/9pbuV2Z6mq696pOaNmWycSwYDGr9pq3657Mvye/3q7XNoWee/69uuP6aXsdLT0vVqafMU7vLpVMXzNfsGdOVkNC1wMrhcOpfz7+sLdt2SZKKS/ZpT0mZZkwfWDeIlrY2/fPfL6q6pk6pKcm64JwzNXtmvlKSkxQMhdTW5tCB8krt2F2sWQXTRjzWPXvLlJgQr5/f9G2lJCfJ4/HqjvseUW1dg9zuDv3xL//UhOxMffcbX1JcbKzcHR361Z0PqLXNoYbGJtXWNSgrogClPqI7iclkUlJC94K1I0UWHdTWd+9yAQAAAAAAAAAAjh4FAMPA7XZrT3F4xmZycpImT+7aCnkQefsh43Z3ztSMOzSDtrKqSnv3lsrn83U7Pz0tTdOnT1VCAp0CRlJtXYOefuEVY3/FsiXKykzXgvmzVbh1p5qaW/TkUy/oq1/87IjG5d1/0LiRY+Ycmr0cDKr2dw9JksyxduU9eKeiDrVij104v1sBgCTFFExT+4bN8hyo6PN6qddcofSvfL7b49bMdOXc9jMduOF76thbJgVDavzLP5Rz2896HStp5fl9JrBN0dFK/eyn5KuuUfOzL0sKdyEYaAGAJNU/9JiisjI06b7bFD0pp8sxS0qy7CnJss+f0+840ZNyNO3Zx7t1DugM1qT4MxYr+6Zvq/KW2yVJ7YVbFWx3dXmfjxS/bImR/JfChQaHCwACDqfSPv+ZcPL/0DWSLv5YuABAkmffwW7jjYTo6Gh9+4YvKDUlucvjZrNZS09bIJPJpL/96zlJ0radRdp/sEIn5eX2Ot4Xrvl0t5n4kRIS4nX9567UbTUPqrauQZK0q6hkwAUA1TV1qq6pU/60Kfra9dcoJsbWGbOk1JRkpaYka8EA7oPhivWc5acrJTlJkmSzRevsM5fqqefC97y7o0PXXfQpxcWG7yN7TIwWnjzXWBKgqqauSwGAw9lubMfFxcpisfT7uiK7CrQeRZcNAAAAAAAAAADQO5YAGGKhUEjFxSXy+Xwym82aOXNGl/bMxwtXRAFAdFSU9u3br127inpM/ktSQ2OjNm4qVGPELE8ML5/fr8eefFper1eSNKtgurG2+crzOtd537pjt1Z/sG5EYzu8drwkI8HdXrhN3vJKSVLyJ1YayX9JCkZ0nDBHdJOwHErmBh2dycMjmSwWpV17Re/HbdFK//K1xr5zzToFmlt6D763ZPoREi8819j2lO0f0HMiTfj5D7sl/4/JAOKNP+t0mWzR4Z1gSL7q2j7Pjz2l6/rt0Xm5MttjjP24JQu7Hs/tfB3+2pFfAkCSli1Z1C35H2nxopM1ITvT2N9QuK3P8fpKqB9mtVi0eOHJxn5dfcMAIu0Ua7fry5//TJfk/7EYrlinR3RSkLq25DeZwksDRMqOSPi3tnVN2Hu9nT87oqOi+r32ked1HPqcAwAAAAAAAAAAg3P8ZabHuKrqatXVhxNk+dOnKSG+/zbIo8EfkehvaGxUSWmZEuLjNX/eXK1YfqbOP+8cnX32cp26aKHS09LCz/EHtH3HTnV0dIxW2CeUV15fpYqqGmP/nLOWGts5E7M1b3bnuuHPvfiaMfN3JPgOJYEtKcmyHGr17dqw2Tgef9bpXc4PRhScmGM7Z6ZbDs1SDzidvV7LPm+WLBGtwnsSe9oCIwEeCgTk3lU8kJfRp6iIZHLQ5VYoEBjwc+1zZ3VLsg8nU5RVUdmda64H2nsvqJDCyy90HcAka3qasRudM7HL4chuAkH36Hz/z5mV3+dxk8mkhRGz6YtLyobkumlpKcZ25Br3A3HGkkVKONRhZSQcbaxHFlQkRszIT01J7pbIt0csv+E5ImHvjdi3Wvuf/S9J1qjOJkQeDwUAAAAAAAAAAAAMBQoAhlB7u0vFh1r/p6WlKjd3CGb/DpNAMGhsNzY2KSM9XaeeulBZWZmKjo6WyWRSlNWqlJRkzZ8/V5kZ4dncPp9P5RWVoxX2CeWCc8/SyvNXKDo6WpnpaZo9s2sC9MLzlkuSMjPSdP21V3Zpxz3cgofafVsi1vnuKC41tm1Tu84sjuwAYInrTCKaDiUYQ710npAkW37v66MfZo6xyTZtirHvKd3X73P6YzqyhXnE90x/4pYuGvT1j5YpIpnaX6yWpO5LeRgdBCRZkrsWXESO3dfXajhNyMrs95zcnAnGdk1dg3x+/6CvazF33gfBo1y/ZWbBwJYLGCpHG2vcEctEREXc84kJ3YvXIhP7Af8RBTED6FIAAAAAAAAAAACGn7X/UzAQwWBQe4qL5fcHZLVaNKOg4Lhs/X+YPyIxZrPZNGfOLFmtPd8OFotF06ZPNTobVFRUatrUKcf16xsP7PYYXbryPK1YtkT1DY3d2oBPmTxJN1x/jebMzB/QettDKeAKJ/TNEbOb/U3NksKJc8sRnS+6LAEQMYs4FAjfh2Zb7y3SrYfWKO9P9IQsdezaE46lsbnPc0Mer9o3blb7ukJ5SvfJW1GtYLurS6eCwYiemD0k40iSQiG5t++Wc+1GefaUyHOgQgGHQ0GXSwoeXUL6MFMf77ckmaKj+zw+GuKPSFb3JHJGezAYVHu7S8l9dI9oczi1bcduFZfuU01tvVpaHfJ4vV0+HwcjPTV1SMaRhj7Ww0Vevemvjf+Rd54tuvN8/5HFAb3w+yJ+Dh2H9xwAAAAAAAAAAGMRBQBDpLyiUo2NTZKk/Pzp3WZWHm8ik8m5ORMV1U+yJz4uTgnx8XI4nfL7/XK53YqPG7nW1ieyxIT4HmfjStL8OTNHOJqw0KF23aaIBGLI45EkmRPiu61bH2hzGNumiAKAw4UBlsTuM9I7zx/Y+uld2tT3saSAY9Ua1d7/J/mHccmEyNc4GJ6SMtXc8YDchwobhkq37gYDPDZazGZzrwVKkWJsXZPI7g6PeqofCQaD+u8bq/TWux8MWbK/Jzbb4JPawxWrpZ8CrqMt8IqOSOB7B9glIvK86Oi+fwYBAAAAAAAAAICBoQBgCDicTpWUhNufZ2ZkKGfixH6eMfoiZ37GDTCRHxcfJ8ehxKrP65PI/5+wzLHhBHfQ1X1m/+FCgEi+mjpjO7KdvL+lVVIPa9JHCA1wNnGX2fC9tCNvefl11dx+n7FvTU9T0kXnyT5npqyZ6TLH2IyiBn9jkw58/YcDu/YRjuzWcCw6ikt18Bs3GV0JTLZoJa08T7EL5ilqYrbMcbEyRxTuHPzOT7q8z+NJMBhUKBTq9309su19b2f/5e/PqHDrTmN/4oQsLTp5rnImZispMUHRUVFGAnzbzt16/uU3jinuoWiKP2yxDnHL/sgipfZ2lwKBQL+dSdoiCoMSE3sucgIAAAAAAAAAAEeHAoAhUF1do+ChNbebmpu0+r01fZ4fOYuzsHCLTBEzLZeftWxEWutHRczWDA1wXWurpfN2CQQHmJTFuGQ+VDQSdLYbj0XlTlRHcamC7g4F2hxdZvV3FO01tkNer7HtPVgpSbJNm9LrtULujgHFFIgsRuihqMXf1KLaex429hPOXqYJt/xA5pieOwyY+umKMdxq7nzASP5H5+Vq0j2/6rNQIrKwYjzy+XxdZpn3xOPxdtmP6eFru21nUZeE+qUrz9OF5y3vtbggMaH37hTDbSzFmpmRZmyHQiG1OpxK7Wf59S+y/QAAIABJREFUjubWNmM7Kz192GIDAAAAAAAAAOBEwiLuQyAyge73B+Tz+fr81+X8QKDXY8Mpsn2/KyJx2hefv7Ndc2QxAE48luTwuur++kaFDrXxts/tXI7AtXm7sR1wOOX8aIOxf7j1vr+xSb6qmvBz5/W+lIGvtn5AMfkqq41ta3r3tdedH64zli4wx9iU/ZMbe03+S1KwY2CFB8PBe6BcHbuLjf3sH3yzz+S/1LmcwngVmSzuTVNzi7FtNpsV38NSLBsKtxrbUyZP0srzV/TZWcDTQ0eLkTKWYrXHxCgpouinqrq23+eUR3zPZmdlDEtcAAAAAAAAAACcaCgAOEFFtv1vaGwa0HMi2zX3NxMX45ttSp4kKRQIyHugQpKUsPwMY/34+j/+Vd6KKgUcTtX+7iGFPF6lXHmZJKntjVUKtLSq6e/PSpLs8+coakJ2r9fqKC7tN55gR4c8Zfs745vevaOAr7zK2LbPmy1LfN9rWBwuThgN3shrm0yynzK3z/MDDqf8za3DHNXoGkhC+WBF59d4QlaGrNbuhUq1hwpQJGnWjOn9jlnXMLDPx+EwlmKVusZYtv9gn+f6AwHt219u7OdPO2m4wgIAAAAAAAAA4ITCNO4hMKMgXzMK8gd8/pat21VfH57VvPi0RUpK6rtN8nCIj49TUlKSWltb1draqubmFqWkJPd6fltbm9yH2pHb7XbZ7TEjFSqOQ5EJdveuPbJNn6KoCVlKvebTanziaXkPlKvsqq8Y50RPmqiMG65TR1Gx3Nt3a+/FnzWOpX/5c31ey1NSJl91bZ8z4NvXbVLIF15aw2S1yj57RrdzQoGjW7ai7a33jur8IRURq8lslvrpDOJ8/6N+zxnrtu0s0oL5c3o9HgqFtHlbZ7v8GfnTejzv8HItktT7XPowv9+vLRFjjrSxFKskzZ01Q2s3bJYkbSjcpksuPLfXJW127Noj1+GfKTExmjJ50ojFCQAAAAAAAADAeEYHgBNYbs5EY3tP8V75fL4ezwsGg9q374CxnzNxQp9tqDH+RWVmKDo3fP+0vfGu8Xj6/3xeKZ+5TIq4P+xzZmrSvb+W2W5X1ne/LktCvCTJZLEo89v/o7hTT+n3eg1/frLXY8EOjxoe+4exH7/8dFmSEnuM+bCOkn0Keb3dzjmsfX2hWl97u9+4hos1o3M99FAgIM++3mdT+2rrVf/I4yMQ1ejauHm7KvvoArB245YuM+YXLzq5x/MiC50ORHQM6MnLr7+jppbR66wwlmKVpHlzZig1OVzQ1tTcotVr1vV4ns/n039eedPYX7b01F4LBQAAAAAAAAAAwNHhL+4nsOzsLCPB5HA4tHXbdjmczi7neDweFe0pVt2hjgU2m00TJ04Y8Vhx/Em69EJJkmvzNnlK90sKJ/Wz/vcGTf/PE8r7wx2a+vc/avIjvzNa/MfMmK6pzzymyQ/fpWnPPq7Uqy8f0LVaX31btb97SIGIZSgkyV/fqKqf/kaekn3hB8wmpX/xsz2MIMUunGdsB5pbVPfQX7oVAQQ7PGr+94uquOnW8AOjVOhim3ZSlyKG2nselr+xuetJoZCcH23Qga99X/7GZmP5hfEqGAzqwUf/pp27ixWK6HYQDAa1dsNm/evZl4zHTp47S5Nyev6cmlXQ2Rlgx649+mh9YbdzWtsceuKp5/XmqjWjmpgeS7FKktVi0UUfO9vYf+7l1/X26g+7FJfV1jXo/j/+VXX1jZIkmy1a5684Y6RDBQAAAAAAAABg3GIJgBOY2WzW7FmztHnLFrlcbjU3t2jt2vVKSkqS3R4jn8+npqZmI9lmMpk0e/ZM2Wy2UY4cx4PEC85Ww6NPKOT3q/a+PyrvvtuMhLk1LVXWtNQen2dJiJe9j1buR0r7wtVq+tdzan7uZbX851XFzCqQNTVZ/qYWuXcVScHOZHDGV78gWy9ridumT1XCijPkWP2hJKn5mf/IsWqN7HNmyJKYIH9Dk1xbdyjoCrclz77p22p99S25t+8ecKxDxWS1Kv1L16j23kckSe5tO1V21VdkP3m2ojIzFHA45d6+W/6GcBI18YJzFDUhS41//deIxzoSJmZnKiM9TVt37NZDf35SiQnxmpCVKZPJpMqaWjkcnYVLyUmJ+szlF/c61hmLF+nNVWvUdug5Tz79gt5ctUYTJmTKarGoobFJByuqFQwGFR0dpa9+8bN68NEnuhQdjJSxFKsR85JF2l1cqsKtOxQMBvXcS6/plTdWKT0tRR0ejxoiCllMJpO+8NlPK+FQVxAAAAAAAAAAADB4FACc4GJj7Vpwyikq2rNHjY1NkqTW1la1tnZtJR0TE6PZs2YqrZekLk48UZkZSrvuKjU89ne5Nm1V/aNPKOOr1w35dWKmT9Gku36hqlvvCCf9d/SQkDeblPE/1ynt85/pc6zsn9wof3Or3IfWSvc3NBoFAYeZoqzK/sG3lHTJBfJWVI1KAYAkpXz6UnkPVqr50Mz2oNut9rWbup93+cXKvPEGta/rfmy88Hh9uv5zV+hv/3pehVt3qM3hNJLikbIy03XD9dcouYclIA6LibHp61/6nB567O9G4UBtfYNq6xu6nJeQEK+vfuFqTT0pT9lZGaquqRvaFzUAYynWSNddfbls0VH6aMNmSVKHx6OKqpou58TYbLr6ikt18txZoxEiAAAAAAAAAADjFgUAOFQEcLIaGhtVX9egNodDbrdb0dFRSkhIUFpaqjIzMxVl5XZBV2nXXinHO+/Js79cjX/9l4JutzK+ep3MdnufzwsFAvLX1itqYna/1wi0tinh3LM05clH1PrfN+R490N5yysV8vkUlZWh2MULlXzJhb3O/I9kSYhX3gO3q+3N1Wp761117ClV0OGUJSlBUdlZijv9NCWtPMdYssA+q2BA78OwMJmU9b2vK2HFGWp5+XW5t+6Uv6lZZrtd1ow0xS48WYnnLZd9XjiBGlMwffRiHWbt7S5FRUXpy5//jJaetkBrN2zW/gPlanM4ZbfHKDsrUwtPnqPTFy8c0OdU3qQc/ewH39J7H6zTtp1Fqm9okt/vV3x8nDIz0jR/9kwtPW2B7PYYSdKUvEmjllQfS7EeFhUVpWuvulxLTl2gD9dv0r4D5WppaZPNFq3UlGTNnxOOOSU5aVTjBAAAAAAAAABgPDKFhqlX8MHKWmM7LydrOC4B4Djgr2vQwe/8WN7yKknhzgBJn1ip+DNOU1RWhiyJCQp6vQo0tchzoFyuwm1yvPWe4lecoawbb+hxzMqbf23MzM/8zleVetUnR+z14Piw/2CF7rr/T5LCy5U8cOetoxsQAAAAAAAAAADAGMCUbgCDYs1MV94Dd6jmt/fJuXajfHX1avi/J9Twf0/0/UTTQK8weuuZAwAAAAAAAAAAAGMJBQAABs2akabc3/1Sjvc+Ust/XpFrwxaFAoEez42ZMV1JK89T4sfPH+EoAQAAAAAAAAAAgPGNAgAAQyZh+elKWH66Ag6nvPsOyN/cqqCzXSZbtKzpabJNzpUlJXm0wwQAAAAAAAAAAADGJQoAAAw5S0K87PPnjHYYAAAAAAAAAAAAwAnFPNoBAAAAAAAAAAAAAACAwaMAAAAAAAAAAAAAAACAcYACAAAAAAAAAAAAAAAAxgEKAAAAAAAAAAAAAAAAGAdMoVAoNBwDH6ysNbbzcrKG4xIAAAAAAAAAAAAAAOAQOgAAAAAAAAAAAAAAADAOUAAAAAAAAAAAAAAAAMA4QAEAAAAAAAAAAAAAAADjAAUAAAAAAAAAAAAAAACMAxQAAAAAAAAAAAAAAAAwDlAAAAAAAAAAAAAAAADAOEABAAAAAAAAAAAAAAAA4wAFAAAAAAAAAAAAAAAAjAMUAAAAAAAAAAAAAAAAMA5QAAAAAAAAAAAAAAAAwDhAAQAAAAAAAAAAAAAAAOMABQAAAAAAAAAAAAAAAIwDFAAAAAAAAAAAAAAAADAOUAAAAAAAAAAAAAAAAMA4QAEAAAAAAAAAAAAAAADjAAUAAAAAAAAAAAAAAACMAxQAAAAAAAAAAAAAAAAwDlAAAAAAAAAAAAAAAADAOEABAAAAAAAAAAAAAAAA4wAFAAAAAAAAAAAAAAAAjAMUAAAAAAAAAAAAAAAAMA5QAAAAAAAAAAAAAAAAwDhgHe0AAAzMm6vW6IX/viFJMplMuv+O/yezmRoeAAAAAAAAAAAAAGFkD4ExIikxwdhOTIgn+Q8AAAAAAAAAAACgCzoAjLCmpmZtKtxs7C8+bZGSkpKOaay2tjbt2LlL7e0uSdLZZy9XlHVgX9J3Vq1WIBA4putK0owZBcqblHvMz8fRS05KNLZTkhP7OHPw9h0o190PPCpJSktN1q0/vpGCAwAAAAAAAAAAAOA4RwHACPL7/dpdVDQkY1VX12jX7iIFg8EhGQ/Hv6Skzg4AycdYNDJQqz9YZ2wvP2MxyX8AAAAAAAAAAABgDKAAYASVlJTK5XIPaoxAIKCS0jIdPFg+qHGOJaEbDAYVCoUkSRYLCeGRlpwY2QFg+AoA2hxOFW7dKUmKslp1+uKFw3YtAAAAAAAAAAAAAEOHAoARUt/QoPKKSklSZmaG6urqj3qMjo4O7dy1W01NzZKk5OQkeb3eYyoqOHvFWUd1fjAY1Np1643lBtJSU4/6mhiYJ596XiazWXNnFWjG9KmKibFJkmy2aMXE2NTR4VFyRDcASaqrb9Tu4hLt3F2sZUtP1clzZx3z9T9ct8lYHuLUhfMVFxt77C8GAAAAAAAAAAAAwIihAGAEeL1e7dmzV5I0YUK27Hb7URcANDe3aMfOXero6JAUTsDPmzdHGzcVDnm8PWlsajKS/xMnTlBMTMyIXPdEtLfsgBoam/Thuk0ym83Kn3qS5swq0OyZ+UpJSlR1R71ibDbt2F2s3XtKtGP3HjU0NhvPnzZl8jEXAAQCAb334Xpjf8WyJYN+PQAAAAAAAAAAAABGBgUAI6CktExud3iW/uTJeaqurjmq5/v9fm3fsVMej0dSOAE/o6BAVqtFgUBwyOPtSWVFlbE9ccKEEbnmicgfCKipucXYDwaD2lNSpj0lZXrupdeMx//57Eu9jlHf2HTM19+yfbda2xySpKkn5WlSDl9rAAAAAAAAAAAAYKygAGCY1dXVq7IynDyfOnWKEuLjVXmovfpAWa1WzZ49U5s3b1X+9GmaPDlPJpNJUrg4YLg5nE7VNzRIkhISEpQ8jOvPn+j8Pr/OW3GGnO0utbe75Gx3ydneLme7S253h0KhkHGu1WpVfFys4uNiFRcXq7jYWCXExykvd+IxX3/1B+uM7bPPXDqo1wIAAAAAAAAAAABgZFEAMIw8Ho+K9hRLkhITEzU5L0+SFAge/az99LQ0LV26WAnx8V0eDxxlMcGxqKqqNrYn5eYYxQcYejExNn3y4gu6Pd7R4dHt9z6shojZ/ZdceK4+ds6ZQ3btiqoale47IElKTIjXyfOObRkBAAAAAAAAAAAAAKPDPNoBjGd7ivcabftnzQy37JfCbd2PxZHJ/8GMNVBer9foYGC1WJSVlTms10PP/vnsi2pobFJ0dJTmz5kpSXrx1be070D5kF1j9ZrO2f/Lz1gsq8UyZGMDAAAAAAAAAAAAGH4UAAyT6uoa1dbWSZKmT5uqxMRE49hQJe0j28EPl5raOqPLQO6kXFmtNI0YaR+tL9TGzdslSUtPXaBPXnyBTCaTgsGgHnvyGbnc7kFfo93l0obCrZIki8WiM5YsGvSYAAAAAAAAAAAAAEYWBQDDwO12a0/xXklScnKSJk/O63J8BPL2QyIYDKq8vHOGeXZ21ihGc2KqrWvQ0y+8YuyvWLZEWZnpWjB/tiSpqblFTz71wqCv89H6Qvn8fknSwvlzlJSYMOgxAQAAAAAAAAAAAIwsCgCGWCgUUnFxiXw+n8xms2bOnCGzeWy+zQ2NjXK5wrPL09PSelyCAMPH5/frsSefltfrlSTNKpiu7KwMSdLK81YY523dsVurP1jX4xgDEQwG9d6H64395csWH/NYAAAAAAAAAAAAAEbP2MxMH8eqqqtVV18vScqfPm1MJ80rK6qM7dzciaMYyYnplddXqaKqxtg/56ylxnbOxGzNmz3D2H/uxddUW9dwTNfZsbtYjU0tkqRJORM09aS8fp4BAAAAAAAAAAAA4HhEAcAQam93qfhQ6/+0tFTl5uaMckTHzuFwqKGxUZJkt9uVmpo6yhGdeC449yytPH+FoqOjlZmeptkz87scv/C85ZKkzIw0XX/tlcrKTD+m66xe09k94Owzl/ZxJgAAAAAAAAAAAIDjmXW0AxgvgsGg9hQXy+8PyGq1aEZBwZht/S9JVVXVxvak3BxZLJZRjObEZLfH6NKV52nFsiWqb2iUyWTqcnzK5Em64fprNGdm/jF/fapr61W0t1SSFBcbq0WnzB103AAAAAAAAAAAAABGBwUAQ6S8olKNjU2SpPz86YqLix3liI6d1+tVZUQBQFZW5ihGg8SEeCUm9LyUxPw5Mwc19vsfrje2z1x6qqKiogY1HgAAAAAAAAAAAIDRM3anqB9HHE6nSkrCs6gzMzKUM3HiKEc0ODW1dQoEApKkiRMnKCYmZpQjwnDo6PBo7cbNkiSTyaQzTz91lCMCAAAAAAAAAAAAMBh0ABgC1dU1CgaDkqSm5iatfm9Nn+f7/X5ju7Bwi0wRSwUsP2vZqC4dEAwGVV5ebuxPnDBh1GLB8Fq7cbM8Hq+kcCeB1JTkUY4IAAAAAAAAAAAAwGBQADAEQqGQse33ByQFBvxcfyAgBTrPjxxrNDQ0NsrlckuSEhMTlZycNKrxYHiEQiGtXrPO2F9x5pJRjAYAAAAAAAAAAADAUGAJAHRRUV5pbOfmTJTJZBrFaDBciopLVdfQKEmakJWhgmlTRjkiAAAAAAAAAAAAAINFB4AhMKMgXzMK8gd8/pat21VfXy9JWnzaIiUlHR+z7B0OhxqbmiRJVotFWVmZoxwRhsu7a9Ya2yuWLaHQAwAAAAAAAAAAABgH6AAAQ1VVtbGdOylXViv1IeNRQ2OTdhbtlSTFxNi0eNEpoxwRAAAAAAAAAAAAgKFAAQAkSV6vVxWVVcZ+dnbWKEaD4fTehxsUCoUkSaeftlA2W/QoRwQAAAAAAAAAAABgKFAAAElSTU2tgsGgJCk9LU0J8fGjHBGGg9fn04frN0mSTCaTli9bPMoRAQAAAAAAAAAAABgqFABAwWBQ5RUVxn5O7sRRjAbDaf2mrXK7OyRJs2ZMV2Z62ihHBAAAAAAAAAAAAGCoUAAANTY2yuVyS5LsdrvS00gKj1er16w1tlcsWzKKkQAAAAAAAAAAAAAYaqbQ4cXAh9jBylpjOy+H9eQBAAAAAAAAAAAAABhOdAAAAAAAAAAAAAAAAGAcoAAAAAAAAAAAAAAAAIBxgAIAAAAAAAAAAAAAAADGAQoAAAAAAAAAAAAAAAAYBygAAAAAAAAAAAAAAABgHKAAAAAAAAAAAAAAAACAcYACAAAAAAAAAAAAAAAAxgEKAAAAAAAAAAAAAAAAGAcoAAAAAAAAAAAAAAAAYBygAAAAAAAAAAAAAAAAgHGAAgAAAAAAAAAAAAAAAMYBCgAAAAAAAAAAAAAAABgHKAAAAAAAAAAAAAAAAGAcoAAAAAAAAAAAAAAAAIBxgAIAAAAAAAAAAAAAAADGAQoAAAAAAAAAAAAAAAAYBygAAAAAAAAAAAAAAABgHKAAAAAAAAAAAAAAAACAcYACAAAAAAAAAAAAAAAAxgEKAAAAAAAAAAAAAAAAGAcoAAAAAAAAAAAAAAAAYBygAAAAAAAAAAAAAAAAgHGAAgAAAAAAAAAAAAAAAMYBCgAAAAAAAAAAAAAAABgHKAAAAAAAAAAAAAAAAGAcoAAAAAAAAAAAAAAAAIBxgAIAAAAAAAAAAAAAAADGAQoAAAAAAAAAAAAAAAAYBygAAAAAAAAAAAAAAABgHKAAAAAAAAAAAAAAAACAcYACAAAAAAAAAAAAAAAAxgHraAcAABhZzz1Yqveeq+z1+A2/nadZp6WMYEQ4EW1+t15//dVuSVJufrx+8MjCUY4IAAAAAAAAAICxjw4AAAAAAAAAAAAAAACMA3QAGGFNTc3aVLjZ2F982iIlJSUd01htbW3asXOX2ttdkqSzz16uKOuxfUldLrfq6urU3NyidpdLPq9XMfYYJSYmKjUlRRkZGbJaLcc0NoDjy9lX5Gju6Wlqb/OpvdWn9ja/3nm6XB5XYLRDG7Pe/XelXni4tMdj0TEWxSZYlZFjV25+vGYvTdW0+Ukym00jHCUw9py69Cy1trUNepyi7ZtlsYzNutdH/vRn/e7390uSLrn4It17128H9Lw7f/d7Pfrnv0iSPvfZq3TrLTcPW4zA0QqFQnrk0T/rnt8/IElafuYy3XfPXYqPjxv02KVlZXr7nXe1afMWlZbuU2NTo+675y4tP3PZoMcGAAAAAAAYCygAGEF+v1+7i4qGZKzq6hrt2l2kYDA4qHGCwaD27z+g0rJ93Y45ne1yOttVVVWt2Fi7Zs+apZSU5EFdDzhWvqoalV75JdmmT9GUvz442uGMaalZMUrNiuny2LrXaigAGCbejoC8HQG11Hu0d0uLVj1ToezJsfrM9/I1de6xFYABADBWBYNB/faue/SXvz4hSVp5wcd0529/LXtMTD/P7JvH49Edd9+rJ/7+z27HQqHQoMYGAAAAAAAYSygAGEElJaVyudyDGiMQCKiktEwHD5YPSUzFxXtVXtG5FnhUVJQSExIUFR2l9naXHA6HpHCHgMLNW7RwwSkUAWBUtBduHe0QgAGJspmVkWM39j2ugNqavfJ5Ogu2ag649IfvbdNXfjVHs5ekjkaYwJiQmpoiay/djdpd7ero8EiSbDab4uN6nzlsouEGcNx44KFHjOT/GUuX6I7bfzXo5L8k3XXPfV2S/0lJSVp86iJlZmYoOytr0OMDAAAAAACMFRQAjJD6hgYj0Z6ZmaG6uvqjHqOjo0M7d+1WU1OzJCk5OUler/eYiwoaG5u6JP/zp09Tbm5ul1b/DqdTe4tL1NjUpGAwqKKiPVqy5DSZzWOzjS7GrvZ1haMdAjAgE6fG6bt/WNDlsWAwpLpytza+VatVT1co4A8pGAjpyduL9LMnFis2gR/HQE/eeOXFXo9Ftri//LJL9atbbxmpsAAco2eff0EPPvwnSdK0qVN13z13KtZu7+dZ/WtobOyS/L/u2mt00/dvlM1mG/TYAAAAAAAAYw1Z3BHg9Xq1Z89eSdKECdmKj48/6jGam1u0YWOhkfxPS03VKSfPH1Qivra2ztiePDlPJ500uUvyX5IS4uM1b94c449nzvZ2tbU5jvmawLEIBQJqX08BAMYus9mk7MmxuuTLU/SlX8wxHnc5/NrwZu0oRgaMvmBIemlzk+57vXq0QwFOOD/61wGtKx2Z3+33lpTq1l/drlAoJIvFrLt++2slJw9NZ7HS0n3G0mhRUVH60Q++S/IfAAAAAACcsCgAGAElpWVyu8Oz9CdPzlMgcHTrbPv9fm3fsVMdHR2SpIkTJ2j+/HmKiopSIBDs59m9czidxnZmRkav50VFRSkzI93YP/xagJHSsXOPgs720Q4DGBJzlqYqf0FnwqNoffMoRgOMnmBI+k9hk067Zas+cU+RdlW6Rjsk4ITz1s4WLb11uz5+926tLRm+QoBAIKCf/PTnxv9nvn/jdzRv7px+njVwLlfn50f+9GmKjo4esrEBAAAAAADGGnoOD7O6unpVVlZJkqZOnaKE+HhVHmUBgNVq1ezZM7V581blT5+myZPzZDq0mK3f7z/m2ELBzuIBa1Tft0LkH9GCoWMvOjgRuLftlPOjjXJt3iZ/bYP8zc0yWSyyJCUqelKOYmbmK3bBPMUumC+Trf8/TnbsLZPjnffVvmGzfDV1CrpcsqamKqZgmuKXn67Ec8+UaQB/5Nx70VUKtDmUsOIM5dz2M0mSr7pWra+9I+eH6+WrrlXQ2S5rSrJiZhUoYcXpSjh3uUz93BuRvBVVcrz9nlybt8uz76ACrW2S2SRLfLyiciYoJn+qYhfMU9xpC2SO72Wt5mBQzo82ylO2X56SferYUyJvRZVx2FOyT0XLPt5rDOlf+bzSr//sgGMeDgF/SDs/atSewhbt39mmtiav2tt8irKZlZgaray8WE2elaCCBSnKm5nQ79rUoZBUtKFJ2z9oVNn2VrU2ehUMhJScYdO0+Umaf1a6Zp6aMjIvrgd/+02RCt8JdxS55MtTdP41k/p9zq1Xr1NLfXjt7m/cNU8FCzvj3/xuvf76q91KSInWr/69VD5vUG88eVAb3qiV3xfUjEUpuvjLJyk1K7xecF25Wy89WqaSra2Kspk1/8x0XfTFyYpLjOp23Q9frtbT94Y7svzgkYXKzY9XKCRtX9OgwlX1qihxqrXBo6hos1KzY5S/IFlnXDxBGbmDb08cafrJSdq7uUWS1FA9sKKqgD+kbWsatP2DRpXvcai1wSNrtFnJGTYVLEzWwnMzlTcjod9xDn+9omMsuuPlZTKZpA5XQJvertPW9+pVV+6Wo9mn2ASrsifHataSVC29KPuolilorO7Q2ldqtGtdk5pqOmQyS2kTYjRvWbqWrMxSUrpN1qijr0EcqvdAktqavPr5lWslSRd+frIu+uJkSeHlGoo2NGv967WqKnOquc4je7xVqZkxmnZykuacnqqpc5OOOnZ0CoakFwub9Ivny7XlQGdxV3+fhcBwKi0r0/trPtTmLVu1a3eR6uobFAqFlJKcrPzp07RwwclaecHHNHXqlH7HWnrmOWpsatIlF1+ke+68XSaTSdU1NfrvK6/p7VWrdbC8XG1tbcrIyNCCk0/WeeeerY+dd46iorr/3JKkO+6+V//32OOSpE9f/kn99je/GPDrinzuFZ/6pG7/ddfnHv4/xatbm/Xq1matnJ+sWz5IuudEAAAgAElEQVQ5SWfkD+yzdKBefPkVbduxU5I0aVKuPnfN1UM6figUMratFksfZwIAAAAAAIx/FAAMI4/Ho6I9xZKkxMRETc7LkyQFgkefQE9PS9PSpYuVcMTyAUfbTSBSXHyc0QXA0+FRfFwvCVlJrohZ/zG2mGO+5njm2X9QtXf+Qa6tO7odC/n8CnbUy1dbr/aNW9T45DPKuvFrSrnyE72OF3S5VXvvI2p95c1ux3zVNfJV18ix+gM1Pv4PZf/kRsWePHdgcZbulyS1vbFKNXc+oKC7o+vYdfXy1dXLsfoDxTz1gnJ+e4uiMnvvEBEONqj6R59Q45NPhzM7R/B7muRvbJJ72041P/uSTLZo5f3+N7LP7z7zK+juUMVNtw7otRyPdnzYqOcfLFVjTUe3Yx5XQPUut+or3NrxYaP+q/1GEro39RVu/eOuPdq3o63bsdqDLtUedOnDl6tVsDBF19xUoOSM8dPu1tHslcvh1wsPl2r9651t8je9XaeDRQ5976EFcjn9uv/GLXK2+CRJbqe05j9VOrC7TTc+sEAWa+8ZxfpKt5IzbHritiLt2dR1Fr7PE5TL4VTFXqfefaZCl39zmpZfnjNkr80e1/nj1+Pu/3P8YJFD/7hzj2oOdJ0h7fUE5XL4VVXWrnf/XanTPpalK2+cruiY/pMf3o6AWhs8crb49Jdf7FJjddd71tHslaPZq71bWvT2P8v1pV/M1rT5/Se+175So2f/UCKfp+vPOpfDqfJip1Y9U6HP/rBAsQk9J7p6MxzvwWGOZq8kydni0+O/3K2SrS1djvs8XrU1erV/d5sczV4KAI5RMCS9sKlRv3y+QlsPdib+0+Kt+uHFObrh3KxRjA4nqo/Wrdd9DzyoTYVbejzudrtVVV2t1e+v0b33P6hvfu2r+s63vj6gZbiKivZIkl59/Q3dfMutch7Rzai8vELl5RV68eX/auGCU3T/PXcpKyuz2ziXXXqxkcR/8eX/6ic3fU9JSf1/Dvl8Pj3/wovG/qUXX9TtnOf/d4buea1KD79dK48vqNe2tei1bS26cF64EGBZweALAXw+n+697w9Gkv7Gb31DsfahLawDAAAAAABAJwoAhtGe4r3yeMIzXGfNLJDVGk5GBI+hAEBSt+T/YMaSpIz0dNXUhJNqdXX1SktL7fG8jo4O1daGZ/fabDYlJ5P4OFL7+kJV3vwbBY9YHsFsj5ElOVlBlys8G/4Qk8WihPOW9zpewOFU+fduUceuPcZjloR42QqmyWy3y19bp469ZZIkb3mVyv/3ZuX8+mbFn7m031i9ldVyrP5AVb+8Ozy13GRSTME0WTPTFWx3qWPXHgU7wvdtx54SVd78G01++O4+OwHUPfy4mv7x787XHWtXTME0WZKSFPJ45Kupk+dguVEcYIqKkq1geo9jmaKjlfX9b3R5zFNcqpaXXpckWdNSlfbF3meN2Wfm9/seDJc3/3FQ//3z/m6PxyZYZY+3ytni65LszZke32fyv7LEqYd/tN1IbktSSlaMsvNiJZNUd9BlFBoUFzbr99/eom/ePX/IZ6uPprWv1mj967XKmR6vuMQo7d3crFAonLxf/3qtSre1ytniU96MBMXEWbR3c4tCIam82KntHzTolBW9F69Uljr14UvV2rslnOxNSInWxKlxirKZVXvQpfqK8PdzKCQ994dSpWTGaN6ytCF5Xe1tnV/TxNS+O3gUF7bo/362Q95DCXWTScqZFq+ULJt8nqDKi53GeBverFVDlVtfv2u+om39J6f2bGrWy/+330iAZ+TalZFrVygolRc7jHuvvc2nP/10h3706CKlZvdeBLbhjVr963fFXR7LzY9XSqZN7a1+HdzjkNvp1+O/3K2V103uN76ReA8kqa3Rqw5XQA//aLsqSzqXxzk8Iz1iYqlmL+n5Z+VwWXTLVhXuP/YlUP7+9QJdc0Z6/ycOo0AwpBc2NemXz5drW3lnAUd2UpR+dEmuvnJ2puKPomADx7exds862hxdkv8Wi1lzZs1S9oRsRVmtOnCwXDt27jKOP/jIn5SSkqwvfP5z/Y5dtm+/Vr37nm78/o8UDAZlNpu14JT5ys7KktPZrg2bCo3W9YWbt+jG79+kv/3l0W6dAGbOKNCpCxdoY+Fm+Xw+vf7m2/rMFZ/q9/obNm5SY1OTJCkzM0OLTzu12zmT0my693NT9KNLcvX716r0wBvVcnmDen17i17f3qKPzU3Wzy/P1ZkFif1erzfvvve+qmtqJElpqan62PnnHfNYAAAAAAAA6B8FAMOkurrGSJpPnzZViYmdfzQbTNI+UmSry2ORmZmhpKQktba2qqKyUunpqcrI6Jos8/sD2r17jxHzjIJ8WWir2YW3vFKVP+1M/pts0Uq9+lNKuuAcRU/ONTJIwQ6PvGX75Vy7UcEOj6ypyb2OWXvXH4zkvzk+Ttnf/4YSzj1LJmvnt6yvrl71D/1FbW++q5DPr6r/d4dOeux+RU/up/16KKTKm38jSUq+5EKlf/U6WdM6268H212q/+Pjan72ZUlSx+5iOVZ/oMTzV/Q4nL+hUU3/fNbYz/r+N5R86cpuBQNBt1vubbvkfH+tLMmJMsf0PFPdFGVVyqcu6fKY490PjAIAS0pSt+PHg83v1ndJ/idn2HTBtXmac3qaktI6E7wuh18HihzatbZRJ83u/Y/pHa6AHrt1l5GAnTAlTlfeOL3bzOODRQ49/fu9qtjrVEu9R4/dukvffXDBgBOfx7sX/1imj19/ki64NtxBZeNbdXry9iJJ0utPHJDL4ddnf1igJSuzJUnvv1ClZx8okSTtWtvUZwHAW/8olyQlpkXrqu8VaNbiFJnNnR0Dyra36vFf7VZbYzg5/tKjZZp7RtqQtCkv2tjZcaCv2eStDR49/stdRuJ78YVZuvjLU7rcU8FgSFvfa9C/7i6Wxx3Qvp1tevGPZbriOz0X2UT6513hZP2UOYm64n/zlTOtsxNMMBjSuldr9Mx9JQoGQvK4Anr7X+W68saei2xa6j165r4SY3/yrARd++OZXQpSPO6A3nmqXK8/cVCv/GV/v/GNxHsgSc31Hj37QIkqS5xKmxCjCz6Xp/yFyUrOsCkUDHcIqNjr1O71Tcpf0PtnN7oKBEN6bmM48b+jojPxPynNph9fkqMvLs9UbPT4+KzC2HXuOSs0d85snbpooc4/9xydPH+eYo74HaWsbJ9+9NOfa8vWbZKk+/7wkK741CcV10f3LCn8O/8N3/yOJOnaa67Wt75xg9JSO4uI2tvb9cBDj+jPf/mbJGlj4Watevc9XfCx7gnyq6+6UhsLN0uSnnr63wMqAHjltTeM7Ss/fbms1t7/65edFKXfXjVZ3//4RD3wRrV+/1q1HB0BvbmjRW/uaNH5c5L088sn6awZR18I8Ozz/zG2P3v1lbLb6SYGAAAAAAAwnCgAGAZut1t7isNrTCcnJ2ny5LwuxweZtx8yZrNZc2bP0qbCzfJ4PNqydbumTp2ivLxJirJa5WxvV1HRHjU3h2fHzijI77Et6Ymu9t5HFHSFk/+WhHhNuu82xczonnQyx9gUM3uGYmbP6HO89vWFanv7vfCOyaRJd/9S9nmzup0XlZmhiT//oWQ2q+31dxTs8KjmjgeU99CdA4o7+bKLlH3Tt7vHGRerrBu/Lk/pfrm2hJczcLyzptcCgI7de42bOm7pol6T82a7XXFLFiluyaIBxTeWeFwBPfP7vcZ+3owEffW2uYpP7t7iPDbBqlmnpWjWaSndjkV656lyoyV7SqZN37x7fo/j5c1M0Dfvnq/ff3uLag+6VL2vXe88VX5Us6uPZ/Y4q867urOoZeG5GXrxj2VqawovDzB5VoKR/JekRedlGgUAlWX9z0CNtpn1zbvnKysvttuxqfOSdO2PZ+qhH4YTPnXlblWWOpU7vfeuDQNR+E6dDux2GPunXdB72/MX/7RPLodfUjjxfc1N3T8/zGaTFpydIZvdoj/dHP6e/eDFKq34dI4ycvrvBpEzLV5fu2OebPauxV1ms0mnXzxBrQ1evfa3A5KkjW/X6dPfmd6lUOKwVc9UyNsR7nCRlBatr942V3GJXe9Zm92ii754kgKBkFGA0Z+ReA8qS5yqLHFq5qkpuv7/zZYtNuK9MIcLepIzbJp7xtB0gDgaHz85RXNyut+fA5WX3neHieEQCIb07IZG/eL5Cu2q7Ez8T82M0c2fyNG1yzJks5L4H6/G2j1rtVr17FN/77Ol/9SpU/TA7+/WuRdcLJ/PJ4fDqR07d2vJ4u4z6nty3bXX6Jabf9Tt8bi4ON30/e9qb0mp3nv/A0nS62++3WMBwPnnnq34+Dg5ne3atmOndhft0ayZvf9O6Xa79dJ/XzX2L7rwggHFmpEQpV9+Ok/fXTlRD71Vo9+9WqXmdr/e2tmqt3a26tzZ4UKAFTMHVgjgdLYbr02Szjzj9AE9DwAAAAAAAMeOAoAhFgqFVFxcIp/PJ7PZrJkzZwxojdDREhcXq0ULF2jHzl1qa2tTWdk+VVZWKTU1RdXVNcY5M2YUdJmxhDBPSZna120y9rN++K0ek/9Ho/npzllSyZdd1GPy32A2KevbX5HjnfcV8vnk2rpD7p1Fss+Z2ec1zPYYZXz9+j7HTb7s40YBgHvHrl5PDfk6W5krMDTdLcaaDW/WGglKa5RZX7hlVo/J+oHyeoJa858qY//S/5nS53j2eKsu+9pUI/H53nOVOufK3G4J3bFoytxEWaydyWaz2aSTZidq25oGSdLsJV0TsrEJViWmRaut0aummq5r2vfk3Ksm9Zj8P6xgYbLSsmOMpRYqS46tACAUkurKXVr7ao1WP1tpPL78UzmaVNDzeC31HhW+E+4kY7GadclXpvR5jdlLUpUzPV6VJU6FQtLGN+t00Rf7LwS57GtT+7xXFl+YZRQAeFwBNVZ1dFtmIuAPacMbtcb++dfkdUv+Rzr/6kl695lK+X19f2aM1HsgSXGJUfr8zTO7Jv+PA7+6Iq//k44TgWBI/17fqF88X67dVZ1L4syYYNfPLsvVVUvTFWUZghYaOK6NpXv2sIH8rp6dlaVzzl6uN958W5JUXlExoAKA+Pg4/e+3v9HrcbPZrCs/fbmRJN+wcVOP58XFxemKT12ux//2pCTpxZf+22cBwPsffGQsLzB/7hzNKDi6JZJS4qz66WW5+vYFE/SnVbW68+VK1Tt8emdXq97Z1apzZifp55/M1dmz+l4abNuOHfL7w78j2e12zZs756jiGKjmls7OOjH28bMUEgAAAAAAwLE4fjPTY1RVdbXq6uslSfnTpykhfnAzRUdCXFysZs+aYbQF9Xg8RvJfkqZOmaLUlL5nK5+onGs7/0gbNSFbieecOajxgm63nOs2GvtJF57T73MsKclKWN45m8r5/tp+nxN/1umyJPR9b0af1Dnr2t/UIgV7bl0RPaXzD/3tG7fIsfqDHs8bz3Z82Ghsn3p+ptImDK617f6dbUZBQZTNrLnL+l8LeeapKUaRgMvhV9n21kHFcLxI72H2dmJE6/fMSd2PH048e9yBfsdfcE7vSwQclpPf+b3S3urv9/zqsnbd/bVC499tX9ygH1/6gW6/fqNWPV2hYCD8vXTGJRP0ya9N7XWcXeuajI4xMxYlKzG1/1mxBRHt6Ys3N/dxZlhiWrSmn9J38iY1O0bREeuzt7f5up1Tva/duGcl9TtTPibOqpn9dMGQRuY9OGzZJyYoLunYC3cg/eL5cl39YLGR/J8/KVZPfatAO397iq5dlkHyH2Ne3qTO343a2hx9nNnp4ysvVGJCQp/nTDnpJGO7tq6u1+XCLr/sUmP7mWefl7uj90K3lyNm/1/x6csHFGtPEu0W/eDjE7Xv3oW6//NTNCE5/Dm8alerzrltp/69vrHP55eUlhnb8+bOUVTU0H/OejwePfXMc8Z+/vRpQ34NAAAAAACAsYQCgCHU3u5S8aHW/2lpqcrNzRnliPoXDAa1f/8BrVu/UX6/XwkJCTrllPmaNWuGbLbw+qfbd+zUtu075PF4Rjna44/70Ax5SYo/c4k0yG4Pnr1lnYl2k0m2goF1E7DPm21suwq39X/+3L47BEiSOTYisRoKKej19niebcrkzrb+oZAqb/6NKn78S7k2be21aGA8CfhDKo1Its9aPPhOGQeLOpMKk/ITFG3r/74yW0yaMqezHW/ZjrZBx3E86GkWuTWq8/3oqTPC4Y4BwUBIwT7uQVusRZmT+m9THRMxI/xwi/u+eD1BVex1Gv/qyt1dihHyZiTohtvn6jPfzZe5j4To/l2dX8Pc/IEVkyWld65bXV/x/9m77/CoqvyP45/JTEjPpDdCCZCEDgqCglhRLAjqqmvX1bWX3667uvaGXddedtWturuuFVddy1poSq+BhBICJIT0Sa/Tfn9EbhIhmfRJeb+eJ89z7p1zz/3OZBLCnO/5nto2ejZKmhB62HL+PxUQ1Pw1OHRiKm9P03YLwWG+Co/xO6TPTyWManvvbKl3XoODkpslDqBzGhwtf95GRPlrRJSfzO14jwH9ga+lqXiay+X53wNJmjxpksc+QYFN/xa5XC41NByaaCVJ48eN1dQpkyVJ5RUVWrps+WH7lZWV6auvv5bUWGFg7smeE0o9CRhi1ogoP8X9JFHK7mz7b709e/bK/WMmV2pKskym7vt9UFtXp+UrftAVV1+rjZs2S5LMZh9deMHPuu0eAAAAAAAA/RFbAHQTl8ulHTt3yuFwymIxKzUlpU+X/pcaY96WnqH8/MayzcOHJWrMmNEymxsnemJjYpS1Z6+ys3NUWFikqqoqTZkyWcFBnidtBouGA02VEvxGj+zyePaCIqPtGxMlH3/Pk2iS5Du0aQ/0hpzcNnr+2D++9T3HD+rIB7Tx9/5GuXctUu3WDEmNVQiqlq+Sb3ycrGeeIutpJ7Xrnv1Rdbld9vqmCdG4kZ3f9/ggW0HTir6Y4e0vYxuTGCipcSVeSZ7n8vf9wRD/tn+P+g7p/O/Z6KEBas/b3NRs8tLdxZwWs8VHVz00XmHRnn+2i3KbJq+/ejtbX72d3aF7VZfb5XarzecYFd++95epxQTuoS9Cha0pQSgqoX1j9pXX4KCIuK5V7oD0u/lDFRpg1tOfHVBZjUOfbLTpk402zZsUpnvPTtSxKe3bMxzwhn3Z2Vq2/HttSduqHTt3qbi4RGXl5bLbDz8Z314J8XEe+/z0by73YX7PHnTRBedp0+bGZM8PPvxYp516yiF9vl2yTM4ft2U6de7Jio7yXEmoNU6XWx+ts2nR4hxtyakxzo+M8tO9Zyfq3KPaTny02ZoqsXTHdmIZ23fo0SeeUnGxTXv37TWepyTFxETr8Uce0tjU1rdGAAAAAAAAGAxIAOgmOftzVVJikyQlJ49RUFDXJwF72p69+1pM/qemprR43NfXV6kpyQqzWpW2dZtqamq1adMWHTX9SKM6wGDnLG9aneqppH67xqusMto+we1PtPBptnLMWVkluVxtViPwCejeiS5LRJiGv/qUyj/5UsV/e0eOwsb92e15+Sp+8y0V/+ltBR87U5GXXaCACZ6rD/QntdUtS8IHBHf912rzUur+HdiP3L/ZKu2aw5Rp74/MHkqGt7WC3hP/wJ75J3DEuBD9+uUjjGOnw62nrlmvguwaOR0uffLGHl12t+efg5oKz9sNtMXtltxud5vJPEMCume/++Y/B83fh21pvq1Aa3rjNTjIrx3xeMPd7+7T3uLOV+C5cW5cr028hwdZdPeCRN04N06vfVOgpz/LVWm1Q1+mlenLtDKdON6qexcm6qTxbW87gf6tP71nJam8vFxPPvOc3vvgox4ZP6Cb96M/Ze7JevCRx1VbW6sly5Zr//7cQ6qOffzJZ0Z74YIzO3Ufh9Ot99aUaNHiHGNbD6lx4v++s4fp0tnRGmLx/Lu1qrrpb9vgDvxt25rKykqtXrOuxbmYmGjd/bvbdfKJJ8i/ncmzAAAAAAAAAxkJAN2gsqpKmZm7JUkx0dEampDg5Yg8q6mpVVbWHkmNH0yOHt36XpmxsTFqsNu1ffsO1dbWKitrr8aNY2WNJMnZrPxrN5Q0bTFJ1ZGlxh1clmwyd/9El8lsVtjZZ8h65imqXLZSZR9/3rgNwI/xHawKYD3jFMXedr18uvkDcW9x/6QaendUtu2lt4FXuTyUDDb0YOXwriQPdITZYtKC60bpjXsatwxZ/02hZi+I16iJbU+CNn+NkiaGtmu7gp/yNPHtKcGiM0zt/KaZ2zFx1BuvQV/3ZVqZNuyt9tyxFfOnRkgpnvt1p7BAi+46a6huPDlOr32Tr6d+TAT4Lr1c36WXa1ZyiO47e5jmTQrrlt+ZA13zbTpczvaVnZckp7MpgaY3q1L1p/dsdXW1LvvFNcrYvsM4d8Zpp+r44+Zo5IjhslpD5TfEz/g98sofXu9wooDZ3L2vfUhIsM4792y99Y9/SZI+/e8Xuv7aq43HD+Tl6YeVqyRJ1tBQzZ51TIfGb3C49a+VRXrk4/3KbFaRKCm6ceL/klntm/g/yN0Lf5wUFhbpt7+7Wz87Z6F+detNioqM7PF7AgAAAAAA9GUkAHSDvLx8uVyNs4C2UpuWLlvRZn+Ho+kD2Q0bNsnU7EPZ4+bM7pUPaUtsNqM9NCFeFkvbE8IJ8XHavTtLdrtd+3NzNWbMKPn6Hrr39mBjDgs1Vu27qjv/YfdBPqEhRttVVdNGz5ZcNU0rs8whwW2u/u9pJl9fhZ58nEJPPk4NOQdU/vnXKvvoMzkrGve1L//v/2TPK9CwFx7tkUSE3vbT1c51NU6FhHdtzMBm+97X17R/sqeupul3S/Mx+qK66q6t7O5vJhwdoeQjwrRrY5kk6cOXduu2145oMbH3U0GhvkYJ/COOj9Zx5w5tta+3Na+mUFfbvu9tfa3n93Z/eg1wKGugWXeeNVQ3nBynP36Xryc/yZWt2qEfdlXq9KfTNS0pWPefnaj5R0SojR+FQa/5CvLq6vb/bVBeXmm02b7p8P7817eMyf+AgAD9+fVXNX3aka32D+mGak/d4eyFZxkJAP9+731dc/WVxhZeX3+7xOh3ztkLFODfvqpPdXaX3lpRpEf/s1/7mlVwGBXjr/vPTtTFs6Ll24mkseCgptesuhv+Vp5x1HSlb16nispK7duXrWUrvtff3vqHqqqq9e/3PtCatev03jtvyxrKliMAAAAAAGDwIgGgGzRf2eJwOCW1f8LO4XS2WEXeG6tkJKm6qmPlOM1ms8LCwlRU1LhHfXV1jcLCKOHrGxujhpwDkqT6PTldHy8+1mjbi4rlqquTTzs+uLXn5jWNkdh3KlAMGZag6GsvV+Ql56n4b+/I9o/3JUk1G7eo8ptlCj31RC9H2HVBVl/5mE3GSuXCnFpFD+1adYOohKbveUFO+yd7ivY3JYJExPVeCdyOruCtqXSood7lueMAs/C6UXrm+g2SpP2ZVVr133zNmh/fav+IOD/tzWhsl+TVtdqvLwgJb0o4KTnQvliryz1vU9GfXoOesn7RFG+H0GXWQLPuOHOorj8pTn/8Nl9PfpqrkiqH1u+p0sLntmvysEDdd/YwnTM9QmYyAQ4R2mwic/eePe2+bndWltG2Wnvvb7b+9J599/0PjfbNN1zb5uS/1FhBqy+YPHGCJk4Yr63b0rU/94DWrtugo2ceJUla/PEnRr8zT5/ncayaBpf+sqxQj/1nvw6UNhjnx8T6676zh+miY6I6NfF/UJi16f1bYivt9DjN+fr6KjIiQpERETryiKlaeNZ8XXjpFbLZSrVn7z598OHHuurKy7rlXgAAAAAAAP2R95YJw6s6k2fgdg2+CTtPAiaNN9rVq9Z2uQa7f/IomQ5WVnC7VZexq13X1WzZZrQDp07sUgw9wScoUDE3XiXr6XONc1Ur17Z/gD48H+Q7xEcjxjVVbtixvusfbo8c1/Rhec6OqnatlHY53cpKqzCOk8b33so3X7+mf0ras/o7f1/XVwD2R4nJwTr69Djj+LM/7VVNZeuv16hJTRN23fG+6kkJSU2JZBW2BpWXNLTRu9GBLM/vg/70GsCz0ACzbj9zqPY8N03PXDRS0SGN/95tyanR+S/t0G//tder8fVVI0cMN9r79+cqLz/f4zXlFRXaui3dOB49OqlHYuvPKiurlF9QYBzPOGq6x2sObvnVF1z08/ON9meffyFJysrao7StjX8TjkoaqcmTPP9NeNpT6br5b1nG5H9ynL/euj5ZGU8eocuP7dyq/+aSkkYa7V27Mnsk2Tlp5Aj98hdXGMer1qzp9nsAAAAAAAD0JyQAdIPUlGSdMvekdn9FR0cb1844alqLx8y9VBLdd0jTas32lJN1OJwqKytrup7y/5KkoBlNK8Xqs/apevWGLo1n8vVVyInHGscVX3zr8RqHrUxVK1Ybx8GzZnQphp4UNLPp9XI2K03siY9f04p4R7GtjZ7eMfGYpr1mV3+Rrwqb58nPtgwfG6Kw6MYV/A67S1tWFHu8ZvvaUlVXNK6o9gswt5g47WkhYUOM9oHdnid1tyz3/HwGqtOuGGEkTFRX2PXl3/e12nf8zAijukL+vhpj+4C+KC4pSAFBTUWFtv5Q0mZ/h92ljDWef5b702uA9gvxN+s3ZyQo69kj9fuLmxIBagZhZZD2SB4zWhZL08/Xp5997vGaL778X4stpyaMH9cjsfVnLlfL5DqTh3I22Tk5WrdhY0+G1CHzTjlZfn6Nfyt8+t/PVVdXr+Xf/2A8fv5557ZrW7Hq+sbXISUuQG/fkKz0J47QpbOjZenixP9BSUkjjdc2bds2OZ3tr5TW0fscVFrKvxUAAAAAAGBwIwFgkLI2K8eZe+BAiw+JD+fAgQON2xWoccuAoKDAHo2vvwiYPF7+41ON47zHnze2BOisiAvPMdpln32lms1bW+/scqvwpTfktjdO/Ponj+r1CgDuhjoZxpEAACAASURBVPZPdtfv3mu0fWOjW+/4E5aoCKPtLCtvseVBXzDztDhZfBt/ndbXOPX249tVX9P5D7jNFpNOvCDROP7sT3vbTCqorXLo4z82lXqeNT9eAcG9t8NLYnLT/r7b15W2Waq9ILtGyxf3re9fbwqL9tPci4YZx8s+ylXensMnTUTE+euoU5q2BXnnmZ0qb7Yvc1sc9t6dSPUd4qNpc2OM4//9I7vN6gbff5LX5uMH9afXAB0X7G/Wbac3JgI8d0mSInvx91ZbVny/UgvOvcD4eur3z3s1nsDAQJ2z8Czj+MVXXlN6xvZW++/LztYzz71oHJ95+jxFR0X1aIz9UXBwSIttsHbsbL3qkt1u16LHnuyNsNrNarUa74uqqmpt2rxFX3/7nfH4aafMbe3SFlLiAvTPG1OU/uRUXTKr+yb+D5o6eZKRiFBVVa1t6RndOv5BPqam/9a6eijJAAAAAAAAoL8gAWCQiggPNz70rKmpVVraNlVVHToJ5XA4tHfvvhYfiiaNHNlbYfYLcbfdINOPK/McxSXad82vZPv3R7IXFrXs6HbLXlikyqXfK//xF1qd2PdPHaOIi841rtn/2wdU/sW3cv8kScNRVKIDi55RxVeNH/aazGbF/e7Wjm/I3kX5T76o3HsfU+W3y+UsKz9sH3dDg8oW/1e2f35gnAs+7ph238Nv1AiZw5pWtOc//XKr95Kr+0vLehIc5quF148yjnduKNOzN23UxiVFqq1q+X1zOd0qyK7R6s/z9ea921ot73/sggRjK4Cyonq98pstykorP2SXiZydVXr19i0qyG6s5BEe669TLhn+0+F6VOq0MPkFNFYvcTnd+tP924x4DnK53Nq2skSv/HaLnI7BPTF7ws8SFRrZWDXB7ZY+enV3q7uHzL8mSdYf+5bk1+n3N27Uqs/zjWoPB7ndje+TtO9L9P6LmVp0Se+XPz7pgkSjukFZUb1ev3urinJb7pdtb3Bp2Ue5Wvxq+8to96fXAJ0T7G/Wr06L12MXjPB2KJKkjO3blbF9h/EVEhLs+aIedsVllxhVAOrq6nXplVfrrX/8S4XN/tYoLy/X4v98qosu/YVRtclisej6a6/2Ssx9ndnso7knnWgcP/v8S9q5K/OQfpm7s3TtjbdoydLlLSox9AXnnr3AaC9dvkJr1q6XJM065mglJg5t1xj/uilFFx0TJbNPz/z9GBYWppnNtlf4fuWqHrkPAAAAAAAAmvStT7HQa8xms8aNHasNGzfJ6XSquKRExSUlCg0NVXBwkEwyqb6+XqVlZS1KdQ4flqjY2Jg2Rh58/MelKP6eXyvvkWfldjrlrKxS4YtvqPDFN2QOs8oSFipXg11OW6lcdU0rV5uX+v+p6OuuUMP+A6pavkqumlrlLXpGBc+9poCxyTIF+MtRWKy6nbtlzBqaTIr73a3yH5fS00/3EG6nS5XfrVDldyskSb5xMRoycpjMwcGS2y1HiU1123e1fO4nzFbw0Z732jX4+Cjy8gtU+OIbkqTqtRu1+/yr5D8uRZaIcLlqauUsLVNDbp6ir79SYQtO69bn2B7HLkxQQXaNVnzcWAGiILtGf1uUIZNJskb5yT/QrPo6l8qL6+VyNs32tjbxa7aYdPl9Y/Xa7Wkqyq1VQXaNXvzVZoXH+CluRJBMPlLh/loVN5tgDQr11dUPjVdgSOu/2resKJbTcehNG+qafs53by5TXfWhq7Pjk4IUN+LQ6h/+QRaddsUIffyHxioEB7Kq9cRV6zR0TLAiYv1VV+NUbmaVMWE749RY2Rtc2rik6JCxBgO/QLPmX52kfz61Q1JjwsiW5cWactyhK3RDI4bomkcn6o93bVVlaYMqShr0zjM79c4zkjVyiAKCLWqod6mytEH2ZuXTD07E96aIOH+de9No/fvZxoSxvekVevTytRqWEqywaD/VVTu1b3ul8V478qQYbfi20OO4/ek1wMCw6yf7vB8z0/tb66SmJOueO2/XQ488Lqlx//qHH31CDz/6hAICAjTE11flFRWHXPfgfXdrbGrqIefR6KorL9cnn/1XTqdLJTabzjrnfM06ZqaGDxsmh8OhjO07lLZ1myRp/LixuumG63TTrb/2ctRNpk6ZrLGpqdq+Y4feefc9uVyNvwN/ds4CD1f2rnPOXqAfVjVuV/XOv9/XL39xhYYMGeLhKgAAAAAAAHQWCQCDWFiYVdOOnKqMjB2qrKqSJFVUVKjiMB8g+/j4KHnMaCUmDvW4R+pgFHrqifKNi1H+ky+pfm+2cd5ZVt76SnVz65NTJl9fDX3kbhW9/neVvvOR3E6nXFXVql636ZC+vjHRir3jZgUfc1SXn0dnmENbroy05xfKnt/KpJ7JpPCfnaWYm6/ucKWCiPMXqiErW2WffilJctXUqmb95kM7tjaj3sNMJum8W8do6OggffrmXmOy++Cq5NauaetliIj11y3PT9G7z+7S1pWNe6qXFtartPDQ8UaOD9XFd6QqZlhAm3G+88xOj6XXv/5XzmHPL7h21GETACTphPMSVVHSoO/e2y+p8Xnv31Wl/buqWvSbPjdG5/0qWd+9e/h7DBbTT4nR0g9ylbu78fVZ/NpujZsZoSGHmbROTA7Wba8eofee36X01TbjfHlJg8pLDr81RHxS0GHP97RjzoyX0+HW4teyjBL8OTurlLOz6X1gtpg0/5dJOnZBgjZ+V9iuH9n+9Bqg/9u4qenflrjYWE2a2Ltb67Tm0osvVHBwsB5+9HFVVjb9TNXW1qq2tmW1jciICD10/z2ad2r7ysAPVuPGpuq5Z57Ub+64W3a7XS6XSyu+XylpZYt+s445Ws8+/bgsZrN3Am2FyWTSxReer/sfesSo5OXn56cTjz/ey5G1NO+Uk/XI40+pvLxcefn5+m7JMt6bAAAAAAAAPYgEgEHOarVqxozpKrHZZLOVqry8QnV1dXI6HfLz81NwcLDCw8MVEx0lPz8/b4fbpwVMnqCkt15V1ap1ql69QbWbt8pebJOrolKmIb4yh4XJb0SiAiaNV9Ax0+WfOqbN8UwWi2JuvEph809VxVffqeqHtbLnF8pVVydLRIT8U0YpeNYMhcw9Xj7+3vvexP76BoXOPV7VazaqLmOnGvYfkKOsXO7aOsliljkkRH5JwxUwZaJCT56jIcMTPQ96OD4+irvr/xQy9ziVf/6NatPS5ShpnAi0WK3yjY+Vf+oYBUwY243PruOOOTNeR54Uo83LirVjfalydlaqqsyuuhqn/PzNskYNUXxSkEZNsmrS7EijdH5rQiOG6JePTFDm5jJtXFKszE1ljQkFJiksyk9JE0M1eXaUxs2M6O3dH1owmaSF14/SESdGa/UXBdq9uUylRfVyO92yRvspaXyopp8Sq5QjwyRJMcMOn0gwWPj4mLTw+iS9enuapMbEju/ezdG8yw5fAj08xk/XPjZR2dsrlfZ9iXZtLJOtsE7V5XZZfH0UGjFEcSMDNXJ8qFKnhSsx2Xsly49dmKCx08O16vN8pa+2qSS/Tj4mk8Jj/TTuqAjNOC1WscMbv//xSUE6kHXo9jOH059eA/RfFZWV2ruvKZFvwVlnytxGwl5vO3vBfJ14/Bz994uv9MPK1crYvkOFRUWyWMyKiY7RxAnjNOvomZp36lwFBZEE0x6nzztV48eN1bvvf6TlK77Xvuwcmc0+iouN1dQpkzX3pBN1/HFzjPdBakpyi62xvO30eado0WNPym5vTDw868zT+8S2Fc0FBATo1puu1yOPPyW3263nX3pFJ55wHFUAAAAAAAAAeojJ7e6Z5bLZuQVGe/jQ2J64BQAAANBt1m3YqIsuvdI4Xvz+O5owfpz3AgI8cLvdmnfmQu3Zu0+S9Lc/v65ZR8/0clSHqq+v18Kf/Vy7s/ZIku6/9y5ddvGF3Tb+kqXLdc0NN0uSxqam6JOP3uu2sQEAAAAAAPqbvrOkCQAAAPCijIztRnvihPFM/qPP25aeYUz+x8XGasb0aV6O6PD8/Pz05GOLZLE0Vj566plnlbl7d7eNHxISYrR3ZWaqurp91WUAAAAAAAAGIhIAAAAAAElpW7cZ7Yt+fr4XIwHa57PPvzTa5/3sbFksfXeHtymTJ+l3v71NklRXV6/b77xXlZVV3TJ2akqysV2Z0+nSoseeUm1tbbeMDQAAAAAA0N+QAAAAAIBBz+12a+WqNZKkwMBAnT7vVC9HBLStqqpa773/oXF89oL5Xoymfa647BJdefmlkqSt29J1x133qqGhocvjBgcH6aYbrjWOP/hosY6ec5Kuuf5m3ffgIm3fsbPL9wAAAAAAAOgvSAAAAADAoHcgL1/5BQWSpIt/fr5CQoK9HBHQtr/+/W2VV1RIkuafebpGDB/u5Yg8M5lMuvP23+jiHytsfP3td7rvoUdkt9u7PPa1V1+lm2+8TmZz439xa2pqtGTZcr3z7vsqKCzs8vgAAAAAAAD9hcntdrt7YuDs3AKjPXxobE/cAgAAAAAGFYfDoY8+/kT3PvCwXC6XLBaLPl38nkaPGuXt0NrN5XLp1T+8oRdeflWSdOopJ+uZJx9TgL9/l8fOzsnR198s0br1G7RzV6aKiov10vPP6LhjZ3d5bAAAAAAAgP6ABAAAAAAA6KM+/uQzvfv+h4qJjlJdXb22pWcoLz/fePyuO36rq668zIsRAgAAAAAAoC+xeDsAAAAAAMDhVVVVac3adYd97KorL9OVl1/SyxEBAAAAAACgLyMBAAAAAAD6qIT4eE2cMF45OftVXVOj6KgozThqms49Z6FmHT3T2+EBAAAAAACgj2ELAAAAAAAAAAAAAAAABgAfbwcAAAAAAAAAAAAAAAC6jgQAAAAAAAAAAAAAAAAGABIAAAAAAAAAAAAAAAAYAEgAAAAAAAAAAAAAAABgACABAAAAAAAAAAAAAACAAYAEAAAAAAAAAAAAAAAABgASAAAAAAAAAAAAAAAAGABIAAAAAAAAAAAAAAAAYAAgAQAAAAAAAAAAAAAAgAGABAAAAAAAAAAAAAAAAAYAEgAAAAAAAAAAAAAAABgASAAAAAAAAAAAAAAAAGAAIAEAAAAAAAAAAAAAAIABgAQAAAAAAAAAAAAAAAAGABIAAAAAAAAAAAAAAAAYAEgAAAAAAAAAAAAAAABgACABAAAAAAAAAAAAAACAAYAEAAAAAAAAAAAAAAAABgASAAAAAAAAAAAAAAAAGABIAAAAAAAAAAAAAAAAYAAgAQAAAAAAAAAAAAAAgAGABAAAAAAAAAAAAAAAAAYAEgCAQa68okJXXXuDph89R48/9Yy3wwEAAAAAAAAAAADQSSQAAIPc0mXLtXzFDyqvqNCf//qWcnMPeDskAAAAAAAAAAAAAJ1g8XYAg43NVqr1GzYaxzOOmiar1dqpsSoqKrR1W7qqq2skSSeccJx8LZ37llZWVqqwqFg2m021tXWSpKCgQEVGRCg6OlpBQYGdGhd9n8PhbHHsdru9FAkAAAAAAAAAAACAriABoBc5HA5lbN/eLWPl5eUrPWO7XC5Xl8ZxOp3atStTOftzD3msvr5eNlupMndnaczoURoxYrhMJlOX7oe+5/jjjlXymNHalblbF194gRITh3Z5zLmnnaV92dla+8NShYWFdUOUAAAAAAAAAAAAADwhAaAXZWbuVk1NbZfGcDqdytydpezsnC7H43K5lJa2TUXFxca5IUOGKDQkRCaTSRWVlaqvr5fb7dauzN1qsNuVPGY0SQADTGREhD77+APV1dcrwN+/y+Pty87WvuzsbogMAAAAAAAAAAAAQEeQANBLioqLjVX2MTHRKiws6vAYdXV12paeIZutVJIUFmZVQ0NDp5MKsrNzjMl/i9mscePGKiYmWj4+PpIaEwQKCgq1ffsOOZxO7duXrdCQEMXFxXbqfui7TCZTt0z+S9K69Ru6ZRwAAAAAAAAAAAAAHePj7QAGg4aGBu3YsUuSFB8fp+Dg4A6PUVpaprXrNhiT/5EREZo6ZbIxWd9RDodDe/buM44nT5mkuLjYFuP5+PgoPj5OU6ZMNs7t3JUph8PRqXticFjx/UpvhwAAAAAAAAAAAAAMSiQA9ILM3VmqrW1cpT9ixHA5nc4OXe9wOJS2dZvq6uokSQkJ8Zo8eZJ8fX3ldLo6FVNpaakxkR8dFaXIiIhW+0ZEhGvEiOGSpPr6ehUXl3Tqnhj4auvqtGTZcm+HAQAAAAAAAAAAAAxKbAHQwwoLi5Sbe0CSNGpUkkKCg5XbwQQAi8Wi8ePHauPGzUoeM1ojRgyXyWSSpE6vxi+vqDTa0TFRHvsnxMdr377Gfd0LCgrZBqAfmzztaCMh5aesoaFat6r9E/hpW7dpW3qGdu7K1Lb0DKVt3Sa73W48ftSs41u99rhjZ+tPr7/arvuUV1Toy6++1pKly7VzV6byCwoUHhamUUkjNWfObJ11xumKjY1p9fr/ffOtbrzl14qLjdXy775SQ0OD3vzzX/Xeh4vV0NCgE46bo1tuul5xsY3v633Z2Xr+xVe04odVCgwI0Gnz5urG666R1Wpt3wsDAAAAAAAAAAAAeAEJAD2ovr5e23fslCSFhoZqxPDGVfROV8dX7UdFRuroo2co5CfbB3S0msBBDQ0NRtvfz/Pe78HBQfL391ddXZ1spTa5XK5Obz+AgeOJp5/VmrXrevQen33+pRY9+oRKbLYW5/MLCpRfUKAfVq3WCy+9ojt+82tddslFbY6VX1Cg8ooKPfv8S/rnO+8a5999/0Nt3LRZ7/7zLZVXVOjiy69SYWGRJKmsrEx//utb2rwlTW//9U+yWPi1CQAAAAAAAAAAgL6JmawetGPnLtXX10uSxo1NkcViliS5OpEAIOmQyf+ujNW8coDZbG7XNUFBgaqrq5PD4VRdXb0CAwM6dW9411/f/INKy8pUVlam0rJy7d6dpfc/XNypsa668jKds/As47iqqkqPPvG0cXzf3b9TYGDgYa+Nioz0HOvf324xXkBAgKYdOVVhVqvKysu1bv0G1dXVq66uXg8/+oSKiop1269uaXPMjz/5TP98511NnTJZ4eFhWrpshVwul3Zl7tZ/Pv1Ma9dvUGFhkaYfeYSCQ4K1bPn3crlcWr9hk5YuX6GTTzzBY9wAAAAAAAAAAACAN5AA0EPy8vJVUFAoSRozepRCQ0ONxzo7af9Tbre709f6WnyNtsPZvm0EmsdttzdIIgGgPzryiKktjtMztnc6AeCnk+ElNluLCfsF889QWFhYp8b+YdVqYyyLxaK7f/dbnfezcxTg31Sxora2Vn9/+1965rkXJEmvvf6mJk+eqLknndjquIsefUK/u/02/fIXV0iS/vvFV/q/226XJL3w8quy2Ur17FOP66z5Z0iS/v3eB7r3gYclSUuXkQAAAAAAAAAAAACAvosa7j2gtrZWO3bukiSFhVk1YsTwFo93Yd6+2wQENE2iVlZUeuxfV1en0tIy49jh6NzWA0B72O12Y9Jdkp5+4lFddslFLSb/pcaKANddc5Vuuel649wzz77Y5tYYVqtVV1x6sXF82qlzFR8XJ0my2Uo146jpxuS/JJ1x2jyjnbF9R+efFAAAAAAAAAAAANDDSADoZm63Wzt3Zsput8vHx0djx6bKx6fvvczNV2Xvzz0gu93eat+D5dGbc6sPZDFgwFq24nvl5OyX1Fix4MzT57XZ/7KLL5LZ3PhztjsrS+s3bGy179Ezj5Kvb1MFDB8fH02bdoRxfOLxc1r0DwkJVkJ8vCRp777sjj0RAAAAAAAAAAAAoBf1vZnpfu5AXp4Ki4okScljRiskONjLER2e1RqqsDCrpMbV/du2Zai+vv6QfnV1ddqWnqH8/IIW580+5l6JE4PT1998Z7Tnn3GaTCZTm/3Dw8M0Yfx443jDxs2t9h0+bNgh52Jjoo32Tyt2SFJERLgkqaqqqs04AAAAAAAAAAAAAG+yeDuAgaS6ukY7fyz9HxkZocTEoV6OqHUmk0ljx6Zq7dr1cjqdKiouVunKUsXExCgwIECSVFVdrcLCIrlcLqWmpmj//v2qrq6RJGO1NdATVq1eY7RTkpPbdc3QhARtSdsqSdqfm9tqv4jwsEPODfEdYrTDw8MPfXxI4+MOh0Mul6tPVvUAAAAAAAAAAAAASADoJi6XSzt27pTD4ZTFYlZqSkqfnyQMCQ7WtCOnKm1rumpra+VwOHXgQN4h/ZKSRipxaIIym20DYDbz1kHPqK2r0/7cA8bxpVde3eExSsvKWn3Mz8+vzWv9hgxp83E3u18AAAAAAAAAAACgj2IWt5vk7M9VSYlNkpScPEZBQYFejqh9rFarjp45Q4WFhSqx2VRRUaGG+gYFBAYqzBqquLg4hYVZ5XA45HQ6jes8TaICnVVdXd3lMex2e6uP+fr6tnmt2cz2FgAAAAAAAAAAAOifSADoBpVVVcbq+JjoaA1NSPByRB1jsZiVkBCvhIT4VvvU1NQY7dDQUFksTJKiZ7icrhbHC886U8HBwR0aY1TSyO4LCAAAAAAAAAAAAOgnSADoBnl5+XK5GictbaU2LV22os3+DofDaG/YsEmmZlsFHDdndp/cOqCqqmlVtjU0xIuRYKALDg5qcfzLq67U2NQUL0UDAAAAAAAAAAAA9B99b6a5H3I32xTc4XDKbre3+dWiv9PZ6mN9SWFhkdGOiIzwYiQY6AIDAxUZ0fQey8vL92I0AAAAAAAAAAAAQP9BAgA8qq6uUVFxsSTJYjYrIpwEAPSs4+bMNtpr12/wYiQAAAAAAAAAAABA/8EWAN0gNSVZqSnJ7e6/aXOaiooaV9TPOGqarFZrT4XWZW63W7sydxvHw4YPk8Vi9mJE6Mv8hvi1OC4rr1BYWFiHxzn5xBP00cefSJLefe8DXXfNVbKGhnZLjAAAAAAAAAAAAMBARQUAtOrg5P/BZAU/Pz+NHDHcy1GhLwsKCmwx4b8tPaNT45x80glKGjlCklReUaEHHnpEDQ0N7brWbrd36p494Y9v/FkLzr3A+Pr8y6+8HRIAAAAAAAAAAAAGMBIABjm3233IOZfLpbKycm3ctFn79mVLkkwmk8aPHyuLhaIRaJ3JZNJJJxxnHD/z3AvK3J112L4ul6vVcSwWi5549GGZzY2/oj77/EtdcdW1+mHlKtXV1bfo63A4tC87W5/+9wvdfuc9uveBh7vhmXSP1WvXKmP7DuOL7TMAAAAAAAAAAADQk5jNHeQ2btosHx+z/P2GSJLqGxpUVlbeYrW1yWTS5EkTFRUZ6a0w0Q1KbDZt2LjpkPM5OblGu8Fu1/+++faw1x87e5YC/P093ueySy7S4v98KpfLpf37czX/7J9p+rQjlTg0UfUN9SovL9fefdk6ZuYMPfrwA62Oc+QRU/XMk4/r9jvvkcPh0LoNG3XF1dfJ19dXiUMTFBAQoMqqKuXl5cvhcBjXzT/zdI8x9ga32620renGcUBAgKZMnuTFiAAAAAAAAAAAADDQkQAwyDmdTpWU2Fp9PDoqSmOSRys4KKgXo0JP2Ls3Wzfe8us2+9TW1rbaZ9m3XyogLs7jfSZOGK+nHn9Ed95zvxwOh5xOl1avWafVWtei38yjpnsca/4Zp2loQrweXPSY0jO2S2os8b9n777D9vfx8dGokSM9jtsb8vLzVVZWZhyfcdo8+fv7eTEiAAAAAAAAAAAADHQkAAxy4eHhcjqcqqtvLKseEBAgf38/hYeFKTw8TCEhIV6OEP3RwrPO1ORJE/XBR4u1cuVq7cvOUU1traIiIxUfH6cJ48fpxOOP8zyQpCOmTtFH7/1LK35YqeUrftD6DRt14ECeyisqFBwcrOGJQzV2bKqmHTFVs2YdrbjY2B5+du2TlbW3xfG8U072TiAAAAAAAAAAAAAYNEzuw20C3w2ycwuM9vChfWNCDgB6yxt/+oue+v3zkqSwsDAt//YrKgAAAAAAAAAAAACgR/l4OwAAGIg2p2012hecdy6T/wAAAAAAAAAAAOhxJAAAQDdzuVxau269cbzwrDO9GA0AAAAAAAAAAAAGCxIAAKCbZefsl81WKkk6dvYxSkke4+WIAAAAAAAAAAAAMBiQAAAA3WxbeobRvvTiC70YCQAAAAAAAAAAAAYTk9vtdvfEwNm5BUZ7+NDYnrgFAAAAAAAAAAAAAAD4ERUAAAAAAAAAAAAAAAAYAEgAAAAAAAAAAAAAAABgACABAAAAAAAAAAAAAACAAYAEAAAAAAAAAAAAAAAABgASAAAAAAAAAAAAAAAAGABIAAAAAAAAAAAAAAAAYAAgAQAAAAAAAAAAAAAAgAGABAAAAAAAAAAAAAAAAAYAEgAAAAAAAAAAAAAAABgASAAAAAAAAAAAAAAAAGAAIAEAAAAAAAAAAAAAAIABgAQAAAAAAAAAAAAAAAAGABIAAAAAAAAAAAAAAAAYAEgAAAAAAAAAAAAAAABgACABAAAAAAAAAAAAAACAAYAEAAAAAAAAAAAAAAAABgASAAAAAAAAAAAAAAAAGABIAAAAAAAAAAAAAAAAYAAgAQAAAAAAAAAAAAAAgAGABAAAAAAAAAAAAAAAAAYAEgAAAAAAAAAAAAAAABgASAAAAAAAAAAAAAAAAGAAIAEAAAAAAAAAAAAAAIABgAQAAAAAAAAAAAAAAAAGABIAAAAAAAAAAAAAAAAYAEgAAAAAAAAAAAAAAABgACABAAAAAAAAAAAAAACAAYAEAAAAAAAAAAAAAAAABgCLtwMYbGy2Uq3fsNE4nnHUNFmt1nZfX1FRIZutVKWlZaqprVFDg13+/v4Ks1oVFRWhyMhI+fh0PK/DbrerqKhYhUXFqq2tUX19g4KCAmW1WhUbE92hGAEAAAAAAAAAAAAAvY8KAL3I4XAoY/v2Tl1bWVWlzVvStHrNOu3K3K3ikhLV1NTK4XCoqqpK+3NztWlzmtat36jq6poOjV1aWqY1a9dpW3qGioqKVFVVLbvdkDUovAAAIABJREFUrrKycu3bl601a9drx85dcjqdnYodfddnn3+p5PFT9OzzL3k7FK956JHHlTx+ipYuX+HtUAAAAAAAAAAAAIAuIQGgF2Vm7lZNTW2HrztwIE9r1qxTYWGRcc7X11cREeGKjo5WQECAcb68vFwbN21WbW377lNRUaENGze1iCskJESRkRHy8/MzzmVn52jHzl1yu90djh9918pVq70dgle53W598+0Sb4cBAAAAAAAAAAAAdAu2AOglRcXFytmfK0mKiYluMZnfFpfLpcLCIrlcLklSdFSURowYLqs11Cj173a7VVRcrPT07bLb7aqtrVXm7ixNmjihzbGdTqfStm4zxo6KjFRqaooCAwNa3Ds9Y7ucTqdycw8ozGpVQkJ8p14D9C0ul0vffrfU22F4VdaePcrLz/d2GAAAAAAAAAAAAEC3oAJAL2hoaNCOHbskSfHxcQoODm73tT4+PpowYZysVqsmTZygqVMnKzw8zJj8lySTyaSY6GiNHz/WOJefX+CxCkB+foGx8j84OFiTJk00Jv8P3jsuLlYTJ4w3zu3Zu5etAAaInbsyVVRc7O0wvGrtug3eDgEAAAAAAAAAAADoNiQA9ILM3VnGZPyIEcM7PIHu6+uro6Yfqbi42Db7RUdFtZjAr6ysarP/wYoEkjR6dJIsFvNh+8XERCsyMkKSVFNTK5vN1t7Q0YetXrPW2yF4ldvt1vIV33s7DAAAAAAAAAAAAKDbsAVADyssLFJu7gFJ0qhRSQoJDlZuJ1bQm0ymdvUJDQ01VvU32Bta7VtbW6vKykpJksViVmRERJtjx8fFqaSkceK/pMSm6Ojo9oaOPqCislKrVq9VZmamMrbv1OYtaS1K37/2+pt67fU3W73+nbf/pmlHTvV4H4fDoW+XLNN3S5Zq85Y05R7Ik7+/nxITEjRr1tE6fd6pGj9ubJtjFBQUav4556usrEyS9Ntf/5+uu+aqNq+pra3VuRdcrMzdWZKk8849W48/8lCLPrm5B7R+40bt3JWpjIwd2rwlTeUVFcbjv7zupjbvkb55nXx9fdvsAwAAAAAAAAAAAHgTCQA9qL6+Xtt37JQkhYaGasTw4ZIkp8vVY/dsnijQVtJARUWl0Y4Ij5DZfPjV/weFhIYY7YLCIqWmprQrKQF9w7b0DN106697/B533/eg0jO2tzhfU1Mjm61UW7Zu0x9e/5MuvOA83X3n7Qrw9z/sOLGxMXps0QO68ZbGeJ978SXNOXZWm4kDL7z8qjH5P2L4cN39u9sP6bP4P5/q+Zde6ezTAwAAAAAAAAAAAPo8EgB60I6du1RfXy9JGjc2xSix7+rBBICDq/8lyc/Pr9V+B7ckkKTgkGCP4wYGNG0t0NDQoIaGhjbHR98ycsTwQ1bE//eLL7V8xQ+SpOPnHKvT5p3S6vXDEoe2Of7adev1y+tvVk1NjSTJx8dHUyZPUkJ8nOrrG7R5S5qKioslSe+8+7727cvW66+9LH//w7+HTjn5JF14wXl659335XS6dOc99+vdf7512P6r16zTn/7yd+O+Tz/xiEIO856eM2e2YmNjWpx74aVXlV9QIEm6/NKLNW5saqvP0VOSDAAAAAAAAAAAAOBtJAD0kLy8fBUUFEqSxowepdDQUOOxnkoAaGhoUHl5uXEcGhLSat+a2uaJAkM8ju3j46OgoEBVVzdO8NbV1ZEA0I/Ex8XpvHPPbnEua89eIwFg/LixhzzeXkVFxbr5V78xJv8vvvAC3XzjdYqOijL6uFwuff3tEt15z32qrKzSytVr9PxLL+vO23/T6ri/++1tWrN2nbL27FXG9h36w+tv6le3tizTX1FZqTvvvd84/r9bbtQRU6ccdrzJEydo8sQJLc79/e1/GgkAx82ZrePnHNuxJw8AAAAAAAAAAAD0IT7eDmAgqq2t1Y6duyRJYWFWjRgxvMXjbnfP3Df/x4QDSYqLi9WQIa1P7NfX1RvtIb6eEwAkKcC/WRUAu70TEWIgeu7Fl2WzlUpqnPx/6P57Wkz+S40JJKfOPUkvPfeMce4vf3tbOTn7Wx03ODhITz/xqHx8Gn9NvfKH17Vx0+YWfZ7+/fPavz9XkjTjqOm65qoru+MpAQAAAAAAAAAAAP0SCQDdzO12a+fOTNntdvn4+Gjs2FRjArMn1dXVKStrj3E8fFhim/0dTofRNvmY2nUPs6WpBLrL2XPbGKD/KCgo1IeLP5bUuOXErTff0Gb/2bOO0dQpkyU1VgX47PMv2+w/edJE3fZ/txjHd95zv1Fp4Lsly/TOu+9LkgIDA/XEIw/J19e3088FAAAAAAAAAAAA6O9IAOhmB/LyVFhUJElKHjNaIcGH7kXe3Vwul3bs2CX7j6vyhw9LlNVqbfMap8NptH1M7XsbNE9kcDqdbfTEYPH9ylVy/pgMcsLxcxQZEeHxmllHzzTaK1et9tj/6l9crpkzpktq3LbguRdfUYnNpnvuf8jo88iD92mYh6QXAAAAAAAAAAAAYKAjAaAbVVfXaOePpf8jIyOUmDi0V+6btWevkXQQHBysUaNHebymh3YhwCCzeUua0R4/bmy7romJiTbamVlZHvtbLBY98cjDCg4OkiT99e9v65rrb1ZRcbEk6ZyFZ+ms+Wd0JGwAAAAAAAAAAABgQLJ4O4CBwuVyacfOnXI4nLJYzEpNSemV0v8HDuRpz569kiRfX19NmjhBvhbP31Zf36Y+Lnf7yvm7XE39zGZzGz0xWOzdu89oP/fCy3ruhZc7dH1JSYncbrdMpra3oUhMHKqH779Xt91xlyQpbes24/w9d97ewagBAAAAAAAAAACAgYkKAN0kZ3+uSkpskqTk5DEKCgrs8XuWlNiUnrHdOJ44cbyxStoTi7kpAcDtal89gBbbBph560CylZZ16Xqn0yVXO99/Z80/Q6fOPanFuUUP3OdxuwsAAAAAAAAAAABgsKACQDeorKpSZuZuSVJMdLSGJiT0+D0rKiq0ZUua3O7GydMJ48cpKjKy3df7+fkZ7QZ7Q7uuqauvM9q+Ft923wsDl9PpMNqzjp6ppKSRHR7Dw+J/Q1FRsdZv2NTi3JJly3Xs7GM6fE8AAAAAAAAAAABgICIBoBvk5eUb5fFtpTYtXbaizf4OR9Ok6YYNm2RqtlXAcXNme9w6oKqqWps2p8nhbFyRnzxmtBIS4jsUc2BggNGur/ecAOByuVRdXWMc+/v7tdEbg0VERLjRPv20U3XhBef1yH1cLpfuffBhldhsLc7/7a1/aM6xs3T8nGN75L4AAAAAAAAAAABAf0Id925wcBW+JDkcTtnt9ja/WvR3Olt97HBqa2u1ecsW1dfXS5KSkkZq5MgRHY45oFkCQFVllcf+NTW1RmwWs7lFBQEMXolDE412zv7cHrvPP995V99+t/THeybowfvuNh67654HVFxS0mP3BgAAAAAAAAAAAPoLEgD6kfr6em3anKaamlpJ0vBhiRo9KqlTY1lDQ422zWaT88dqAq2prKw02tEx0TK1t247+qzu+B5On3aE0V7x/Q9dHu9wduzcpceefMY4fuLRRbrkop9rwfwzJUlFxcV64KFHjCocHcH7GAAAAAAAAAAAAAMJWwB0g9SUZKWmJLe7/6bNaSoqKpIkzThqmqxWq8drHA6HtqRtVVVV42r9oUMTlJw8ptMTmH5+foqMjFBJiU0Op1MlNptioqNb7Z+Xl2+0oyIjO3VP9C0B/v5G+6el9dtr1jEzZTb7yOl0KT1ju9at36Dp047srhBVW1enO+66V3a7XZL0y6uu1MwZ0yVJ99x5u1atWaPCwiJ99fW3eu+Dj/Tz83/WofEDAwONdmlpWbfFDQAAAAAAAAAAAHgDFQD6AYfDqbS0bSorK5ckxcbGaGxqinx8uvbtG5Y41GhnZe1ttQpAYVGRMUE8ZMgQRUWRADAQxMXFGu31GzbJ4XB0eIyE+HhdcF7TpPs99z+koqLidl17cFK/LS++9KrSM7ZLaky0ufXmG4zHIiLC9diiB43jRY89qd1ZWe2MvFHzn4FNm7d06Nr2+OMbf9aCcy8wvj7/8qtuvwcAAAAAAAAAAABwEAkAfZzL5VJ6Roaxx3lERLjGjU2V2+2W0+n0+OV2u1sdOzIy0qg+UFlZqa1b01VbW9vi3gUFhdq2Nd04lzRyhCwWCkcMBEdMnWy0d2dl6eXX/tjqpHxb76P/u+VGJQ5NkCRl7dmr8y68VB9/8pnKy8tb9HO5XCosLNKSZcv1xNO/16lnLGgzvhXfr9Sbf/mbJMls9tHjjzzUomqBJB0/51hdctHPJTVukXHHXfepoaGhzXGbO1hNQJL+9e/39M13Sw7brzPbC0jS6rVrlbF9h/EVER7RqXEAAAAAAAAAAACA9jC525rZ64Ls3AKjPXxobBs9B5+ObAGQn1+gtK3bOn2vlJRkjRg+rNXHq6trtHbd+hYTv1arVb4Wi6qqq1VXV2ecj46O1uRJE7pceQB9x62/vr3FqvTEoQmaOGGCAoMCVVVVpfy8fGXt3asP//1PJSWNbHWc7Tt26prrb1Z+QUGL84lDExQaGqra2lrlFxS2SDAJCAjQlvWrDjteic2mBedeoMLCxp+T3/zqVl1/7dWH7VtVVa1zzr9Qe/dlS5Juuv5a/erWm9rx7BuvPWPBucrLb9riYtzYVGNLj/KKCh04kKeKikot+/bLdo15kNvt1ozZJ6isrHFrgYCAAK35fqn8/f06NA4AAAAAAAAAAADQXizl7uN6KD/DEBQUqGlHTtW2bRmqrKqSpENWbkvS0IQEpaSMYfJ/gHn4gXtUVFysdes3SJL25x7Q/twDHR5nbGqK3n/nbS16/El9+dXXxvn9uQekVsabMH7cYc+73W49+PBjxuT/kUdM1dW/uLzVewcHB+mJRxfpwkuvkCS98ofXNXvW0Tpq+jSPcQcHB+m1l5/XtTfeYtzv4Gr95iIjOr5yPy8/35j8l6QzTpvH5D8AAAAAAAAAAAB6FAkAUEhIiKZNP1LFRcUqLCpSdXW1GhrsCgwMlNUaqtiYGIWFtV6lAP1XWFiY/v7n1/Xl/77Rl199rS1pW1VUXKzAwEBFRUZq9OgkTRg/ThGRnifAY2Nj9PLzv9e29AwtWbpcK1evVk5OroqKi+Xv76e42FilJI/REVOnaOaMozQ2NeWw47z/4WJ98dX/JEl+fn56fNGD8vX1bfPe046cqhuu/aVee/1NSdIdd92rxe+/02Z1jYMmjB+nzxa/r8X/+VTfLV2uXbsyVVpWpvCwMEVFRWrc2FRNmTzJ4zg/lZW1t8XxvFNO7vAYAAAAAAAAAAAAQEewBQAA9IA3/vQXPfX75yU1Jlos//YrKgAAAAAAAAAAAACgR1HPHQB6wOa0rUb7gvPOZfIfAAAAAAAAAAAAPY4EAADoZi6XS2vXrTeOF551phejAQAAAAAAAAAAwGBBAgAAdLPsnP2y2UolScfOPkYpyWO8HBEAAAAAAAAAAAAGAxIAAKCbbUvPMNqXXnyhFyMBAAAAAAAAAADAYGJyu93unhg4O7fAaA8fGtsTtwAAAAAAAAAAAAAAAD+iAgAAAAAAAAAAAAAAAAMACQD/z96dh0dV3X8c/2SSANlDdrYEErKQsG9aAesKivu+L7W1i61VWyvu4oKi1qVarbVaq3bxZ61btSIoiivIFhIgC1mA7NuQhEkmyWRmfn8ELhmyTUiGwPh+PQ/Pc86955x77kwS/vh+zzkAAAAAAAAAAAAAAHgBEgAAAAAAAAAAAAAAAPACJAAAAAAAAAAAAAAAAOAFSAAAAAAAAAAAAAAAAMALkAAAAAAAAAAAAAAAAIAXIAEAAAAAAAAAAAAAAAAvQAIAAAAAAAAAAAAAAABegAQAAAAAAAAAAAAAAAC8AAkAAAAAAAAAAAAAAAB4ARIAAAAAAAAAAAAAAADwAiQAAAAAAAAAAAAAAADgBUgAAAAAAAAAAAAAAADAC5AAAAAAAAAAAAAAAACAFyABAAAAAAAAAAAAAAAAL0ACAAAAAAAAAAAAAAAAXoAEAAAAAAAAAAAAAAAAvAAJAAAAAAAAAAAAAAAAeAESAAAAAAAAAAAAAAAA8AIkAAAAAAAAAAAAAAAA4AVIAAAAAAAAAAAAAAAAwAuQAAAAAAAAAAAAAAAAgBcgAQAAAAAAAAAAAAAAAC9AAgAAAAAAAAAAAAAAAF6ABAAAAAAAAAAAAAAAALwACQAAAAAAAAAAAAAAAHgBEgAAAAAAAAAAAAAAAPACJAAAAAAAAAAAAAAAAOAF/IZ6At83ZvMebdy02ajPnTNLYWFhbvdvbGyU2bxHe/bUq9narLY2m0aMGKHwsDBFRUUoMjJSJtPA8joqK6u0PSdXdrtdkRERmjlz+oDGAwAAAAAAAAAAAAB4HgkAh1F7e7tycnMPqe9ei0VFRcWqrq7pcs9ischisai0rExhYWHKSJ+koKDAfj/DbrersKhYu3btPqQ5AgAAAAAAAAAAAACGDgkAh1FBQaGam6397ldeXqGc3Dw5HA7jmr+/v0JCguXr6yeLxSKrtWPchoYGbc7colkzpysgIMDtZ7S2tmrb9hzV1Zn7PT8AAAAAAAAAAAAAwNAjAeAwqamtVUlpmSQpJia625X83XE4HKqurjGC/9FRUUpIiFdYWKix1b/T6VRNba22b8+VzWaT1WpVQWGRpkzOcOsZ9fUN2rptu5FEEB0drZoa9+YHAAAAAAAAAAAAADgyDOyweLilra1NeXk7JEmjRsUpODjY7b4mk0kZGZMUFhamKZMzNH36VI0cGW4E/yXJx8dHMdHRSk9PM65VVlYZAf3elJaVacPGTUbbhIR4pSRPdHt+AAAAAAAAAAAAAIAjAwkAh0FBYZFLgN1ut/erv7+/v+bMnqm4uNhe20VHRSkw8MC2/3v3WnptX1/foJycPDmdTklSSkoywX8AAAAAAAAAAAAAOEpxBICHVVfXqKysXJKUmDhBIcHBKutnAoDUscrfnTahoaFqbu5INmiztfXaPjw8TImJE7R7d4mmTMlQVGSkJBnHDcD71JnNOnb+iZKk3978a/38pz+W1PGdf7t2nd7774fKyc3Trt0lGhkernHjxmjunNn64YL5mjZ1Sp/j19TWasXHq/TFV1+rsKhYNTU1ioqMVFJiok484XidvmihIiJGdtv3n2+8qfseWCZJeuG5P+jkE0/o0uaNN9/SPUsfNOpffrZScbFdE2OW3HmP3n73fUnS5u++UXBwUJ9zBwAAAAAAAAAAAI52JAB4UGtrq3Lz8iVJoaGhSoiPlyTZPRhg75wo4E7SwITxCYqLjVVQUKBxzSmnR+aGI0tNba0kqb6+Xr+97U598dXXLvetVqvKKyq07rsNqqsz95oA4HQ69fo/39ATTz2j5uZml3ulZeUqLSvXmi+/0lN/+KPuXHKrzj/vnC5jpKQkG+XCwqJuEwAyt2S71HPz8rtNANiStVWSlJqSTPAfAAAAAAAAAAAA3xskAHhQXv4Otba2SpImpaXIz89XkmdX2O9f/S9Jw4cP77O9yWRyCf5LkpwkAHwf1NTUqqmpSdf/4kZlbskyrptMHSeDdP45PX7BvB7HcTqdeuiRx/Ta3/9pXPP399fsmTMUETFSe/bUa+PmTLW2tqqhsVFL7rpXZeUVuvGXP3cZJzkp0Sjn7yjo9lnfrl3nUt++PUcnHL/A5VpTU5MKi4okSdOnTe1x3gAAAAAAAAAAAIC3IQHAQyoqKlVVVS1JmpiUqNDQUOOepxIA2tra1NDQYNRDQ0I88hx4h4rKSi1//EllbslSUmKibvj5TzR3zmxFR0XL6XTIbN6j3Px8ffnVN5o9c0aP47z97nsuwf9bbvqVrr7icpeV91arVW+8+ZaWP/6kHA6HnnnuT0pKStTi0xYabcLCwjQ+IV47d+1W9tZtXZ5TWVWl8ooKSdJJJ/5Qqz9bo82dEhf2K965yyhnpE/q34cCAAAAAAAAAAAAHMVIAPAAq9WqvPwdkqTw8DAlJMS73PfUAvvKfQkHkhQXF6thw4Z55kHwCplbspS5JUunnHSinnjsYQUGdt4JwqSYmGjFxETr+Pk9r/5vaGjQA8seNer33HW7rr7isi7tAgIC9KNrrlJ4eLhuu+NuSdLd992veccdq7BOyTEzZ87Qzl27VVS8U01NTQoKOpBEsH17riQpJiZai049Ras/W6Pv1m+U3e6Qr6/JaFdUXGyUU5IPHCsAAAAAAAAAAAAAeDtT303QH06nU/n5BbLZbDKZTEpLSzW2VPeklpYWFRUdCHzGjxvr8Wfi6BcdFaXly+4/KPjvvvc/+J+am5slSWmpKbri0ot7bX/u2Wdq9qyZkqS9ey16778futzPmJRmlHftLnG5l7V1qyRpxvRpSk3pCOw3Nzdr566dLu06Hx8wcWKiAAAAAAAAAAAAgO8LEgAGWXlFhapraiRJyROTFBIc7PFnOhwO5eXtkM1mk9QR/A8LC/P4c3H0u/KKSwf0s/LJ6s+N8vnnni1fX99e2/v4+OjC888x6h999LHL/dSUFKPceSt/Sdq4abMkKX1SmhITJxir/nPzdri0y8nJkyQlJSa67C4AAAAAAAAAAAAAeDsSAAZRU1Oz8vdt/R8ZGaGxY8cclucWFe80kg6Cg4OVmMSqZ7hn7pzZh9y3ra1N6zdsNOqTM9Ld6peRfqDdpswtampqMuqdV+zvKDiwkr+lpVUbNnYkAKSmJCtgxAhlTJokScretzOA1LEDx5asbEnSjOlT+/M6AAAAAAAAAAAAwFGPBIBB4nA4lJefr/Z2u/z8fJWaknJYtv4vL69QcfFOSZK/v7+mTM6Qv5+fx58L7zAqLu6Q+5r37DF2nZCk0aNHu9Vv9OhRRtnhcKi6usaoR0ZEaOyYjnHy8w8kAOwoKFB7e7ukjpX9kjR9WkeAf9PmLUa7yqoqNTQ2SpIy0if1630AAAAAAAAAAACAox0JAIOkpLRMdXVmSVJy8kQFBR3amer9UVdn1vacXKM+eXK6goODPP5ceI/AgIBD7muxNLnU3R3r4HZ7LRaX+swZMyRJmVlZxrVt23MkScHBQRo3dqykAwH+rOxsWVtaJMlIhpE6dgoAAAAAAAAAAAAAvk9IABgEey0WFRQUSpJioqM1xs2V0APR2NiorKxsOZ1OSR3B0KjISI8/F97Fx2fw+u7/WexLX+32B/ZrampVX18vScrc0rGt/9w5s+Xr2/Fna9KkNEmS3e7Qjn2/fwWFRcY4yROT3JoPAAAAAAAAAAAA4C3YK34QVFRUyuFwSJLMe8xa88VXvbbfv5W5JG3alCmfTkcFHL9gXp9HB1gsTcrckq12u11SR6Cz87bqwOEQHBTsUt+/Cr8vzVarSz0k2HWc1JSJRrmktEzh4eHasm83gJnTpxv3khInyN/fXzabTfn5OzR1coaRCDA+IV7h4eHuvwwAAAAAAAAAAADgBdgBYBB0XtHc3m6XzWbr9Z9Le7u9x3vdsVqt2pKVpdbWVknShAnjNX58gideC+hVZGSEAjpt519WVuZWv4qKCqNsMpkUHR3tcn9i0oGV+7tLStXU1GSs7J8yOd24N2zYMM2a2ZEQsP8ojPwdBZKkmTMOJAoAAAAAAAAAAAAA3xckABxFWltblbklW83NHSuo48eNVVLihCGeFb6v/Pz8NO8Hxxr1rK3b3OqXvXW7UZ46ZbKCg4Nc7sfGxig6OkqStGv3bhUV7zTupaWmurTdvyNA5pYsORwO5eTmSTpwjAAAAAAAAAAAAADwfcIRAIMgNSVZqSnJbrfP3JKtmpoaSdLcObMUFhbWZ5/29nZlZW+VxWKRJI0ZM1rJyRPlM5BD3IEBWrTwFH2y+jNJ0tvvvKdrr7pCfn49/1lxOBx6+533XPp3Z/bMmfro45UqLS0zEgAmJiUqImKkS7vJ+3YE2J6To4rKKln3HS+QmpJyyO8EAAAAAAAAAAAAHK3YAeAo0N5uV3b2NtXXN0jqWCGdlpoik4mvD0Nr0cJTFBPTsYX/joJCvf6Pf/Xa/t33P9CGTZslScOHD9d555zVbbvJGR0r+EtKS5WXv0OSNHfO7C7t0vYF+u12h9at+864PnFiYr/e46uvv9XZ519s/Hvsiaf71R8AAAAAAAAAAAA4EhBBPsI5HA5tz8lRbV2dJCkiYqQmpaXK6XTKbrf3+c/pdA7xG8CbBYwYoUceut+oP/zo7/Xcn16UxdLk0s7a0qJXX/+H7rj7PuPa3XfcpsiIiG7HTU3tCOwXFhVr2/YcSdK0KZO7tBszZrSxK8CaL7+SJI0dO6bHcXuSk5urnNw8419ISHC/+gMAAAAAAAAAAABHAo4AOMJVV9eoqqraqJvNe/T5mi/d7p+SkqyE+HGemBogSTp+/jzddfvvtGz545Kkp599Ts+98KJmz5yhyMgI1Tc0aMPGTWppaTX6XHn5pbr4wvN7HHNiUpIkqaamVnV1ZklSevqkLu1MJpPmzp6tFStXacXKTyRJs2ZM7/c77CgodKn/4Ji5/R4DAAAAAAAAAAAAGGokABzhWMGPo8G1V1+p6OhoPbhsuerMZtlsNn3baUv+/QICAnTrLb/WVVdcJh8fnx7HGz0qTuHh4aqvr5fD4dCIEcOVlDih27bTp03VipWr5HA4JEmTM9L7Pf/NmVuMclxsrKZM7rrbAAAAAAAAAAAAAHCkIwEAwKA44/RFmj/vB/poxUp9+tnnKigoVE1tnaKjIpU4YYJ+ePx8nb5ooaKjo/ocy8fHR3NmzdSqT1dLkubOni1/f/9u22YctDNASkpyv+bduHevdu7abdTPPusM+fpyOgoAAAAAAAAAAACOPj5ODy0x311WZZTjx8R64hEAMGAbNm3WZVdea9TffeuNLkkFAAAAAAAAAAAAwNGAZa4AvtdycnKN8uSMdIL/AAAAAAAAAAAAOGqRAADgey176zajfNklFw0lak2XAAAgAElEQVThTAAAAAAAAAAAAICBIQEAwPeW0+nUt2u/kyQFBgbq9EULh3hGAAAAAAAAAAAAwKEjAQDA91Z5RaUqq6okSZdfcpFCQoKHeEYAAAAAAAAAAADAofNxOp1OTwy8u6zKKMePifXEIwAAAAAAAAAAAAAAwD7sAAAAAAAAAAAAAAAAgBcgAQAAAAAAAAAAAAAAAC9AAgAAAAAAAAAAAAAAAF6ABAAAAAAAAAAAAAAAALwACQAAAAAAAAAAAAAAAHgBEgAAAAAAAAAAAAAAAPACJAAAAAAAAAAAAAAAAOAFSAAAAAAAAAAAAAAAAMALkAAAAAAAAAAAAAAAAIAXIAEAAAAAAAAAAAAAAAAvQAIAAAAAAAAAAAAAAABegAQAAAAAAAAAAAAAAAC8AAkAAAAAAAAAAAAAAAB4ARIAAAAAAAAAAAAAAADwAiQAAAAAAAAAAAAAAADgBUgAAAAAAAAAAAAAAADAC5AAAAAAAAAAAAAAAACAFyABAAAAAAAAAAAAAAAAL0ACAAAAAAAAAAAAAAAAXoAEAAAAAAAAAAAAAAAAvAAJAAAAAAAAAAAAAAAAeAESAAAAAAAAAAAAAAAA8AIkAAAAAAAAAAAAAAAA4AVIAAAAAAAAAAAAAAAAwAuQAAAAAAAAAAAAAAAAgBcgAQAAAAAAAAAAAAAAAC9AAgDwPdfQ2KjrfvoLzT52gR557PdDPZ1Dtvjs85WcPk3J6dP01dffDvV0AAAAAAAAAAAAgMOOBADge27NF1/qy6++UUNjo/76t9dVVlY+1FMCAAAAAAAAAAAAcAj8hnoC3zdm8x5t3LTZqM+dM0thYWFu929sbJTZvEd79tSr2dqstjabRowYofCwMEVFRSgyMlImU//yOhwOh/bsqVed2azGxkY1N1slSQEBIxQeHq6Y6Kh+zRFHl/Z2u0vd6XQO0UwAAAAAAAAAAAAADAQJAIdRe3u7cnJzD6nvXotFRUXFqq6u6XLPYrHIYrGotKxMYWFhykifpKCgQLfGramtVWFhsfbu3dvlXmtrq+rrG7Rz5y6NGhWntNQU+fnxI+Ntfnj8fCVPTNKOgkJdfunFGjt2zFBPCQAAAAAAAAAAAMAhIJp7GBUUFBqr6/ujvLxCObl5cjgcxjV/f3+FhATL19dPFotFVmvHuA0NDdqcuUWzZk5XQEBAj2Pa7XYVFBZp9+4Sl+uBgQEKCgyS0+lUfX292u0dq8MrKipla7Np6tTJ8vX17fc74MgVGRGhD9/7j1paWxUwYsRQTwcAAAAAAAAAAADAISIB4DCpqa1VSWmZJCkmJrrblfzdcTgcqq6uMYL/0VFRSkiIV1hYqLHVv9PpVE1trbZvz5XNZpPValVBYZGmTM7ocVybzaaamlqjHj9urEaPGa2Q4GDjWnu7XaWlpdpRUChJqq2rU0VlpcaOYYW4t/Hx8SH4DwAAAAAAAAAAABzl+ndYPA5JW1ub8vJ2SJJGjYpTcKcge19MJpMyMiYpLCxMUyZnaPr0qRo5MtwI/ksdwduY6Gilp6cZ1yorq4xdAbozYsQITZ2SoZCQEB0zd7ZSU1Ncgv+S5Ofnq/HjEzR+fIJx7eAdAwAAAAAAAAAAAAAARwYSAA6DgsIiIxifkBAv+75t9d3l7++vObNnKi4uttd20VFRCgw8sO3/3r2WXtuHhobqmLmzFRoa2mu7MaNHG+WmpuZeEwsAAAAAAAAAAAAAAEODIwA8rLq6RmVl5ZKkxMQJCgkOVlk/EwCkjlX+7rQJDQ1Vc3NHgL7N1jYo4wYEjJCPj4+cTqckqb29vc8+OHJNnXVsj0kcYaGh2rD2S7fHevvd97XkznskSf99599KS02Rw+HQmi++0kcfr1T21m0qK69QQMAIjU9I0A+Omavzzztb8ePGuf0Mh8OhT1Z/ro9WfKzsrdtVXVOjUXGxmj5tqs5cfLrmz/uBfHx8NOIQjjDYtDlTqz79TOu+W6+y8nK1tbVpVFycZs2coVNOPlEL5h3nstvGwaqqqnXmeRepvr5eknTrLTfpZ9df1+szrVarzr/4chUUFkmSLjz/XD3y0P39njsAAAAAAAAAAABwMBIAPKi1tVW5efmSOlbbJ8THS5LsDofHntk5oO9OcL+/YwI92V1SqrjYGC25616t/myNyz2r1SqzeY82bc7UC395SUvvuUuXXnxhn2PWmc36ze/u0DffrnW5XlS8U0XFO/X2u+9r8WkLteyBpYoYOdLtudaZzVr6wMNasXJVl3s7Cgq1o6BQb7z5lmbPnKHfP/aIxowe1e04sbExevjB+3TDjbdIkp565lktmH+c0ielddtekv7wx+eN4H9CfLzuXPI7t+cNAAAAAAAAAAAA9IYEAA/Ky9+h1tZWSdKktBT5+flK6ljR7Cn7V/9L0vDhwwdlzLa2NmP1/2COi6Hxt5de0J76etXX12tPfYMKC4v01tvvDnjc/PwdevPf/9GaL7+SJMXFxio9PU0jhg9XYVGx8vJ3SJLsdofuWfqg4uJidcLxC3ocr6mpST/9xY3Kyt5qXIuOitK0qVPk6+ergoIiFRYV6X8rVsra0qLhI9z7uayqqtaPrv+5dhQUGtcmJiUqKSlRPvLRjoJCFRZ1BOg3bNqsiy+/Sv96/ZUedy049eSTdOnFF+qNN9+S3e7Q7Xfdqzf/+bpGdDOfdd9t0MuvvCZJMplMenz5QwoJCXZr3gAAAAAAAAAAAEBfSADwkIqKSlVVVUvqCC6GhoYa9zyVANDW1qaGhgajHhoSMijjNu7da5TDw8M0bNiwQRkXQ2PmjOku9e05uYOSAPCHPz4vSRozerQeXHqP5h13rMv2+Zszt+iWW5eorLxCkvTEU8/o+Pnzetxi/8WXXjGC/35+vlp6z1264Lxz5Od34M9W9tZtuvu+B/TZ51+4NUe73a7b7rjbCP4fM3eO7rlziVJTkl3abc/J1R1336ftObmqrq7RLbferjf+/jf5+/t3O+6SW3+j9es3qLB4p3Jy8/TCiy/p5l//0qVN4969uv3ue436TTfeoBnTp7k1bwAAAAAAAAAAAMAdPR9ujUNmtVqN1c7h4WFKSIh3ud9pMf2gqtyXcCBJcXGxgxaoLysrN8qjRsUNypjwToGBgXr1r3/WgvnHdQnsz5g+TY8vX2bUc/PyXVbhd1ZnNuvPL71s1O+47VZdctEFLsF/SZoyOUMv/fk5hYWFuTW/9z/4n75Zu06SNDkjXX/507Ndgv+SlD4pTX/50x+NcbOyt2rlJ6t7HDc4OEiPLV9mvPNzL7yoTZszXdo8/sTTKi0tk9SReHD9dde6NWcAAAAAAAAAAADAXSQADDKn06n8/ALZbDaZTCalpaX2uMJ5MLW0tKioqNiox48bOyjj1tbVqbq6RpI0YsQIxcXGDsq48E43/Ox6JcTH93h/zuxZSpww3qjn70uUOdiqT1bLbu/YKSMmJlqXXHRBj2NGR0W5FUx3Op165dXXjfpvbrpRAQEBPbaPiYnWFZdebNTf/Pd/eh1/6pTJ+s1NNxr1O+6+T83NzZKkzz7/Qm+8+ZYkKSgwUI88uLTH3QQAAAAAAAAAAACAQ0UCwCArr6hQdU1HwDx5YpJCgj1/vrfD4VBe3g7ZbDZJHcF/d1dE96a1tVW5uflGPSV5YpcV2EBnixae0mebyRkZRnlPfX23bdat32CUF5+2SMOHD+91zOMXzOvzuTt37lJObp6kjhX7xx4zp88+s2bN6DSn9bJarb22//GPrjbGLSreqaeeeU61dXW66977jTYPLr1H4wYpQQcAAAAAAAAAAADojASAQdTU1GysaI6MjNDYsWMOy3OLincaSQfBwcFKTEoc8Jh2u13btuUYAc8xo0crNjZmwOPCe4WFhiohflyf7YKDg4yy1drSbZvMLVlGOSN9Up9jjk/oedeB/bbl5BrlyRnpbq3Aj4qMNMp2u8P4PeuJn5+fHnnwfuMd//ba3/XTX9yomtpaSdJ555yls85c3OdzAQAAAAAAAAAAgEPBcu5B4nA4lJefr/Z2u/z8fJWaknJYtv4vL69QcfFOSZK/v7+mTM6Q/wBX6e8/xqDObJYkhYeHKaWbc9KBzpKSEuXj49Nnu85tnE5nl/sOh0OlpWVGfVRcXJ9jBgQEKCJipMzmPT226Tzm2nXrlZw+rc9xD9bYuLfPNmPHjtED996t39x2hyQpe+s2SdK4cWN11+2/6/czAQAAAAAAAAAAAHexA8AgKSktU11dR8A8OXmigoICPf7Mujqztnde1Tw53WV19aEqLt6p0rKOYGlAQIAmZ6TLz893wOPCuwUHDfxnT5Kam1232Q8IDHCrX0hwSK/3GxobD3lO+9ntdrfanXXmYi085SSXaw/ce/egHM0BAAAAAAAAAAAA9IQdAAbBXotFBQWFkqSY6GiNGT3a489sbGxUVla2sYI6I32Sy3blh6q0rEyFRcWSOrYznzZ1sgIC3AvA4vvN10NJIn3vKdBh2LDet/R3OA4E75MSE3XsMXP6PZeRI8PdaldTU6uNmzJdrn3+xZeaP+8H/X4mAAAAAAAAAAAA4C4SAAZBRUWlHA6HJMm8x6w1X3zVa/v29najvGlTpnw6HRVw/IJ5fR4dYLE0KXNLttr3rUZOnpik0aNHHer0DVVV1crJyZMkmUwmTZs6RSEhva+qBgbbwQknVqu1h5au+lrhHxYaapQnpaVo6T139n9ybnA4HLp76QPGERr7vfr6P7Rg/nH64YL5HnkuAAAAAAAAAAAAwBEAg6DzOebt7XbZbLZe/7m0t9t7vNcdq9WqLVlZam1tlSRNmDBe48cnDPgd6sxm46xySZoyJUMRESMHPC7QX76+Jo2KizPqVVXVffax2+0ym/f02iYuNtYoFxXvPOT59eWfb7yp1Z+tkSSNHTPaJdHgjrvuU21dnceeDQAAAAAAAAAAgO83EgCOIq2trcrckm2ckR4/bqySEicMeNz6+gaX4wSmTM5QTHT0gMcFDtWM6VON8vac3D7bl5SWueys0Z2pU6e4jHnwCv3BkL+jQA8/+nujvnzZg7riskt09plnSJJqamt13/0PGTuGAAAAAAAAAAAAAIOJIwAGQWpKslJTkt1un7klWzU1NZKkuXNmKSwsrM8+7e3tysreKovFIkkaM2a0kpMnysfH3RPSu7fXYlHmliy1t3ccJzBpUqri4mL76AV41tw5s/W/FSslSf9bsVK/uflG+fv799j+27Xr+hwzccJ4JU9M0o6CQknSf95+Vz/9yXWDMl9Jsra06He33yWbzSZJ+sl11+qYubMlSXfd/jut/e47VVfXaOUnq/Xv/7yjSy66YNCeDQAAAAAAAAAAAEjsAHBUaG+3Kzt7m+rrGyRJsbExSktNkck0sK+vudmqLVuyjYBlSvJEjR0zZsDzBQbq1JNPMn6+yysq9OZbb/fY1mJp0osvv9LnmCaTSTf87Hqj/vSzz2vT5ky35uN0OvvcYeCZZ583ditITUnWr3/1C+NeRMRIPfzgUqP+4MOPqrCoyK1nH6y2rk5nn3+x8e+Ka37MjgIAAAAAAAAAAACQRALAEc/hcGh7To5xbnhExEhNSkuV0+mU3W7v89/+bf0P1traqi1ZWbJaO44TSEiI19ixY9was7dxgcEQExOt66692qg/+PBy/fs/73QJwhcVFesXN96k0tIyt8Y9/bRFWnjKSZIkm82mK6/9iV548WWVlVd0advQ0KANmzbrhRdf1ulnna+Cwp4D9l99/a1eeuVVSZKvr0mPPHS/AkaMcGnzwwXzdcVll0jq+P277Y571NbW5ta8O9u5a7dycvOMf74m04CTgQAAAAAAAAAAAOAdOALgCFddXaOqqmqjbjbv0edrvnS7f0pKshLix3W5Xly8UxZLk1HftWu3du3a7fa47h5dgCNHndnc7Yr3kpIDwfM2m02rPl3dbf/5847rEtT2pBt+dr2++Xattufkym536M57luqpP/xR06dNlZ+fn3bu2qWc3DxJUlJioqKjI7V23fpex/T1NenhB5eqobFR677bIJvNpieefkZPPP2MIiMiFB0drfZ2m2rrzKqvr3drnnVms5bcdY9Rv/nGX2nK5Ixu2956y036+ptvtXPXbmVlb9XzL/xFN//6l25+Ih127tzlUj/xhOP71R8AAAAAAAAAAADeiwSAI5ynVtqzgP/7Z+fO3brhxlt6bWO1Wnts88XqjxUQF+eJqXUrJCRYL/35Od1y6xKt+26DJKmmtrZLgsKM6dP09BOP6n8rVvaZACBJYWFhevnPz+uPf/qzXn7lNeMIjDqzWXVmc7d9Ro8apZCQkC7XnU6nlj7wsKqrayRJM2dM149/dHWXdvsFBwdp+bIHdemV10iSnnvhRc077ljNmT2rz3nvl7PvmIH9frhgvtt9AQAAAAAAAAAA4N1IAABwxIqOitKrL/9Fqz79VB+tWKmsrdtUU1OrmJhoTU5P16KFp+i0hafI19dXyROT3B53+PDh+u3Nv9YVl12ilZ+s1rffrlNBYaEqq6rk42NSZGSEkicmaUpGhubOma1ZM6fLz6/rn8u33n5XK1auMsZ85MGl8vf37/XZs2ZO1y9++hP96cWXJEm33XG33n3rDbd31Ni6PccoT85IV2LiBHdfGwAAAAAAAAAAAF7Ox+mhJea7y6qMcvyYWE88AgC+V1paWjVj7nFqb2+XJN139x268vJLh3hWAAAAAAAAAAAAOFKYhnoCAAD3FBQWGsF/X1+TTlt06hDPCAAAAAAAAAAAAEcSEgAA4CiRm5dvlM9cfLqiIiOHcDYAAAAAAAAAAAA40pAAAABHic2ZW4zypRdfOIQzAQAAAAAAAAAAwJGIBAAAOEp8u+47SdKktFTNmjljiGcDAAAAAAAAAACAI42P0+l0emLg3WVVRjl+TKwnHgEAAAAAAAAAAAAAAPZhBwAAAAAAAAAAAAAAALwACQAAAAAAAAAAAAAAAHgBEgAAAAAAAAAAAAAAAPACJAAAAAAAAAAAAAAAAOAFSAAAAAAAAAAAAAAAAMALkAAAAAAAAAAAAAAAAIAXIAEAAAAAAAAAAAAAAAAvQAIAAAAAAAAAAAAAAABegAQAAAAAAAAAAAAAAAC8AAkAAAAAAAAAAAAAAAB4ARIAAAAAAAAAAAAAAADwAiQAAAAAAAAAAAAAAADgBUgAAAAAAAAAAAAAAADAC5AAAAAAAAAAAAAAAACAFyABAAAAAAAAAAAAAAAAL0ACAAAAAAAAAAAAAAAAXoAEAAAAAAAAAAAAAAAAvAAJAAAAAAAAAAAAAAAAeAESAAAAAAAAAAAAAAAA8AIkAAAAAAAAAAAAAAAA4AVIAAAAAAAAAAAAAAAAwAuQAAAAAAAAAAAAAAAAgBcgAQAAAAAAAAAAAAAAAC9AAgAAAAAAAAAAAAAAAF6ABAAAAAAAAAAAAAAAALwACQAAAAAAAAAAAAAAAHgBv6GeAAD05OzzL1ZObl6P9zPXf6OgoKDDOCMAAAAAAAAAAADgyMUOAAAAAAAAAAAAAAAAeAF2ADjMzOY92rhps1GfO2eWwsLC3O7f2Ngos3mP9uypV7O1WW1tNo0YMULhYWGKiopQZGSkTCb38zqcTqcaGhpVX1+vPXvq1dLaopaWFvn7D1NgYIDCwsIUHRWp0NDQfr0nMBiefHy5ampr1dDQoPr6BpWUlunFl/461NM6qr397vtacuc9h9T3z889o5NO/OEgzwjdeevtd3XH3fcNeJw7l9yqH11z1SDMCAAAAAAAAAAAHA1IADiM2tvblZObe0h991osKioqVnV1TZd7FotFFotFpWVlCgsLU0b6JAUFBfY5Zk1trYqLd6mhoaGbuVpltVpVV2dWUVGxRo2KU2pKsvz9/Q9p/sChmJiUqIlJiUa9orKSBAB4xCmnnaVdu3dr/TdrFB4ePtTTQR/4vgAAAAAAAAAA6B4JAIdRQUGhmput/e5XXl6hnNw8ORwO45q/v79CQoLl6+sni8Uiq7Vj3IaGBm3O3KJZM6crICCgxzFzc/NUUlrmcs3P11choSHy9/eX1doii8Uip9MpSaqoqJTVatX06dPk78ePDeANfH1NCg9zP3jqrQlAu3bv1q7du4d6Gi6GDfNXZEREt/eccsps3mPUw8PD5dvDzi/Dhw/3yPyG0pH4fQEAAAAAAAAAcKQgknuY1NTWGgH3mJjoblfyd8fhcKi6usYI/kdHRSkhIV5hYaHGVv9Op1M1tbXavj1XNptNVqtVBYVFmjI5o8dxw8LCVFJaJpPJpLFjxyguNkYhISEuxwfYbDbtLilVUVGxJKm+vkGlJaWaMGF8/z8AAEecaVOn6v/+8epQT2PIbdi4aain0MXZZ56hs888o9t7dWazjp1/olF/643XlRAff7imNuSOxO8LAAAAAAAAAIAjBQkAh0FbW5vy8nZIkkaNilNAQIDbCQAmk0kZGZO0OTNL8ePGKi4utksbHx8fxURHS+nSli3ZkqTKyipNTErscReAUaPi1G63KzIiQoGB3bfx9/dXUuIEmXx8VFBYJEkqKS1TQkK8S6IAABzNvvr626GeAvqB7wsAAAAAAAAAgJ4RxT0MCgqLjC36ExLiZbfb+9Xf399fc2bP7Db431l0VJRLMH/vXkuv7ceNHdNj8L+zUaPijHJra6taW1v77AMARwNrS4s+/+LLoZ4G3MT3BQAAAAAAAABA79gBwMOqq2tUVlYuSUpMnKCQ4GCV9TMBQOpY5e9Om9DQUDU3dyQbtNna+v2c7hx87rfd7hiUcTH0SkpK9dmaL7Tuu/UqLNqpquoq2WztGhkervHj45WWmqpZM6frB8fMVVhYWJ/j1dTWasXHq/TFV1+rsKhYNTU1ioqMVFJiok484XidvmihIiJGHoY366q4eKcWnnGOUc/N3ixf395zoD786GPd/NvbJEnHHXuMXv3riy73F599vnYUFOqJxx7W2WeeoW3bc/TE088oc0uWJiQk6EfXXKUzzzhdUsdxHm++9bb+/s83VFJapqlTMvTjH12jE45f0O2zj51/ourMZp15xul66vHlkqSKykp9+L8V+vSzNdpdUqLGxkZFR0drxrRpOvmkE3TqySd2+X31NE99Brl5+TrrvIskSY8+/KDOP/dsSdKmzZl69/0PtGHjJpWWlSsyYqQmpaVp0cJTtPi0hX2+f/bWbdq2PUf5Owq0bXuOsrduk81mM+7POe6HPfY9fv48vfzi8y7XampqteCkU42/ix9/8K4SEye48cl1/L7MP+FU44iXlR++NyRHrDQ0NurjlZ/o8zVfKn9HgSqrqjQyPFyJE8ZrwYJ5Omvx6YqNjel1jKeffU7P/anj9yM6Kkr/ffffioyI6LXP2+++ryV33iNJGj58uN7597+UPDHJpc1gf18AAAAAAAAAAHg7EgA8qLW1Vbl5+ZKk0NBQ44xmu8NzAfTOiQLuJA24o63NNZFg2LDDG2DE4Nu716LfP/UHvfHmW0bwsbPKqipVVlVp7br1+ttrf9eZi0/TU79/tMfxnE6nXv/nG3riqWfU3Nzscq+0rFylZeVa8+VXeuoPf9SdS27V+eed08NIR6ei4p0qLCrSldf+WBZLkyQpa+s23fK729Xa1qoLzjtXzz7/gv74/J+NPmvXrdfadev1lxf+2GMSgCTl5uZJkj76eKXuvGepMf5+JSWlKikp1fsffKiZM6brmScf7zNY6wme/AyKd+5Ue3u7Hn/yaf31b6+73Csts6q0rFyrPl2tV1//h55+4lHFjxvX41jLH39S363fMMC3PSA6Okqnn7ZIH3z4kSTpg49W6Ne//IVbfT9d/bnx+zd75owhCf5/+NHHenDZctWZzS7X9/8N+GbtOv3h2ed0229v0VVXXNbjODf87Hp9+dU3ysreqpraWj30yGNG4kp3ysrKdf9Djxj1u27/XZfgvzT43xcAAAAAAAAAAN6OBAAPysvfYWyXPyktRX5+vpLUbcB1sOxf/S91rKgcDDU1tUZ55MhwDRs2bFDGxdAor6jQT39xo/Lyd7hcHz58uGJiouV0OlVeXuHyc3revtXX3XE6nXrokcf02t//aVzz9/fX7JkzFBExUnv21Gvj5ky1traqobFRS+66V2XlFbrxlz8f/JcbIjsKCvXk08/Kx8dHpy08Vbl5edq5a7ck6fEn/qCJSUn64/N/VkTESM2dPVvbcnJUUlIqSXriqWd6DX4XFe/UZ59/oZt/u0QOh0Mmk0kzpk9VXGysLJYmrd+4yUi62LQ5Uzf/9ja99spfDvtOAJ78DPJ3FOipZ54zgv+JE8ZrYlKi5OOjrVu3q7yiQlLHavFrf/Jz/d/fX1V0dFS3Y1137VU675yzjLrFYtGy5Y8b9XvuXKLAwMBu+0ZFRnZ7/aLzzzUSAN548y394qc/cevzf+/9D4zyhRec22f7wfa31/7u8u4BAQGaNXO6wsPCVN/QoA0bN6mlpVUtLa16YNly1dTU6jc339jtWMOGDdPjjzykcy68RC0trfrgw490ykkn6ozTF3Vpa7c7dPfSB4yf21NPPkmXXHRBt+N64vsCAAAAAAAAAMCbkQDgIRUVlaqqqpYkTUxKVGhoqHHPUwkAbW1tamhoMOqhISEDHrOuzqyCwiKjPmHC+AGPiaHT0tKqW2693SX4f+H55+qySy/WpNQUI2jZ3t6usvJyrV23Xt+t36jjjj2mxzHffvc9l+D/LTf9SldfcbmCg4OMa1arVW+8+ZaWP/6kHA6HnnnuT0pKStTi0xZ64C0Pv5WrPtXYsWP08YfvKToqStaWFl1x9XXK3rpNdWazfnrDjZo+bapefvF5hYaEqKmpSedccKl27d6t3Lx8lZSUaty4sd2O7XA49NMbOoKuV15+qX51w89ctlZvamrSs8+/oJdfeU2StGHTZn32+RdaeOrJnn/xTjz5Gaz+bI1Wf7ZGk9JSteyB+wQKW6cAABZ4SURBVDRlcoZxz+FwaNUnq/W7O+6W1WpVSUmpHn/yaT32yEPdjnXyiSe41OvMZpeA8tlnLlZ4eHi/3v2YuXM0duwYlZaWqaamVl9/u7bXhAZJ2rV7tzZs2ixJ8vPz6zIvT/tm7Trjvf38/HTnklt14QXnKWDECKON1WrVa3//l37/1B8kSX968SVNnTpZp5x0YrdjJiZO0L133aE771kqSbrvgWWaPXNGlx0p/vV/b+qrr7+V1HFcwP333SWTqfvjODzxfQEAAAAAAAAA4M16PwAbh8RqtRoB1vDwMCUkxLvcdzo989zKfQkHkhQXF3tIK/WdTqdsNpvq6xuUm5unTZszZbfbJUmpKcl9numMI9ubb/1HmzZnGvUnH3tEjzx0v6ZOznBZsezn56eE+HhdctEFeuKxh+Xn132uUENDgx5YduBogHvuul03/Ox6l+C/1LGy+EfXXKXlyx4wrt193/1qaGwcrFcbctdfd62iozpWnQeMGKGrr7zcuGc279EtN/3KSMoJCgrS2WctNu7vXynfm6uvvFz33X1Hl9/BoKAg3fbbW7Rg/nHGtY9XfTqgdzlUnvwMQkKC9dILz7kE/yXJZDJp0cJT9PtHHzauvfPef43jVw4HX19fXXHZJQee/+77ffZZ9elnRnnxaYsOaxDbZrPp7vsO/C4+vnyZrrriMpfgv9Txe/uz669z2a3j908+Y/yf0J0LzjtHixaeIqnj78PSBx92SXorKirW8sefNOqPLLvf+JkBAAAAAAAAAAADRwLAIHM6ncrPL5DNZpPJZFJaWmqPKxsHU0tLi4qKio16fA8rabvT2NioVZ+s1qpPVuuTTz/T52u+1PoNG1VSWiZJioyI0OxZMxUf3/O52jjy2Ww2/eXlvxn1H11zlc46c3HPHdzw/gf/M7bxTktN0RWXXtxr+3PPPlOzZ82UJO3da9F7//1wQM8/kkydMtmlnpaaYpR9fU2aOX26y/3E8eONcnVNtXoTHBykm268ocf7JpNJF194vlFfv2GjO1PWps2ZSk6f5ta/O+6+r8/xPPkZXHPVFYqJie7x/qknn6jp06Ya9RUfr+pzvoPpzMWnGX/rV6z8RNXVNT22dTqdevud94x650SIw+GLr742jl+YOWN6t9v0d3bV5ZfJ17fj3QqLirRx384F3TGZTLr/3ruMIxg+Wf2Z3nmvIyHCZrPpznuXGkfjXHv1lfrhgvkDfh8AAAAAAAAAAHAACQCDrLyiQtU1HYGf5IlJCgkO9vgzHQ6H8vJ2yGazSeoI/oeFhQ143OHDhysleaLS0lI1ciRbLB/tcnLzVFlVZdSvueqKAY/5yerPjfL5554tX1/fXtv7+PjowvPPMeofffTxgOdwpBg1Ks6l3nmlfuKECRoxYrjL/eBOfxus1pZex1582qI+j/SY0CmYXlVd7bGjRnrjyc9g3nE/6PW+j4+PSyD7m7Xr+pzvYIqLjdWiUztWvjscDq1Y2XMCQk5unnYUFEqSIiJG9nrEhid80mn3gTMXnyYfH59e248cGa6M9HSjvmnzll7bR0ZE6NFlDxr1B5Y9qpKSUr3y6uvauKljB5K01FT95uYbD2X6AAAAAAAAAACgF93v641D0tTUrPx9W/9HRkZo7Ngxh+W5RcU7jaSD4OBgJSYl9qu/n5+/xu2bq8PhVLu9Xc1NzdprsSh/R4HydxQoImKkJowfr4iIkYM+fxweW7KyjfKktFSNGT1qQOO1tbW5rDSfnJHeS+sDXAKJmVvU1NSkoKCgXnocHQ4O0Pv7H/jzGhcX26V952MV2tvbex172tQpfT4/KDDQKDscDrW12boE3A/m7++vsWNG9zm2JI0c2ffvvic/gwnjE/p8fkpKslHO3rpNNpvN5WgLT7vwgnP10ccrJUn/+r9/68rLL+12B5iVnY5ouOC8cw/rHCVp7brvjHJKcnIvLQ8YM3q0srK3SpJKy8r6bL9g/nG67tqr9Ne/va7m5mb98qbfKH9Hx/+Pfn5+enz5Q12OHAAAAAAAAAAAAANHAsAgcTgcysvPV3u7XX5+vkpNSTksW/+Xl1eouHinpI5g3pTJGfLv4bz2ngQGBigtLbXL9dbWVlXX1KqwsEhm8x6ZzXuUmpLMUQBHqfKKSqN88Dnqh8K8Z4+x64QkjR7tXiB5dKfEA4fDoerqGk2YcHQnAJhMpl6DuH0FOp1OZ6/3R4/qO1nj4FXcTvU+ptTxc/B//3i1z3bu8PRn0NcOCJIU2+mIgPb2djU0NioqMrLPfoPluGOP0ai4OFVUVqqgsEiZW7I0c4brsQd2u0Nvv/u+Ue9r+/3BZm1pUWlZuVG/8tof93uMPfX1brW7+de/0jfffqfcvDzl5OYZ1+9YcqvL8RAAAAAAAAAAAGDwcATAICkpLVNdnVmSlJw8UUFBgX30GLi6OrO25+Qa9cmT0xUcPHiB1OHDh2vc2DGaPXumsVI3L3+H6usbBu0ZOHwaGxuN8mAcEWGxNLnUAwMC3Op3cLu9FsuA5zLUhg3rfQW3r+/Acq0C3Pxsh5InPwM/Pz+3Vskf/Dk1NTX10NIz/Pz8dPmlFxv19/77YZc2mzZvVkVlRzJOWmqK0ielHbb5SYPzmXRO/OlNwIgRevjB+1yuzZ41U1dedsmA5wAAAAAAAAAAALrHDgCDYK/FooJ95znHREdrjJsroQeisbFRWVnZxqrZjPRJHlvpGhwUpAnjE4wzq8vKyxUePvAAMg4vu/3AmfAmU+9nfrvj4GPD+1rB3d92RwKH3e5WOx8fz+ZS+foe+blanvwM2tvb5XQ6+zyr/uAfrb7ae8JZZy7WE08/I0l6573/6ne/udklMWvFx6uM8kUXnHfY5+jo9HdAks456wwFBwf3a4zECePdbrvmi69c6ttzclVaVqb4cewkAwAAAAAAAACAJ5AAMAgqKirlcHQEVcx7zF0CHgfrfNb1pk2Z8ul0VMDxC+b1eXSAxdKkzC3Zat8XnEyemOSyrbonhIeHG+Xa2jqPPgueERZ2YAv1xsa9Ax4vOMg1aGhtaXGrX7PV6lIP6Wfw8XA6eK4YOi2trX0eI9DS4vp9BQZ6fieWg40ZPUqnnnySVn26WlarVZ+s/kznnn3mvvm1uuwKsPDUkw/7/A7eJeYn113rse34N23O1LPPv+Byrbm5WUvuvFev/fVFt3Z1AAAAAAAAAAAA/XPkLys9CnRe0dzebpfNZuv1n0t7u73He92xWq3akpWl1tZWSdKECeM1fnyCJ17LRecVyG1tbUfVKm50iI2JNcq5efkDHi8yMsJly/WysjK3+lVUVBhlk8mk6OjoXloPokNYaV1ZVeWBieBQ1LmReFRRceD78vf3V1hoqCen1KOLLjjPKL/19jtGee1336lh31EcJ55wvOJiY7v09bTAwEBFRkQY9YqKSo88p6GxUbfefpeRHHfbb2/WpLRUSdKGjZv00iuveuS5AAAAAAAAAAB835EAcBRpbW1V5pZsNTd3rHKNHzdWSYkTDs+z29qM8vDhw4dka20MzOSMSUY5KztbNbW1AxrPz89P835w7IExt25zq1/21u1GeeqUyV1WJHvKsGHDXOpWN1b3b9ue46npoJ+Kdu7ss01u/oHElqlTMoZshfn8eT9QTExHYsu67zZo1+7dkqQVH39itDn37LOGZG5Sx04z+63fuMkjz3jk0SdUUlIqqePzuO7aa/Tow//f3r1HRV3mcRz/MDgCCUqAeYFUQAVFS0ArzfKSqSjm/ZJadmovtW227marK9417eZW6tratu1mZmpqWWa4ltejYeT9mpqCiikwOjCp6Mywf6C/A3FXhlF8v86Zc37Pb575/r76O0f/eL7P95lqFJO99c5c7dy12yXPBgAAAAAAAADgdkYBQAWIaNpEj3bpXOZP/h3P97WJLfCdp6dnkc+w2+3avWevbDabJCk4uL6aNGlcaQvx+Xff+vvXqpRnomK1bBFl7Ih2OJxavGTZDcfs1rWLcb18xecFjrcoitPp1PIVnxf5e1f79W7w4ykpJc7PtFi0cVPJx3mg8mzYsKnE751Op75anWiMH2zbtkxxvap7FRift2aVP7lfMZvNGjp4kDHesHGzLl3K0erENZLyduF3yLcIX9ke6dTRuF6ydJnRlaCirFqdqGUrPpOUd+TAtMkT5elpUrPICL006kVJee/r5bEJstl+KVdsV7wvAAAAAAAAAACqEgoAbgF2u0N79uzT+fNWSVKdOncpMqKpTKbre33Xjikoq3Pnziv16k5OSbqrslq2o0L5+PhoxBPDjPGcee9q0+YtNxSzW9cuxk7nw0eOasHCRSXO/2zll0revkNSXieJvr0rbxe0r28NRUZEGOMVn39R4vzZc9+Vw+F0dVooo48XL9WxY8eL/X7N2m+0J18XirjuXcsUt0aNO+Tv72+MK6rrQ6/4uAK57dq9RxcuXJAk9XksXjVqVE7ni6I80rmjQq8eHWPNytLEydN0OV+Xl5KU9n/HqVNpGj9pijGeNH6cguvXM8ZPPTlcrWNjJEnHjqfo1TdmlSt3V72vazIyM/VYv0HGZ9iIZ4xjDAAAAAAAAAAAuBVQAHCTczqd2n/ggDIy83bgBwTcqWaREcrNzZXD4Sj1k5ubWyhmTk6ONm/eoh8PH5HFck5Xitm1nZOTo5SUVO3Yucu45+9fy1jwxa1nxJPDFBbaSFJeF4DfPPu8XnvzLf3007FCi1zWrCxt+z5Zs+e+q8VLi+4W4OPtrRnTJhvjV159Q3PnzS+0q/fipUv674KFGpsw0biXMPblAmeRV4bej/U0rj/86GMtWLioUNeCjMxMTZ42QwsXLa7U3FAyu92uZ559Xknbkgv8u+Z0OpW4Zq1eHjveuNe/bx81Dg8rU1wPDw917viwMX7j72/ryNGfipxbnoXgBnffrY4dHpIkfZ+8Xes3bDS+i+/RvcxxXKFatWqaOX2K0Y5/1epEjXj6d9qy9TtdupRTYK7dbldKaqq+/OprjR4zTgkTpxQV0pg7NmGisrPzOtX06N5Vj8X3KPTsGdMmy9s7byf/J0s+1Zq135Y5d1e9r2uOp6TqwMFDxsfTZLruYjsAAAAAAAAAANyhmrsTQMnOnk3XmTNnjbHFck7rS2mFnV/Tpk3UsMHdhe7bHQ6lpKQqJSXvbGo/Pz/5+HjL09NTDodDFy9cVPbV4wau8fWtoZYtolgMuYXV9PPTnLdn6enfPqefz5yR0+nUe+9/oPfe/0C1atZU3bp15OHhobPp6bJYzhm/+9MLzxcb8+H2D2rcmNGaPvN1SdJbs+dq7rvz1TomWoGBATpvtSr5h+0FFhaHDx2iQQP6FRvTZvtFW5OSCt0/d+58gfG69Rvl5e1VaF6b2JgCu4SvGdivjxYuWqyTJ09JkqZMn6m58+YrNqaVzGaz0k7/rF2798jpdOqOO+7QzOmTNXLU6GLzvNXt2r1bD7TvVOb5r8+crofat3NhRkWLbnWvQkMbafmKzzX8qWcUEhKs5pER8jCZtG/ffp08lWbMbdSwgV7688hyxX9i2OP6bOWXcjqdOnnylOL79Ffr2BiFBIco53KOrFarjqekqu3992n6lImlB7xq8MD+Wr9hk5xOpz5Z+qkkKSQkWDHR0eXKzxViolvpjVdnaPSYcbLb7UrevkMjnvm9zGazQoLry8fHR9k2m06f/rlAkUx8z7hiY/77Px9qa9I2SVLtoCBNSBhb5DE1jRo20LgxL2v8pKmSpL+Nn6R7Wkapbp06ZcrdVe9Lko4fL3g0SKd8xQYAAAAAAAAAANwKKAC4yRW1g/9Gmc3VVLNmTWXlO/c5Oztb2dnZxf7m7pBghYeHyWw2V3g+qFxNGodr2eKFmvLKTCWuWWvct2ZlFXsWuMmz5KKPp54crtq1a2vq9JnKtFh05coVYyEwPx8fH700aqSeGPZ4kQuD16Snp+sPL4wq9c8yavSYIu8vX/JxkQUAtWrV0nvz5ui5P76o41eLXzItlkI7kOvWqaNZr8/QPS1byGQyVdkW4A6HU5kWS5nnl+fokIpks9k0ZcI4VTeb9cmST3Xy5CmjiCO/li2i9M6s1xUUGFiu+C2imuu1GdM0ZtwE2e12ORxOJW1LVpKSC8y7v03rcsV9uP2DCgwIUKbFYnTFGNi/r7Hz3t3ie3RXcP16mjT1Fe0/cFBS3js+9qtF8GtMJpPCGjUq8rvde/dp1tuzjfG0yRNK7PAxaEA/fbNuvdZv2CSr1aqECVM0f97sMhWYuep9SdKBq38P13R4qH25YwAAAAAAAAAA4E4UANyGqlevrvvaxCorK0vnz1uVbbPJZvtFly9f1pUrV2Q2m+Xl5SU/X1/VrOWnoMBAeXt7uzttVKC77qqtOW+9qYOHDmndhk36Lul7pZ44ofT0DHl4SAF3Big8PFQto6LU9oH71aZ1TKkxe8Z1U/sH22r112v0zbr1OnLkqNIzMlU7KFBhoaHq8HB7xXXrqtq1gyrhT1i8xuFhWrl8ib786mutW79Re/ftV0ZmpgIDAhTaqKEe7dJZvXrGGQUE4WGhOnzkqFtzvt2dTc+Ql5eXpk4ar1494/TFqtXa9n2y0k6fVsCdAWreLFLduz2qHt27XneRUu9ePXVPyxZatuIzbd2apJTUE7pw8aKCAgNVr15dRTVvpk4dyrcbvHr16np8yEDN+cc/jXtxXR+9rvxcJbrVvVqxdJE2b9mqTZu36IftO5SWdlrWrCz5+vqqQUiwIiMjFBvdSu3aPVDkLn2b7ReN/uvf5HDkFcoMGTRAnTt1KPG5JpNJUyeNV3zvAbJmZWnDps366ONP9OTwoWXK2xXvS5L27j9gXLeIaq6wsNByxwAAAAAAAAAAwJ08cl2xxVxS6qkzxnWD4LK19QUAQJIOHvpRvfoOlCSZzWbt35Vcyi9uTqsT1xjHSLSOjdGiBR+4OSMU59KlHEXf18448mBiwlgNHzrEzVkBAAAAAAAAAFA+N0cfYgAAiuGiOrVKsWp1onE9oF9vN2aC0hw5etRY/Pf0NKl7t5urWwMAAAAAAAAAAGVBAQAAAC6QnpGh/639VlJeF4NHOnV0b0Io0cFDPxrX8T3iFBQY6MZsAAAAAAAAAAC4PhQAAADgAiu/+EpOp1OS1L9vb/n7+7s5I5Rkx85dxvWQQQPcmAkAAAAAAAAAANePAgAAACpYRmam5s3/lzEe9vhgN2aDstiatE2S1CwyQrEx0W7OBgAAAAAAAACA61PN3QkAAFCVpJ44obEJk2S1WiVJA/v3VWREUzdnhdJ8m7jK3SkAAAAAAAAAAHDDKAAAAOAG9B80VIFBgfLz9VNaWpq279xltP6vX6+e/jJqpJszBAAAAAAAAAAAtwsKAAAAuAH7Dx6S3W4vdL9e3bqaP2+2AgMC3JAVAAAAAAAAAAC4HVEAAADADXiofTsdOnRYmRaLzOZqahweri6dO2nwwH7y9/d3d3oAAAAAAAAAAOA24pGbm5vrisCpp84Y1w2C67jiEQAAAAAAAAAAAAAA4CqTuxMAAAAAAAAAAAAAAAA3jgIAAAAAAAAAAAAAAACqAAoAAAAAAAAAAAAAAACoAigAAAAAAAAAAAAAAACgCqAAAAAAAAAAAAAAAACAKoACAAAAAAAAAAAAAAAAqgAKAAAAAAAAAAAAAAAAqAIoAAAAAAAAAAAAAAAAoAr4P7YzjWcHipbLAAAAAElFTkSuQmCC;" vertex="1" parent="1">
          <mxGeometry x="90" y="70" width="520" height="196" as="geometry" />
        </mxCell>
      </root>
    </mxGraphModel>
  </diagram>
</mxfile>
